<svg width="221" height="23" viewBox="0 0 221 23" fill="none" xmlns="http://www.w3.org/2000/svg">
<path d="M2.99802 11.832C2.76468 12.0653 2.48468 12.182 2.15802 12.182C1.83135 12.182 1.55135 12.0653 1.31802 11.832C1.08468 11.5987 0.968018 11.3187 0.968018 10.992C0.968018 10.6653 1.08468 10.3853 1.31802 10.152C1.55135 9.91867 1.83135 9.802 2.15802 9.802C2.48468 9.802 2.76468 9.91867 2.99802 10.152C3.23135 10.3853 3.34802 10.6653 3.34802 10.992C3.34802 11.3187 3.23135 11.5987 2.99802 11.832Z" fill="#C4D0EA"/>
<path d="M8.84411 11.832C8.61078 12.0653 8.33078 12.182 8.00411 12.182C7.67744 12.182 7.39744 12.0653 7.16411 11.832C6.93078 11.5987 6.81411 11.3187 6.81411 10.992C6.81411 10.6653 6.93078 10.3853 7.16411 10.152C7.39744 9.91867 7.67744 9.802 8.00411 9.802C8.33078 9.802 8.61078 9.91867 8.84411 10.152C9.07745 10.3853 9.19411 10.6653 9.19411 10.992C9.19411 11.3187 9.07745 11.5987 8.84411 11.832Z" fill="#C4D0EA"/>
<path d="M14.6902 11.832C14.4569 12.0653 14.1769 12.182 13.8502 12.182C13.5235 12.182 13.2435 12.0653 13.0102 11.832C12.7769 11.5987 12.6602 11.3187 12.6602 10.992C12.6602 10.6653 12.7769 10.3853 13.0102 10.152C13.2435 9.91867 13.5235 9.802 13.8502 9.802C14.1769 9.802 14.4569 9.91867 14.6902 10.152C14.9235 10.3853 15.0402 10.6653 15.0402 10.992C15.0402 11.3187 14.9235 11.5987 14.6902 11.832Z" fill="#C4D0EA"/>
<path d="M20.5363 11.832C20.303 12.0653 20.023 12.182 19.6963 12.182C19.3696 12.182 19.0896 12.0653 18.8563 11.832C18.623 11.5987 18.5063 11.3187 18.5063 10.992C18.5063 10.6653 18.623 10.3853 18.8563 10.152C19.0896 9.91867 19.3696 9.802 19.6963 9.802C20.023 9.802 20.303 9.91867 20.5363 10.152C20.7696 10.3853 20.8863 10.6653 20.8863 10.992C20.8863 11.3187 20.7696 11.5987 20.5363 11.832Z" fill="#C4D0EA"/>
<path d="M26.3824 11.832C26.1491 12.0653 25.8691 12.182 25.5424 12.182C25.2157 12.182 24.9357 12.0653 24.7024 11.832C24.4691 11.5987 24.3524 11.3187 24.3524 10.992C24.3524 10.6653 24.4691 10.3853 24.7024 10.152C24.9357 9.91867 25.2157 9.802 25.5424 9.802C25.8691 9.802 26.1491 9.91867 26.3824 10.152C26.6157 10.3853 26.7324 10.6653 26.7324 10.992C26.7324 11.3187 26.6157 11.5987 26.3824 11.832Z" fill="#C4D0EA"/>
<path d="M32.2285 11.832C31.9952 12.0653 31.7152 12.182 31.3885 12.182C31.0618 12.182 30.7818 12.0653 30.5485 11.832C30.3152 11.5987 30.1985 11.3187 30.1985 10.992C30.1985 10.6653 30.3152 10.3853 30.5485 10.152C30.7818 9.91867 31.0618 9.802 31.3885 9.802C31.7152 9.802 31.9952 9.91867 32.2285 10.152C32.4618 10.3853 32.5785 10.6653 32.5785 10.992C32.5785 11.3187 32.4618 11.5987 32.2285 11.832Z" fill="#C4D0EA"/>
<path d="M38.0746 11.832C37.8412 12.0653 37.5612 12.182 37.2346 12.182C36.9079 12.182 36.6279 12.0653 36.3946 11.832C36.1612 11.5987 36.0446 11.3187 36.0446 10.992C36.0446 10.6653 36.1612 10.3853 36.3946 10.152C36.6279 9.91867 36.9079 9.802 37.2346 9.802C37.5612 9.802 37.8412 9.91867 38.0746 10.152C38.3079 10.3853 38.4246 10.6653 38.4246 10.992C38.4246 11.3187 38.3079 11.5987 38.0746 11.832Z" fill="#C4D0EA"/>
<path d="M43.9207 11.832C43.6873 12.0653 43.4073 12.182 43.0807 12.182C42.754 12.182 42.474 12.0653 42.2407 11.832C42.0073 11.5987 41.8907 11.3187 41.8907 10.992C41.8907 10.6653 42.0073 10.3853 42.2407 10.152C42.474 9.91867 42.754 9.802 43.0807 9.802C43.4073 9.802 43.6873 9.91867 43.9207 10.152C44.154 10.3853 44.2707 10.6653 44.2707 10.992C44.2707 11.3187 44.154 11.5987 43.9207 11.832Z" fill="#C4D0EA"/>
<path d="M49.7668 11.832C49.5334 12.0653 49.2534 12.182 48.9268 12.182C48.6001 12.182 48.3201 12.0653 48.0868 11.832C47.8534 11.5987 47.7368 11.3187 47.7368 10.992C47.7368 10.6653 47.8534 10.3853 48.0868 10.152C48.3201 9.91867 48.6001 9.802 48.9268 9.802C49.2534 9.802 49.5334 9.91867 49.7668 10.152C50.0001 10.3853 50.1168 10.6653 50.1168 10.992C50.1168 11.3187 50.0001 11.5987 49.7668 11.832Z" fill="#C4D0EA"/>
<path d="M55.6129 11.832C55.3795 12.0653 55.0995 12.182 54.7729 12.182C54.4462 12.182 54.1662 12.0653 53.9329 11.832C53.6995 11.5987 53.5829 11.3187 53.5829 10.992C53.5829 10.6653 53.6995 10.3853 53.9329 10.152C54.1662 9.91867 54.4462 9.802 54.7729 9.802C55.0995 9.802 55.3795 9.91867 55.6129 10.152C55.8462 10.3853 55.9629 10.6653 55.9629 10.992C55.9629 11.3187 55.8462 11.5987 55.6129 11.832Z" fill="#C4D0EA"/>
<path d="M61.459 11.832C61.2256 12.0653 60.9456 12.182 60.619 12.182C60.2923 12.182 60.0123 12.0653 59.779 11.832C59.5456 11.5987 59.429 11.3187 59.429 10.992C59.429 10.6653 59.5456 10.3853 59.779 10.152C60.0123 9.91867 60.2923 9.802 60.619 9.802C60.9456 9.802 61.2256 9.91867 61.459 10.152C61.6923 10.3853 61.809 10.6653 61.809 10.992C61.809 11.3187 61.6923 11.5987 61.459 11.832Z" fill="#C4D0EA"/>
<path d="M67.3051 11.832C67.0717 12.0653 66.7917 12.182 66.465 12.182C66.1384 12.182 65.8584 12.0653 65.6251 11.832C65.3917 11.5987 65.275 11.3187 65.275 10.992C65.275 10.6653 65.3917 10.3853 65.6251 10.152C65.8584 9.91867 66.1384 9.802 66.465 9.802C66.7917 9.802 67.0717 9.91867 67.3051 10.152C67.5384 10.3853 67.6551 10.6653 67.6551 10.992C67.6551 11.3187 67.5384 11.5987 67.3051 11.832Z" fill="#C4D0EA"/>
<path d="M73.1511 11.832C72.9178 12.0653 72.6378 12.182 72.3111 12.182C71.9845 12.182 71.7045 12.0653 71.4711 11.832C71.2378 11.5987 71.1211 11.3187 71.1211 10.992C71.1211 10.6653 71.2378 10.3853 71.4711 10.152C71.7045 9.91867 71.9845 9.802 72.3111 9.802C72.6378 9.802 72.9178 9.91867 73.1511 10.152C73.3845 10.3853 73.5011 10.6653 73.5011 10.992C73.5011 11.3187 73.3845 11.5987 73.1511 11.832Z" fill="#C4D0EA"/>
<path d="M78.9972 11.832C78.7639 12.0653 78.4839 12.182 78.1572 12.182C77.8306 12.182 77.5506 12.0653 77.3172 11.832C77.0839 11.5987 76.9672 11.3187 76.9672 10.992C76.9672 10.6653 77.0839 10.3853 77.3172 10.152C77.5506 9.91867 77.8306 9.802 78.1572 9.802C78.4839 9.802 78.7639 9.91867 78.9972 10.152C79.2306 10.3853 79.3472 10.6653 79.3472 10.992C79.3472 11.3187 79.2306 11.5987 78.9972 11.832Z" fill="#C4D0EA"/>
<path d="M84.8433 11.832C84.61 12.0653 84.33 12.182 84.0033 12.182C83.6767 12.182 83.3967 12.0653 83.1633 11.832C82.93 11.5987 82.8133 11.3187 82.8133 10.992C82.8133 10.6653 82.93 10.3853 83.1633 10.152C83.3967 9.91867 83.6767 9.802 84.0033 9.802C84.33 9.802 84.61 9.91867 84.8433 10.152C85.0767 10.3853 85.1933 10.6653 85.1933 10.992C85.1933 11.3187 85.0767 11.5987 84.8433 11.832Z" fill="#C4D0EA"/>
<path d="M90.6894 11.832C90.4561 12.0653 90.1761 12.182 89.8494 12.182C89.5228 12.182 89.2428 12.0653 89.0094 11.832C88.7761 11.5987 88.6594 11.3187 88.6594 10.992C88.6594 10.6653 88.7761 10.3853 89.0094 10.152C89.2428 9.91867 89.5228 9.802 89.8494 9.802C90.1761 9.802 90.4561 9.91867 90.6894 10.152C90.9228 10.3853 91.0394 10.6653 91.0394 10.992C91.0394 11.3187 90.9228 11.5987 90.6894 11.832Z" fill="#C4D0EA"/>
<path d="M96.5355 11.832C96.3022 12.0653 96.0222 12.182 95.6955 12.182C95.3689 12.182 95.0889 12.0653 94.8555 11.832C94.6222 11.5987 94.5055 11.3187 94.5055 10.992C94.5055 10.6653 94.6222 10.3853 94.8555 10.152C95.0889 9.91867 95.3689 9.802 95.6955 9.802C96.0222 9.802 96.3022 9.91867 96.5355 10.152C96.7689 10.3853 96.8855 10.6653 96.8855 10.992C96.8855 11.3187 96.7689 11.5987 96.5355 11.832Z" fill="#C4D0EA"/>
<path d="M102.382 11.832C102.148 12.0653 101.868 12.182 101.542 12.182C101.215 12.182 100.935 12.0653 100.702 11.832C100.468 11.5987 100.352 11.3187 100.352 10.992C100.352 10.6653 100.468 10.3853 100.702 10.152C100.935 9.91867 101.215 9.802 101.542 9.802C101.868 9.802 102.148 9.91867 102.382 10.152C102.615 10.3853 102.732 10.6653 102.732 10.992C102.732 11.3187 102.615 11.5987 102.382 11.832Z" fill="#C4D0EA"/>
<path d="M108.228 11.832C107.994 12.0653 107.714 12.182 107.388 12.182C107.061 12.182 106.781 12.0653 106.548 11.832C106.314 11.5987 106.198 11.3187 106.198 10.992C106.198 10.6653 106.314 10.3853 106.548 10.152C106.781 9.91867 107.061 9.802 107.388 9.802C107.714 9.802 107.994 9.91867 108.228 10.152C108.461 10.3853 108.578 10.6653 108.578 10.992C108.578 11.3187 108.461 11.5987 108.228 11.832Z" fill="#C4D0EA"/>
<path d="M114.074 11.832C113.84 12.0653 113.56 12.182 113.234 12.182C112.907 12.182 112.627 12.0653 112.394 11.832C112.16 11.5987 112.044 11.3187 112.044 10.992C112.044 10.6653 112.16 10.3853 112.394 10.152C112.627 9.91867 112.907 9.802 113.234 9.802C113.56 9.802 113.84 9.91867 114.074 10.152C114.307 10.3853 114.424 10.6653 114.424 10.992C114.424 11.3187 114.307 11.5987 114.074 11.832Z" fill="#C4D0EA"/>
<path d="M119.92 11.832C119.687 12.0653 119.407 12.182 119.08 12.182C118.753 12.182 118.473 12.0653 118.24 11.832C118.007 11.5987 117.89 11.3187 117.89 10.992C117.89 10.6653 118.007 10.3853 118.24 10.152C118.473 9.91867 118.753 9.802 119.08 9.802C119.407 9.802 119.687 9.91867 119.92 10.152C120.153 10.3853 120.27 10.6653 120.27 10.992C120.27 11.3187 120.153 11.5987 119.92 11.832Z" fill="#C4D0EA"/>
<path d="M125.766 11.832C125.533 12.0653 125.253 12.182 124.926 12.182C124.599 12.182 124.319 12.0653 124.086 11.832C123.853 11.5987 123.736 11.3187 123.736 10.992C123.736 10.6653 123.853 10.3853 124.086 10.152C124.319 9.91867 124.599 9.802 124.926 9.802C125.253 9.802 125.533 9.91867 125.766 10.152C125.999 10.3853 126.116 10.6653 126.116 10.992C126.116 11.3187 125.999 11.5987 125.766 11.832Z" fill="#C4D0EA"/>
<path d="M131.612 11.832C131.379 12.0653 131.099 12.182 130.772 12.182C130.445 12.182 130.165 12.0653 129.932 11.832C129.699 11.5987 129.582 11.3187 129.582 10.992C129.582 10.6653 129.699 10.3853 129.932 10.152C130.165 9.91867 130.445 9.802 130.772 9.802C131.099 9.802 131.379 9.91867 131.612 10.152C131.845 10.3853 131.962 10.6653 131.962 10.992C131.962 11.3187 131.845 11.5987 131.612 11.832Z" fill="#C4D0EA"/>
<path d="M137.458 11.832C137.225 12.0653 136.945 12.182 136.618 12.182C136.292 12.182 136.012 12.0653 135.778 11.832C135.545 11.5987 135.428 11.3187 135.428 10.992C135.428 10.6653 135.545 10.3853 135.778 10.152C136.012 9.91867 136.292 9.802 136.618 9.802C136.945 9.802 137.225 9.91867 137.458 10.152C137.692 10.3853 137.808 10.6653 137.808 10.992C137.808 11.3187 137.692 11.5987 137.458 11.832Z" fill="#C4D0EA"/>
<path d="M143.304 11.832C143.071 12.0653 142.791 12.182 142.464 12.182C142.138 12.182 141.858 12.0653 141.624 11.832C141.391 11.5987 141.274 11.3187 141.274 10.992C141.274 10.6653 141.391 10.3853 141.624 10.152C141.858 9.91867 142.138 9.802 142.464 9.802C142.791 9.802 143.071 9.91867 143.304 10.152C143.538 10.3853 143.654 10.6653 143.654 10.992C143.654 11.3187 143.538 11.5987 143.304 11.832Z" fill="#C4D0EA"/>
<path d="M149.15 11.832C148.917 12.0653 148.637 12.182 148.31 12.182C147.984 12.182 147.704 12.0653 147.47 11.832C147.237 11.5987 147.12 11.3187 147.12 10.992C147.12 10.6653 147.237 10.3853 147.47 10.152C147.704 9.91867 147.984 9.802 148.31 9.802C148.637 9.802 148.917 9.91867 149.15 10.152C149.384 10.3853 149.5 10.6653 149.5 10.992C149.5 11.3187 149.384 11.5987 149.15 11.832Z" fill="#C4D0EA"/>
<path d="M154.996 11.832C154.763 12.0653 154.483 12.182 154.156 12.182C153.83 12.182 153.55 12.0653 153.316 11.832C153.083 11.5987 152.966 11.3187 152.966 10.992C152.966 10.6653 153.083 10.3853 153.316 10.152C153.55 9.91867 153.83 9.802 154.156 9.802C154.483 9.802 154.763 9.91867 154.996 10.152C155.23 10.3853 155.346 10.6653 155.346 10.992C155.346 11.3187 155.23 11.5987 154.996 11.832Z" fill="#C4D0EA"/>
<path d="M160.843 11.832C160.609 12.0653 160.329 12.182 160.003 12.182C159.676 12.182 159.396 12.0653 159.163 11.832C158.929 11.5987 158.813 11.3187 158.813 10.992C158.813 10.6653 158.929 10.3853 159.163 10.152C159.396 9.91867 159.676 9.802 160.003 9.802C160.329 9.802 160.609 9.91867 160.843 10.152C161.076 10.3853 161.193 10.6653 161.193 10.992C161.193 11.3187 161.076 11.5987 160.843 11.832Z" fill="#C4D0EA"/>
<path d="M166.689 11.832C166.455 12.0653 166.175 12.182 165.849 12.182C165.522 12.182 165.242 12.0653 165.009 11.832C164.775 11.5987 164.659 11.3187 164.659 10.992C164.659 10.6653 164.775 10.3853 165.009 10.152C165.242 9.91867 165.522 9.802 165.849 9.802C166.175 9.802 166.455 9.91867 166.689 10.152C166.922 10.3853 167.039 10.6653 167.039 10.992C167.039 11.3187 166.922 11.5987 166.689 11.832Z" fill="#C4D0EA"/>
<path d="M172.535 11.832C172.301 12.0653 172.021 12.182 171.695 12.182C171.368 12.182 171.088 12.0653 170.855 11.832C170.621 11.5987 170.505 11.3187 170.505 10.992C170.505 10.6653 170.621 10.3853 170.855 10.152C171.088 9.91867 171.368 9.802 171.695 9.802C172.021 9.802 172.301 9.91867 172.535 10.152C172.768 10.3853 172.885 10.6653 172.885 10.992C172.885 11.3187 172.768 11.5987 172.535 11.832Z" fill="#C4D0EA"/>
<path d="M178.381 11.832C178.148 12.0653 177.868 12.182 177.541 12.182C177.214 12.182 176.934 12.0653 176.701 11.832C176.467 11.5987 176.351 11.3187 176.351 10.992C176.351 10.6653 176.467 10.3853 176.701 10.152C176.934 9.91867 177.214 9.802 177.541 9.802C177.868 9.802 178.148 9.91867 178.381 10.152C178.614 10.3853 178.731 10.6653 178.731 10.992C178.731 11.3187 178.614 11.5987 178.381 11.832Z" fill="#C4D0EA"/>
<path d="M184.227 11.832C183.994 12.0653 183.714 12.182 183.387 12.182C183.06 12.182 182.78 12.0653 182.547 11.832C182.314 11.5987 182.197 11.3187 182.197 10.992C182.197 10.6653 182.314 10.3853 182.547 10.152C182.78 9.91867 183.06 9.802 183.387 9.802C183.714 9.802 183.994 9.91867 184.227 10.152C184.46 10.3853 184.577 10.6653 184.577 10.992C184.577 11.3187 184.46 11.5987 184.227 11.832Z" fill="#C4D0EA"/>
<path d="M190.073 11.832C189.84 12.0653 189.56 12.182 189.233 12.182C188.906 12.182 188.626 12.0653 188.393 11.832C188.16 11.5987 188.043 11.3187 188.043 10.992C188.043 10.6653 188.16 10.3853 188.393 10.152C188.626 9.91867 188.906 9.802 189.233 9.802C189.56 9.802 189.84 9.91867 190.073 10.152C190.306 10.3853 190.423 10.6653 190.423 10.992C190.423 11.3187 190.306 11.5987 190.073 11.832Z" fill="#C4D0EA"/>
<path d="M195.919 11.832C195.686 12.0653 195.406 12.182 195.079 12.182C194.752 12.182 194.472 12.0653 194.239 11.832C194.006 11.5987 193.889 11.3187 193.889 10.992C193.889 10.6653 194.006 10.3853 194.239 10.152C194.472 9.91867 194.752 9.802 195.079 9.802C195.406 9.802 195.686 9.91867 195.919 10.152C196.152 10.3853 196.269 10.6653 196.269 10.992C196.269 11.3187 196.152 11.5987 195.919 11.832Z" fill="#C4D0EA"/>
<path d="M201.765 11.832C201.532 12.0653 201.252 12.182 200.925 12.182C200.599 12.182 200.319 12.0653 200.085 11.832C199.852 11.5987 199.735 11.3187 199.735 10.992C199.735 10.6653 199.852 10.3853 200.085 10.152C200.319 9.91867 200.599 9.802 200.925 9.802C201.252 9.802 201.532 9.91867 201.765 10.152C201.999 10.3853 202.115 10.6653 202.115 10.992C202.115 11.3187 201.999 11.5987 201.765 11.832Z" fill="#C4D0EA"/>
<path d="M207.611 11.832C207.378 12.0653 207.098 12.182 206.771 12.182C206.445 12.182 206.165 12.0653 205.931 11.832C205.698 11.5987 205.581 11.3187 205.581 10.992C205.581 10.6653 205.698 10.3853 205.931 10.152C206.165 9.91867 206.445 9.802 206.771 9.802C207.098 9.802 207.378 9.91867 207.611 10.152C207.845 10.3853 207.961 10.6653 207.961 10.992C207.961 11.3187 207.845 11.5987 207.611 11.832Z" fill="#C4D0EA"/>
<path d="M206.59 1.21778C207.263 2.6984 208.687 4.98555 210.804 7.14122C212.48 8.8491 214.613 10.4967 217.177 11.5862C214.613 12.6757 212.48 14.3233 210.804 16.0311C208.687 18.1868 207.263 20.474 206.59 21.9546L207.979 22.5862C208.578 21.2686 209.901 19.1294 211.893 17.1004C213.882 15.074 216.504 13.1929 219.696 12.3224C219.696 12.3224 220.258 12.3224 220.258 11.5862C220.258 10.8499 219.696 10.8499 219.696 10.8499C216.504 9.9795 213.882 8.09841 211.893 6.07193C209.901 4.04296 208.578 1.9038 207.979 0.586182L206.59 1.21778Z" fill="#C4D0EA"/>
</svg>
