<svg width="431" height="22" viewBox="0 0 431 22" fill="none" xmlns="http://www.w3.org/2000/svg">
<path d="M1.19 11.5958C1.51667 11.5958 1.79667 11.4792 2.03 11.2458C2.26333 11.0125 2.38 10.7325 2.38 10.4058C2.38 10.0792 2.26333 9.79915 2.03 9.56582C1.79667 9.33249 1.51667 9.21582 1.19 9.21582C0.863333 9.21582 0.583333 9.33249 0.35 9.56582C0.116667 9.79915 0 10.0792 0 10.4058C0 10.7325 0.116667 11.0125 0.35 11.2458C0.583333 11.4792 0.863333 11.5958 1.19 11.5958Z" fill="url(#paint0_linear)"/>
<path d="M7.03609 11.5958C7.36276 11.5958 7.64276 11.4792 7.87609 11.2458C8.10943 11.0125 8.22609 10.7325 8.22609 10.4058C8.22609 10.0792 8.10943 9.79915 7.87609 9.56582C7.64276 9.33249 7.36276 9.21582 7.03609 9.21582C6.70943 9.21582 6.42943 9.33249 6.19609 9.56582C5.96276 9.79915 5.84609 10.0792 5.84609 10.4058C5.84609 10.7325 5.96276 11.0125 6.19609 11.2458C6.42943 11.4792 6.70943 11.5958 7.03609 11.5958Z" fill="url(#paint1_linear)"/>
<path d="M13.7222 11.2458C13.4889 11.4792 13.2089 11.5958 12.8822 11.5958C12.5555 11.5958 12.2755 11.4792 12.0422 11.2458C11.8089 11.0125 11.6922 10.7325 11.6922 10.4058C11.6922 10.0792 11.8089 9.79915 12.0422 9.56582C12.2755 9.33249 12.5555 9.21582 12.8822 9.21582C13.2089 9.21582 13.4889 9.33249 13.7222 9.56582C13.9555 9.79915 14.0722 10.0792 14.0722 10.4058C14.0722 10.7325 13.9555 11.0125 13.7222 11.2458Z" fill="url(#paint2_linear)"/>
<path d="M18.7283 11.5958C19.0549 11.5958 19.3349 11.4792 19.5683 11.2458C19.8016 11.0125 19.9183 10.7325 19.9183 10.4058C19.9183 10.0792 19.8016 9.79915 19.5683 9.56582C19.3349 9.33249 19.0549 9.21582 18.7283 9.21582C18.4016 9.21582 18.1216 9.33249 17.8883 9.56582C17.6549 9.79915 17.5383 10.0792 17.5383 10.4058C17.5383 10.7325 17.6549 11.0125 17.8883 11.2458C18.1216 11.4792 18.4016 11.5958 18.7283 11.5958Z" fill="url(#paint3_linear)"/>
<path d="M25.4144 11.2458C25.181 11.4792 24.901 11.5958 24.5744 11.5958C24.2477 11.5958 23.9677 11.4792 23.7344 11.2458C23.501 11.0125 23.3844 10.7325 23.3844 10.4058C23.3844 10.0792 23.501 9.79915 23.7344 9.56582C23.9677 9.33249 24.2477 9.21582 24.5744 9.21582C24.901 9.21582 25.181 9.33249 25.4144 9.56582C25.6477 9.79915 25.7644 10.0792 25.7644 10.4058C25.7644 10.7325 25.6477 11.0125 25.4144 11.2458Z" fill="url(#paint4_linear)"/>
<path d="M30.4205 11.5958C30.7471 11.5958 31.0271 11.4792 31.2605 11.2458C31.4938 11.0125 31.6105 10.7325 31.6105 10.4058C31.6105 10.0792 31.4938 9.79915 31.2605 9.56582C31.0271 9.33249 30.7471 9.21582 30.4205 9.21582C30.0938 9.21582 29.8138 9.33249 29.5805 9.56582C29.3471 9.79915 29.2305 10.0792 29.2305 10.4058C29.2305 10.7325 29.3471 11.0125 29.5805 11.2458C29.8138 11.4792 30.0938 11.5958 30.4205 11.5958Z" fill="url(#paint5_linear)"/>
<path d="M37.1066 11.2458C36.8732 11.4792 36.5932 11.5958 36.2666 11.5958C35.9399 11.5958 35.6599 11.4792 35.4266 11.2458C35.1932 11.0125 35.0766 10.7325 35.0766 10.4058C35.0766 10.0792 35.1932 9.79915 35.4266 9.56582C35.6599 9.33249 35.9399 9.21582 36.2666 9.21582C36.5932 9.21582 36.8732 9.33249 37.1066 9.56582C37.3399 9.79915 37.4566 10.0792 37.4566 10.4058C37.4566 10.7325 37.3399 11.0125 37.1066 11.2458Z" fill="url(#paint6_linear)"/>
<path d="M42.1127 11.5958C42.4393 11.5958 42.7193 11.4792 42.9527 11.2458C43.186 11.0125 43.3027 10.7325 43.3027 10.4058C43.3027 10.0792 43.186 9.79915 42.9527 9.56582C42.7193 9.33249 42.4393 9.21582 42.1127 9.21582C41.786 9.21582 41.506 9.33249 41.2727 9.56582C41.0393 9.79915 40.9227 10.0792 40.9227 10.4058C40.9227 10.7325 41.0393 11.0125 41.2727 11.2458C41.506 11.4792 41.786 11.5958 42.1127 11.5958Z" fill="url(#paint7_linear)"/>
<path d="M48.7987 11.2458C48.5654 11.4792 48.2854 11.5958 47.9587 11.5958C47.6321 11.5958 47.3521 11.4792 47.1187 11.2458C46.8854 11.0125 46.7687 10.7325 46.7687 10.4058C46.7687 10.0792 46.8854 9.79915 47.1187 9.56582C47.3521 9.33249 47.6321 9.21582 47.9587 9.21582C48.2854 9.21582 48.5654 9.33249 48.7987 9.56582C49.0321 9.79915 49.1488 10.0792 49.1488 10.4058C49.1488 10.7325 49.0321 11.0125 48.7987 11.2458Z" fill="url(#paint8_linear)"/>
<path d="M53.8048 11.5958C54.1315 11.5958 54.4115 11.4792 54.6448 11.2458C54.8782 11.0125 54.9948 10.7325 54.9948 10.4058C54.9948 10.0792 54.8782 9.79915 54.6448 9.56582C54.4115 9.33249 54.1315 9.21582 53.8048 9.21582C53.4782 9.21582 53.1982 9.33249 52.9648 9.56582C52.7315 9.79915 52.6148 10.0792 52.6148 10.4058C52.6148 10.7325 52.7315 11.0125 52.9648 11.2458C53.1982 11.4792 53.4782 11.5958 53.8048 11.5958Z" fill="url(#paint9_linear)"/>
<path d="M60.4909 11.2458C60.2576 11.4792 59.9776 11.5958 59.6509 11.5958C59.3243 11.5958 59.0443 11.4792 58.8109 11.2458C58.5776 11.0125 58.4609 10.7325 58.4609 10.4058C58.4609 10.0792 58.5776 9.79915 58.8109 9.56582C59.0443 9.33249 59.3243 9.21582 59.6509 9.21582C59.9776 9.21582 60.2576 9.33249 60.4909 9.56582C60.7243 9.79915 60.8409 10.0792 60.8409 10.4058C60.8409 10.7325 60.7243 11.0125 60.4909 11.2458Z" fill="url(#paint10_linear)"/>
<path d="M65.497 11.5958C65.8237 11.5958 66.1037 11.4792 66.337 11.2458C66.5704 11.0125 66.687 10.7325 66.687 10.4058C66.687 10.0792 66.5704 9.79915 66.337 9.56582C66.1037 9.33249 65.8237 9.21582 65.497 9.21582C65.1704 9.21582 64.8904 9.33249 64.657 9.56582C64.4237 9.79915 64.307 10.0792 64.307 10.4058C64.307 10.7325 64.4237 11.0125 64.657 11.2458C64.8904 11.4792 65.1704 11.5958 65.497 11.5958Z" fill="url(#paint11_linear)"/>
<path d="M72.1831 11.2458C71.9498 11.4792 71.6698 11.5958 71.3431 11.5958C71.0165 11.5958 70.7365 11.4792 70.5031 11.2458C70.2698 11.0125 70.1531 10.7325 70.1531 10.4058C70.1531 10.0792 70.2698 9.79915 70.5031 9.56582C70.7365 9.33249 71.0165 9.21582 71.3431 9.21582C71.6698 9.21582 71.9498 9.33249 72.1831 9.56582C72.4165 9.79915 72.5331 10.0792 72.5331 10.4058C72.5331 10.7325 72.4165 11.0125 72.1831 11.2458Z" fill="url(#paint12_linear)"/>
<path d="M77.1892 11.5958C77.5159 11.5958 77.7959 11.4792 78.0292 11.2458C78.2626 11.0125 78.3792 10.7325 78.3792 10.4058C78.3792 10.0792 78.2626 9.79915 78.0292 9.56582C77.7959 9.33249 77.5159 9.21582 77.1892 9.21582C76.8625 9.21582 76.5826 9.33249 76.3492 9.56582C76.1159 9.79915 75.9992 10.0792 75.9992 10.4058C75.9992 10.7325 76.1159 11.0125 76.3492 11.2458C76.5826 11.4792 76.8625 11.5958 77.1892 11.5958Z" fill="url(#paint13_linear)"/>
<path d="M83.8753 11.2458C83.642 11.4792 83.362 11.5958 83.0353 11.5958C82.7086 11.5958 82.4286 11.4792 82.1953 11.2458C81.962 11.0125 81.8453 10.7325 81.8453 10.4058C81.8453 10.0792 81.962 9.79915 82.1953 9.56582C82.4286 9.33249 82.7086 9.21582 83.0353 9.21582C83.362 9.21582 83.642 9.33249 83.8753 9.56582C84.1087 9.79915 84.2253 10.0792 84.2253 10.4058C84.2253 10.7325 84.1087 11.0125 83.8753 11.2458Z" fill="url(#paint14_linear)"/>
<path d="M88.8814 11.5958C89.2081 11.5958 89.4881 11.4792 89.7214 11.2458C89.9547 11.0125 90.0714 10.7325 90.0714 10.4058C90.0714 10.0792 89.9547 9.79915 89.7214 9.56582C89.4881 9.33249 89.2081 9.21582 88.8814 9.21582C88.5547 9.21582 88.2747 9.33249 88.0414 9.56582C87.8081 9.79915 87.6914 10.0792 87.6914 10.4058C87.6914 10.7325 87.8081 11.0125 88.0414 11.2458C88.2747 11.4792 88.5547 11.5958 88.8814 11.5958Z" fill="url(#paint15_linear)"/>
<path d="M95.5675 11.2458C95.3342 11.4792 95.0542 11.5958 94.7275 11.5958C94.4008 11.5958 94.1208 11.4792 93.8875 11.2458C93.6542 11.0125 93.5375 10.7325 93.5375 10.4058C93.5375 10.0792 93.6542 9.79915 93.8875 9.56582C94.1208 9.33249 94.4008 9.21582 94.7275 9.21582C95.0542 9.21582 95.3342 9.33249 95.5675 9.56582C95.8008 9.79915 95.9175 10.0792 95.9175 10.4058C95.9175 10.7325 95.8008 11.0125 95.5675 11.2458Z" fill="url(#paint16_linear)"/>
<path d="M100.574 11.5958C100.9 11.5958 101.18 11.4792 101.414 11.2458C101.647 11.0125 101.764 10.7325 101.764 10.4058C101.764 10.0792 101.647 9.79915 101.414 9.56582C101.18 9.33249 100.9 9.21582 100.574 9.21582C100.247 9.21582 99.9669 9.33249 99.7336 9.56582C99.5003 9.79915 99.3836 10.0792 99.3836 10.4058C99.3836 10.7325 99.5003 11.0125 99.7336 11.2458C99.9669 11.4792 100.247 11.5958 100.574 11.5958Z" fill="url(#paint17_linear)"/>
<path d="M107.26 11.2458C107.026 11.4792 106.746 11.5958 106.42 11.5958C106.093 11.5958 105.813 11.4792 105.58 11.2458C105.346 11.0125 105.23 10.7325 105.23 10.4058C105.23 10.0792 105.346 9.79915 105.58 9.56582C105.813 9.33249 106.093 9.21582 106.42 9.21582C106.746 9.21582 107.026 9.33249 107.26 9.56582C107.493 9.79915 107.61 10.0792 107.61 10.4058C107.61 10.7325 107.493 11.0125 107.26 11.2458Z" fill="url(#paint18_linear)"/>
<path d="M112.266 11.5958C112.592 11.5958 112.872 11.4792 113.106 11.2458C113.339 11.0125 113.456 10.7325 113.456 10.4058C113.456 10.0792 113.339 9.79915 113.106 9.56582C112.872 9.33249 112.592 9.21582 112.266 9.21582C111.939 9.21582 111.659 9.33249 111.426 9.56582C111.192 9.79915 111.076 10.0792 111.076 10.4058C111.076 10.7325 111.192 11.0125 111.426 11.2458C111.659 11.4792 111.939 11.5958 112.266 11.5958Z" fill="url(#paint19_linear)"/>
<path d="M118.952 11.2458C118.719 11.4792 118.439 11.5958 118.112 11.5958C117.785 11.5958 117.505 11.4792 117.272 11.2458C117.039 11.0125 116.922 10.7325 116.922 10.4058C116.922 10.0792 117.039 9.79915 117.272 9.56582C117.505 9.33249 117.785 9.21582 118.112 9.21582C118.439 9.21582 118.719 9.33249 118.952 9.56582C119.185 9.79915 119.302 10.0792 119.302 10.4058C119.302 10.7325 119.185 11.0125 118.952 11.2458Z" fill="url(#paint20_linear)"/>
<path d="M123.958 11.5958C124.285 11.5958 124.565 11.4792 124.798 11.2458C125.031 11.0125 125.148 10.7325 125.148 10.4058C125.148 10.0792 125.031 9.79915 124.798 9.56582C124.565 9.33249 124.285 9.21582 123.958 9.21582C123.631 9.21582 123.351 9.33249 123.118 9.56582C122.885 9.79915 122.768 10.0792 122.768 10.4058C122.768 10.7325 122.885 11.0125 123.118 11.2458C123.351 11.4792 123.631 11.5958 123.958 11.5958Z" fill="url(#paint21_linear)"/>
<path d="M130.644 11.2458C130.411 11.4792 130.131 11.5958 129.804 11.5958C129.477 11.5958 129.197 11.4792 128.964 11.2458C128.731 11.0125 128.614 10.7325 128.614 10.4058C128.614 10.0792 128.731 9.79915 128.964 9.56582C129.197 9.33249 129.477 9.21582 129.804 9.21582C130.131 9.21582 130.411 9.33249 130.644 9.56582C130.877 9.79915 130.994 10.0792 130.994 10.4058C130.994 10.7325 130.877 11.0125 130.644 11.2458Z" fill="url(#paint22_linear)"/>
<path d="M135.65 11.5958C135.977 11.5958 136.257 11.4792 136.49 11.2458C136.723 11.0125 136.84 10.7325 136.84 10.4058C136.84 10.0792 136.723 9.79915 136.49 9.56582C136.257 9.33249 135.977 9.21582 135.65 9.21582C135.324 9.21582 135.043 9.33249 134.81 9.56582C134.577 9.79915 134.46 10.0792 134.46 10.4058C134.46 10.7325 134.577 11.0125 134.81 11.2458C135.043 11.4792 135.324 11.5958 135.65 11.5958Z" fill="url(#paint23_linear)"/>
<path d="M142.336 11.2458C142.103 11.4792 141.823 11.5958 141.496 11.5958C141.17 11.5958 140.89 11.4792 140.656 11.2458C140.423 11.0125 140.306 10.7325 140.306 10.4058C140.306 10.0792 140.423 9.79915 140.656 9.56582C140.89 9.33249 141.17 9.21582 141.496 9.21582C141.823 9.21582 142.103 9.33249 142.336 9.56582C142.57 9.79915 142.686 10.0792 142.686 10.4058C142.686 10.7325 142.57 11.0125 142.336 11.2458Z" fill="url(#paint24_linear)"/>
<path d="M147.342 11.5958C147.669 11.5958 147.949 11.4792 148.182 11.2458C148.416 11.0125 148.532 10.7325 148.532 10.4058C148.532 10.0792 148.416 9.79915 148.182 9.56582C147.949 9.33249 147.669 9.21582 147.342 9.21582C147.016 9.21582 146.736 9.33249 146.502 9.56582C146.269 9.79915 146.152 10.0792 146.152 10.4058C146.152 10.7325 146.269 11.0125 146.502 11.2458C146.736 11.4792 147.016 11.5958 147.342 11.5958Z" fill="url(#paint25_linear)"/>
<path d="M154.028 11.2458C153.795 11.4792 153.515 11.5958 153.188 11.5958C152.862 11.5958 152.582 11.4792 152.348 11.2458C152.115 11.0125 151.998 10.7325 151.998 10.4058C151.998 10.0792 152.115 9.79915 152.348 9.56582C152.582 9.33249 152.862 9.21582 153.188 9.21582C153.515 9.21582 153.795 9.33249 154.028 9.56582C154.262 9.79915 154.378 10.0792 154.378 10.4058C154.378 10.7325 154.262 11.0125 154.028 11.2458Z" fill="url(#paint26_linear)"/>
<path d="M159.035 11.5958C159.361 11.5958 159.641 11.4792 159.875 11.2458C160.108 11.0125 160.225 10.7325 160.225 10.4058C160.225 10.0792 160.108 9.79915 159.875 9.56582C159.641 9.33249 159.361 9.21582 159.035 9.21582C158.708 9.21582 158.428 9.33249 158.195 9.56582C157.961 9.79915 157.845 10.0792 157.845 10.4058C157.845 10.7325 157.961 11.0125 158.195 11.2458C158.428 11.4792 158.708 11.5958 159.035 11.5958Z" fill="url(#paint27_linear)"/>
<path d="M165.721 11.2458C165.487 11.4792 165.207 11.5958 164.881 11.5958C164.554 11.5958 164.274 11.4792 164.041 11.2458C163.807 11.0125 163.691 10.7325 163.691 10.4058C163.691 10.0792 163.807 9.79915 164.041 9.56582C164.274 9.33249 164.554 9.21582 164.881 9.21582C165.207 9.21582 165.487 9.33249 165.721 9.56582C165.954 9.79915 166.071 10.0792 166.071 10.4058C166.071 10.7325 165.954 11.0125 165.721 11.2458Z" fill="url(#paint28_linear)"/>
<path d="M170.727 11.5958C171.053 11.5958 171.333 11.4792 171.567 11.2458C171.8 11.0125 171.917 10.7325 171.917 10.4058C171.917 10.0792 171.8 9.79915 171.567 9.56582C171.333 9.33249 171.053 9.21582 170.727 9.21582C170.4 9.21582 170.12 9.33249 169.887 9.56582C169.653 9.79915 169.537 10.0792 169.537 10.4058C169.537 10.7325 169.653 11.0125 169.887 11.2458C170.12 11.4792 170.4 11.5958 170.727 11.5958Z" fill="url(#paint29_linear)"/>
<path d="M177.413 11.2458C177.179 11.4792 176.899 11.5958 176.573 11.5958C176.246 11.5958 175.966 11.4792 175.733 11.2458C175.499 11.0125 175.383 10.7325 175.383 10.4058C175.383 10.0792 175.499 9.79915 175.733 9.56582C175.966 9.33249 176.246 9.21582 176.573 9.21582C176.899 9.21582 177.179 9.33249 177.413 9.56582C177.646 9.79915 177.763 10.0792 177.763 10.4058C177.763 10.7325 177.646 11.0125 177.413 11.2458Z" fill="url(#paint30_linear)"/>
<path d="M182.419 11.5958C182.746 11.5958 183.026 11.4792 183.259 11.2458C183.492 11.0125 183.609 10.7325 183.609 10.4058C183.609 10.0792 183.492 9.79915 183.259 9.56582C183.026 9.33249 182.746 9.21582 182.419 9.21582C182.092 9.21582 181.812 9.33249 181.579 9.56582C181.346 9.79915 181.229 10.0792 181.229 10.4058C181.229 10.7325 181.346 11.0125 181.579 11.2458C181.812 11.4792 182.092 11.5958 182.419 11.5958Z" fill="url(#paint31_linear)"/>
<path d="M189.105 11.2458C188.872 11.4792 188.592 11.5958 188.265 11.5958C187.938 11.5958 187.658 11.4792 187.425 11.2458C187.192 11.0125 187.075 10.7325 187.075 10.4058C187.075 10.0792 187.192 9.79915 187.425 9.56582C187.658 9.33249 187.938 9.21582 188.265 9.21582C188.592 9.21582 188.872 9.33249 189.105 9.56582C189.338 9.79915 189.455 10.0792 189.455 10.4058C189.455 10.7325 189.338 11.0125 189.105 11.2458Z" fill="url(#paint32_linear)"/>
<path d="M194.111 11.5958C194.438 11.5958 194.718 11.4792 194.951 11.2458C195.184 11.0125 195.301 10.7325 195.301 10.4058C195.301 10.0792 195.184 9.79915 194.951 9.56582C194.718 9.33249 194.438 9.21582 194.111 9.21582C193.784 9.21582 193.504 9.33249 193.271 9.56582C193.038 9.79915 192.921 10.0792 192.921 10.4058C192.921 10.7325 193.038 11.0125 193.271 11.2458C193.504 11.4792 193.784 11.5958 194.111 11.5958Z" fill="url(#paint33_linear)"/>
<path d="M200.797 11.2458C200.564 11.4792 200.284 11.5958 199.957 11.5958C199.631 11.5958 199.351 11.4792 199.117 11.2458C198.884 11.0125 198.767 10.7325 198.767 10.4058C198.767 10.0792 198.884 9.79915 199.117 9.56582C199.351 9.33249 199.631 9.21582 199.957 9.21582C200.284 9.21582 200.564 9.33249 200.797 9.56582C201.031 9.79915 201.147 10.0792 201.147 10.4058C201.147 10.7325 201.031 11.0125 200.797 11.2458Z" fill="url(#paint34_linear)"/>
<path d="M205.803 11.5958C206.13 11.5958 206.41 11.4792 206.643 11.2458C206.877 11.0125 206.993 10.7325 206.993 10.4058C206.993 10.0792 206.877 9.79915 206.643 9.56582C206.41 9.33249 206.13 9.21582 205.803 9.21582C205.477 9.21582 205.197 9.33249 204.963 9.56582C204.73 9.79915 204.613 10.0792 204.613 10.4058C204.613 10.7325 204.73 11.0125 204.963 11.2458C205.197 11.4792 205.477 11.5958 205.803 11.5958Z" fill="url(#paint35_linear)"/>
<path d="M212.19 11.5958C212.517 11.5958 212.797 11.4792 213.03 11.2458C213.263 11.0125 213.38 10.7325 213.38 10.4058C213.38 10.0792 213.263 9.79915 213.03 9.56582C212.797 9.33249 212.517 9.21582 212.19 9.21582C211.863 9.21582 211.583 9.33249 211.35 9.56582C211.117 9.79915 211 10.0792 211 10.4058C211 10.7325 211.117 11.0125 211.35 11.2458C211.583 11.4792 211.863 11.5958 212.19 11.5958Z" fill="url(#paint36_linear)"/>
<path d="M218.036 11.5958C218.363 11.5958 218.643 11.4792 218.876 11.2458C219.109 11.0125 219.226 10.7325 219.226 10.4058C219.226 10.0792 219.109 9.79915 218.876 9.56582C218.643 9.33249 218.363 9.21582 218.036 9.21582C217.709 9.21582 217.429 9.33249 217.196 9.56582C216.963 9.79915 216.846 10.0792 216.846 10.4058C216.846 10.7325 216.963 11.0125 217.196 11.2458C217.429 11.4792 217.709 11.5958 218.036 11.5958Z" fill="url(#paint37_linear)"/>
<path d="M224.722 11.2458C224.489 11.4792 224.209 11.5958 223.882 11.5958C223.556 11.5958 223.276 11.4792 223.042 11.2458C222.809 11.0125 222.692 10.7325 222.692 10.4058C222.692 10.0792 222.809 9.79915 223.042 9.56582C223.276 9.33249 223.556 9.21582 223.882 9.21582C224.209 9.21582 224.489 9.33249 224.722 9.56582C224.956 9.79915 225.072 10.0792 225.072 10.4058C225.072 10.7325 224.956 11.0125 224.722 11.2458Z" fill="url(#paint38_linear)"/>
<path d="M229.728 11.5958C230.055 11.5958 230.335 11.4792 230.568 11.2458C230.802 11.0125 230.918 10.7325 230.918 10.4058C230.918 10.0792 230.802 9.79915 230.568 9.56582C230.335 9.33249 230.055 9.21582 229.728 9.21582C229.402 9.21582 229.122 9.33249 228.888 9.56582C228.655 9.79915 228.538 10.0792 228.538 10.4058C228.538 10.7325 228.655 11.0125 228.888 11.2458C229.122 11.4792 229.402 11.5958 229.728 11.5958Z" fill="url(#paint39_linear)"/>
<path d="M236.414 11.2458C236.181 11.4792 235.901 11.5958 235.574 11.5958C235.248 11.5958 234.968 11.4792 234.734 11.2458C234.501 11.0125 234.384 10.7325 234.384 10.4058C234.384 10.0792 234.501 9.79915 234.734 9.56582C234.968 9.33249 235.248 9.21582 235.574 9.21582C235.901 9.21582 236.181 9.33249 236.414 9.56582C236.648 9.79915 236.764 10.0792 236.764 10.4058C236.764 10.7325 236.648 11.0125 236.414 11.2458Z" fill="url(#paint40_linear)"/>
<path d="M241.42 11.5958C241.747 11.5958 242.027 11.4792 242.26 11.2458C242.494 11.0125 242.61 10.7325 242.61 10.4058C242.61 10.0792 242.494 9.79915 242.26 9.56582C242.027 9.33249 241.747 9.21582 241.42 9.21582C241.094 9.21582 240.814 9.33249 240.58 9.56582C240.347 9.79915 240.23 10.0792 240.23 10.4058C240.23 10.7325 240.347 11.0125 240.58 11.2458C240.814 11.4792 241.094 11.5958 241.42 11.5958Z" fill="url(#paint41_linear)"/>
<path d="M248.107 11.2458C247.873 11.4792 247.593 11.5958 247.267 11.5958C246.94 11.5958 246.66 11.4792 246.427 11.2458C246.193 11.0125 246.077 10.7325 246.077 10.4058C246.077 10.0792 246.193 9.79915 246.427 9.56582C246.66 9.33249 246.94 9.21582 247.267 9.21582C247.593 9.21582 247.873 9.33249 248.107 9.56582C248.34 9.79915 248.457 10.0792 248.457 10.4058C248.457 10.7325 248.34 11.0125 248.107 11.2458Z" fill="url(#paint42_linear)"/>
<path d="M253.113 11.5958C253.439 11.5958 253.719 11.4792 253.953 11.2458C254.186 11.0125 254.303 10.7325 254.303 10.4058C254.303 10.0792 254.186 9.79915 253.953 9.56582C253.719 9.33249 253.439 9.21582 253.113 9.21582C252.786 9.21582 252.506 9.33249 252.273 9.56582C252.039 9.79915 251.923 10.0792 251.923 10.4058C251.923 10.7325 252.039 11.0125 252.273 11.2458C252.506 11.4792 252.786 11.5958 253.113 11.5958Z" fill="url(#paint43_linear)"/>
<path d="M259.799 11.2458C259.565 11.4792 259.285 11.5958 258.959 11.5958C258.632 11.5958 258.352 11.4792 258.119 11.2458C257.885 11.0125 257.769 10.7325 257.769 10.4058C257.769 10.0792 257.885 9.79915 258.119 9.56582C258.352 9.33249 258.632 9.21582 258.959 9.21582C259.285 9.21582 259.565 9.33249 259.799 9.56582C260.032 9.79915 260.149 10.0792 260.149 10.4058C260.149 10.7325 260.032 11.0125 259.799 11.2458Z" fill="url(#paint44_linear)"/>
<path d="M264.805 11.5958C265.132 11.5958 265.411 11.4792 265.645 11.2458C265.878 11.0125 265.995 10.7325 265.995 10.4058C265.995 10.0792 265.878 9.79915 265.645 9.56582C265.411 9.33249 265.132 9.21582 264.805 9.21582C264.478 9.21582 264.198 9.33249 263.965 9.56582C263.732 9.79915 263.615 10.0792 263.615 10.4058C263.615 10.7325 263.732 11.0125 263.965 11.2458C264.198 11.4792 264.478 11.5958 264.805 11.5958Z" fill="url(#paint45_linear)"/>
<path d="M271.491 11.2458C271.258 11.4792 270.978 11.5958 270.651 11.5958C270.324 11.5958 270.044 11.4792 269.811 11.2458C269.578 11.0125 269.461 10.7325 269.461 10.4058C269.461 10.0792 269.578 9.79915 269.811 9.56582C270.044 9.33249 270.324 9.21582 270.651 9.21582C270.978 9.21582 271.258 9.33249 271.491 9.56582C271.724 9.79915 271.841 10.0792 271.841 10.4058C271.841 10.7325 271.724 11.0125 271.491 11.2458Z" fill="url(#paint46_linear)"/>
<path d="M276.497 11.5958C276.824 11.5958 277.104 11.4792 277.337 11.2458C277.57 11.0125 277.687 10.7325 277.687 10.4058C277.687 10.0792 277.57 9.79915 277.337 9.56582C277.104 9.33249 276.824 9.21582 276.497 9.21582C276.17 9.21582 275.89 9.33249 275.657 9.56582C275.424 9.79915 275.307 10.0792 275.307 10.4058C275.307 10.7325 275.424 11.0125 275.657 11.2458C275.89 11.4792 276.17 11.5958 276.497 11.5958Z" fill="url(#paint47_linear)"/>
<path d="M283.183 11.2458C282.95 11.4792 282.67 11.5958 282.343 11.5958C282.016 11.5958 281.736 11.4792 281.503 11.2458C281.27 11.0125 281.153 10.7325 281.153 10.4058C281.153 10.0792 281.27 9.79915 281.503 9.56582C281.736 9.33249 282.016 9.21582 282.343 9.21582C282.67 9.21582 282.95 9.33249 283.183 9.56582C283.416 9.79915 283.533 10.0792 283.533 10.4058C283.533 10.7325 283.416 11.0125 283.183 11.2458Z" fill="url(#paint48_linear)"/>
<path d="M288.189 11.5958C288.516 11.5958 288.796 11.4792 289.029 11.2458C289.263 11.0125 289.379 10.7325 289.379 10.4058C289.379 10.0792 289.263 9.79915 289.029 9.56582C288.796 9.33249 288.516 9.21582 288.189 9.21582C287.863 9.21582 287.583 9.33249 287.349 9.56582C287.116 9.79915 286.999 10.0792 286.999 10.4058C286.999 10.7325 287.116 11.0125 287.349 11.2458C287.583 11.4792 287.863 11.5958 288.189 11.5958Z" fill="url(#paint49_linear)"/>
<path d="M294.875 11.2458C294.642 11.4792 294.362 11.5958 294.035 11.5958C293.709 11.5958 293.429 11.4792 293.195 11.2458C292.962 11.0125 292.845 10.7325 292.845 10.4058C292.845 10.0792 292.962 9.79915 293.195 9.56582C293.429 9.33249 293.709 9.21582 294.035 9.21582C294.362 9.21582 294.642 9.33249 294.875 9.56582C295.109 9.79915 295.225 10.0792 295.225 10.4058C295.225 10.7325 295.109 11.0125 294.875 11.2458Z" fill="url(#paint50_linear)"/>
<path d="M299.881 11.5958C300.208 11.5958 300.488 11.4792 300.721 11.2458C300.955 11.0125 301.071 10.7325 301.071 10.4058C301.071 10.0792 300.955 9.79915 300.721 9.56582C300.488 9.33249 300.208 9.21582 299.881 9.21582C299.555 9.21582 299.275 9.33249 299.041 9.56582C298.808 9.79915 298.691 10.0792 298.691 10.4058C298.691 10.7325 298.808 11.0125 299.041 11.2458C299.275 11.4792 299.555 11.5958 299.881 11.5958Z" fill="url(#paint51_linear)"/>
<path d="M306.568 11.2458C306.334 11.4792 306.054 11.5958 305.728 11.5958C305.401 11.5958 305.121 11.4792 304.888 11.2458C304.654 11.0125 304.538 10.7325 304.538 10.4058C304.538 10.0792 304.654 9.79915 304.888 9.56582C305.121 9.33249 305.401 9.21582 305.728 9.21582C306.054 9.21582 306.334 9.33249 306.568 9.56582C306.801 9.79915 306.918 10.0792 306.918 10.4058C306.918 10.7325 306.801 11.0125 306.568 11.2458Z" fill="url(#paint52_linear)"/>
<path d="M311.574 11.5958C311.9 11.5958 312.18 11.4792 312.414 11.2458C312.647 11.0125 312.764 10.7325 312.764 10.4058C312.764 10.0792 312.647 9.79915 312.414 9.56582C312.18 9.33249 311.9 9.21582 311.574 9.21582C311.247 9.21582 310.967 9.33249 310.734 9.56582C310.5 9.79915 310.384 10.0792 310.384 10.4058C310.384 10.7325 310.5 11.0125 310.734 11.2458C310.967 11.4792 311.247 11.5958 311.574 11.5958Z" fill="url(#paint53_linear)"/>
<path d="M318.26 11.2458C318.026 11.4792 317.746 11.5958 317.42 11.5958C317.093 11.5958 316.813 11.4792 316.58 11.2458C316.346 11.0125 316.23 10.7325 316.23 10.4058C316.23 10.0792 316.346 9.79915 316.58 9.56582C316.813 9.33249 317.093 9.21582 317.42 9.21582C317.746 9.21582 318.026 9.33249 318.26 9.56582C318.493 9.79915 318.61 10.0792 318.61 10.4058C318.61 10.7325 318.493 11.0125 318.26 11.2458Z" fill="url(#paint54_linear)"/>
<path d="M323.266 11.5958C323.592 11.5958 323.872 11.4792 324.106 11.2458C324.339 11.0125 324.456 10.7325 324.456 10.4058C324.456 10.0792 324.339 9.79915 324.106 9.56582C323.872 9.33249 323.592 9.21582 323.266 9.21582C322.939 9.21582 322.659 9.33249 322.426 9.56582C322.192 9.79915 322.076 10.0792 322.076 10.4058C322.076 10.7325 322.192 11.0125 322.426 11.2458C322.659 11.4792 322.939 11.5958 323.266 11.5958Z" fill="url(#paint55_linear)"/>
<path d="M329.952 11.2458C329.719 11.4792 329.439 11.5958 329.112 11.5958C328.785 11.5958 328.505 11.4792 328.272 11.2458C328.039 11.0125 327.922 10.7325 327.922 10.4058C327.922 10.0792 328.039 9.79915 328.272 9.56582C328.505 9.33249 328.785 9.21582 329.112 9.21582C329.439 9.21582 329.719 9.33249 329.952 9.56582C330.185 9.79915 330.302 10.0792 330.302 10.4058C330.302 10.7325 330.185 11.0125 329.952 11.2458Z" fill="url(#paint56_linear)"/>
<path d="M334.958 11.5958C335.285 11.5958 335.565 11.4792 335.798 11.2458C336.031 11.0125 336.148 10.7325 336.148 10.4058C336.148 10.0792 336.031 9.79915 335.798 9.56582C335.565 9.33249 335.285 9.21582 334.958 9.21582C334.631 9.21582 334.351 9.33249 334.118 9.56582C333.885 9.79915 333.768 10.0792 333.768 10.4058C333.768 10.7325 333.885 11.0125 334.118 11.2458C334.351 11.4792 334.631 11.5958 334.958 11.5958Z" fill="url(#paint57_linear)"/>
<path d="M341.644 11.2458C341.411 11.4792 341.131 11.5958 340.804 11.5958C340.477 11.5958 340.197 11.4792 339.964 11.2458C339.731 11.0125 339.614 10.7325 339.614 10.4058C339.614 10.0792 339.731 9.79915 339.964 9.56582C340.197 9.33249 340.477 9.21582 340.804 9.21582C341.131 9.21582 341.411 9.33249 341.644 9.56582C341.877 9.79915 341.994 10.0792 341.994 10.4058C341.994 10.7325 341.877 11.0125 341.644 11.2458Z" fill="url(#paint58_linear)"/>
<path d="M346.65 11.5958C346.977 11.5958 347.257 11.4792 347.49 11.2458C347.724 11.0125 347.84 10.7325 347.84 10.4058C347.84 10.0792 347.724 9.79915 347.49 9.56582C347.257 9.33249 346.977 9.21582 346.65 9.21582C346.323 9.21582 346.043 9.33249 345.81 9.56582C345.577 9.79915 345.46 10.0792 345.46 10.4058C345.46 10.7325 345.577 11.0125 345.81 11.2458C346.043 11.4792 346.323 11.5958 346.65 11.5958Z" fill="url(#paint59_linear)"/>
<path d="M353.336 11.2458C353.103 11.4792 352.823 11.5958 352.496 11.5958C352.17 11.5958 351.89 11.4792 351.656 11.2458C351.423 11.0125 351.306 10.7325 351.306 10.4058C351.306 10.0792 351.423 9.79915 351.656 9.56582C351.89 9.33249 352.17 9.21582 352.496 9.21582C352.823 9.21582 353.103 9.33249 353.336 9.56582C353.57 9.79915 353.686 10.0792 353.686 10.4058C353.686 10.7325 353.57 11.0125 353.336 11.2458Z" fill="url(#paint60_linear)"/>
<path d="M358.342 11.5958C358.669 11.5958 358.949 11.4792 359.182 11.2458C359.416 11.0125 359.532 10.7325 359.532 10.4058C359.532 10.0792 359.416 9.79915 359.182 9.56582C358.949 9.33249 358.669 9.21582 358.342 9.21582C358.016 9.21582 357.736 9.33249 357.502 9.56582C357.269 9.79915 357.152 10.0792 357.152 10.4058C357.152 10.7325 357.269 11.0125 357.502 11.2458C357.736 11.4792 358.016 11.5958 358.342 11.5958Z" fill="url(#paint61_linear)"/>
<path d="M365.028 11.2458C364.795 11.4792 364.515 11.5958 364.188 11.5958C363.862 11.5958 363.582 11.4792 363.348 11.2458C363.115 11.0125 362.998 10.7325 362.998 10.4058C362.998 10.0792 363.115 9.79915 363.348 9.56582C363.582 9.33249 363.862 9.21582 364.188 9.21582C364.515 9.21582 364.795 9.33249 365.028 9.56582C365.262 9.79915 365.378 10.0792 365.378 10.4058C365.378 10.7325 365.262 11.0125 365.028 11.2458Z" fill="url(#paint62_linear)"/>
<path d="M370.035 11.5958C370.361 11.5958 370.641 11.4792 370.875 11.2458C371.108 11.0125 371.225 10.7325 371.225 10.4058C371.225 10.0792 371.108 9.79915 370.875 9.56582C370.641 9.33249 370.361 9.21582 370.035 9.21582C369.708 9.21582 369.428 9.33249 369.195 9.56582C368.961 9.79915 368.845 10.0792 368.845 10.4058C368.845 10.7325 368.961 11.0125 369.195 11.2458C369.428 11.4792 369.708 11.5958 370.035 11.5958Z" fill="url(#paint63_linear)"/>
<path d="M376.721 11.2458C376.487 11.4792 376.207 11.5958 375.881 11.5958C375.554 11.5958 375.274 11.4792 375.041 11.2458C374.807 11.0125 374.691 10.7325 374.691 10.4058C374.691 10.0792 374.807 9.79915 375.041 9.56582C375.274 9.33249 375.554 9.21582 375.881 9.21582C376.207 9.21582 376.487 9.33249 376.721 9.56582C376.954 9.79915 377.071 10.0792 377.071 10.4058C377.071 10.7325 376.954 11.0125 376.721 11.2458Z" fill="url(#paint64_linear)"/>
<path d="M381.727 11.5958C382.053 11.5958 382.333 11.4792 382.567 11.2458C382.8 11.0125 382.917 10.7325 382.917 10.4058C382.917 10.0792 382.8 9.79915 382.567 9.56582C382.333 9.33249 382.053 9.21582 381.727 9.21582C381.4 9.21582 381.12 9.33249 380.887 9.56582C380.653 9.79915 380.537 10.0792 380.537 10.4058C380.537 10.7325 380.653 11.0125 380.887 11.2458C381.12 11.4792 381.4 11.5958 381.727 11.5958Z" fill="url(#paint65_linear)"/>
<path d="M388.413 11.2458C388.18 11.4792 387.899 11.5958 387.573 11.5958C387.246 11.5958 386.966 11.4792 386.733 11.2458C386.499 11.0125 386.383 10.7325 386.383 10.4058C386.383 10.0792 386.499 9.79915 386.733 9.56582C386.966 9.33249 387.246 9.21582 387.573 9.21582C387.899 9.21582 388.18 9.33249 388.413 9.56582C388.646 9.79915 388.763 10.0792 388.763 10.4058C388.763 10.7325 388.646 11.0125 388.413 11.2458Z" fill="url(#paint66_linear)"/>
<path d="M393.419 11.5958C393.746 11.5958 394.026 11.4792 394.259 11.2458C394.492 11.0125 394.609 10.7325 394.609 10.4058C394.609 10.0792 394.492 9.79915 394.259 9.56582C394.026 9.33249 393.746 9.21582 393.419 9.21582C393.092 9.21582 392.812 9.33249 392.579 9.56582C392.346 9.79915 392.229 10.0792 392.229 10.4058C392.229 10.7325 392.346 11.0125 392.579 11.2458C392.812 11.4792 393.092 11.5958 393.419 11.5958Z" fill="url(#paint67_linear)"/>
<path d="M400.105 11.2458C399.872 11.4792 399.592 11.5958 399.265 11.5958C398.938 11.5958 398.658 11.4792 398.425 11.2458C398.192 11.0125 398.075 10.7325 398.075 10.4058C398.075 10.0792 398.192 9.79915 398.425 9.56582C398.658 9.33249 398.938 9.21582 399.265 9.21582C399.592 9.21582 399.872 9.33249 400.105 9.56582C400.338 9.79915 400.455 10.0792 400.455 10.4058C400.455 10.7325 400.338 11.0125 400.105 11.2458Z" fill="url(#paint68_linear)"/>
<path d="M405.111 11.5958C405.438 11.5958 405.718 11.4792 405.951 11.2458C406.184 11.0125 406.301 10.7325 406.301 10.4058C406.301 10.0792 406.184 9.79915 405.951 9.56582C405.718 9.33249 405.438 9.21582 405.111 9.21582C404.784 9.21582 404.504 9.33249 404.271 9.56582C404.038 9.79915 403.921 10.0792 403.921 10.4058C403.921 10.7325 404.038 11.0125 404.271 11.2458C404.504 11.4792 404.784 11.5958 405.111 11.5958Z" fill="url(#paint69_linear)"/>
<path d="M411.797 11.2458C411.564 11.4792 411.284 11.5958 410.957 11.5958C410.631 11.5958 410.351 11.4792 410.117 11.2458C409.884 11.0125 409.767 10.7325 409.767 10.4058C409.767 10.0792 409.884 9.79915 410.117 9.56582C410.351 9.33249 410.631 9.21582 410.957 9.21582C411.284 9.21582 411.564 9.33249 411.797 9.56582C412.031 9.79915 412.147 10.0792 412.147 10.4058C412.147 10.7325 412.031 11.0125 411.797 11.2458Z" fill="url(#paint70_linear)"/>
<path d="M416.803 11.5958C417.13 11.5958 417.41 11.4792 417.643 11.2458C417.877 11.0125 417.993 10.7325 417.993 10.4058C417.993 10.0792 417.877 9.79915 417.643 9.56582C417.41 9.33249 417.13 9.21582 416.803 9.21582C416.477 9.21582 416.197 9.33249 415.963 9.56582C415.73 9.79915 415.613 10.0792 415.613 10.4058C415.613 10.7325 415.73 11.0125 415.963 11.2458C416.197 11.4792 416.477 11.5958 416.803 11.5958Z" fill="url(#paint71_linear)"/>
<circle cx="208.5" cy="11.5" r="8.5" fill="#209068"/>
<path d="M416.622 0.631594C417.295 2.11222 418.719 4.39937 420.836 6.55504C422.512 8.26292 424.645 9.9105 427.209 11C424.645 12.0895 422.512 13.7371 420.836 15.445C418.719 17.6006 417.295 19.8878 416.622 21.3684L418.011 22C418.61 20.6824 419.933 18.5432 421.925 16.5142C423.914 14.4878 426.536 12.6067 429.728 11.7363C429.728 11.7363 430.29 11.7363 430.29 11C430.29 10.2637 429.728 10.2637 429.728 10.2637C426.536 9.39332 423.914 7.51222 421.925 5.48575C419.933 3.45678 418.61 1.31762 418.011 0L416.622 0.631594Z" fill="#209068"/>
<defs>
<linearGradient id="paint0_linear" x1="425" y1="11.9998" x2="1.19917e-05" y2="9.99886" gradientUnits="userSpaceOnUse">
<stop stop-color="#18C286"/>
<stop offset="1" stop-color="#C4D0EA" stop-opacity="0"/>
</linearGradient>
<linearGradient id="paint1_linear" x1="425" y1="11.9998" x2="1.19917e-05" y2="9.99886" gradientUnits="userSpaceOnUse">
<stop stop-color="#18C286"/>
<stop offset="1" stop-color="#C4D0EA" stop-opacity="0"/>
</linearGradient>
<linearGradient id="paint2_linear" x1="425" y1="11.9998" x2="1.19917e-05" y2="9.99886" gradientUnits="userSpaceOnUse">
<stop stop-color="#18C286"/>
<stop offset="1" stop-color="#C4D0EA" stop-opacity="0"/>
</linearGradient>
<linearGradient id="paint3_linear" x1="425" y1="11.9998" x2="1.19917e-05" y2="9.99886" gradientUnits="userSpaceOnUse">
<stop stop-color="#18C286"/>
<stop offset="1" stop-color="#C4D0EA" stop-opacity="0"/>
</linearGradient>
<linearGradient id="paint4_linear" x1="425" y1="11.9998" x2="1.19917e-05" y2="9.99886" gradientUnits="userSpaceOnUse">
<stop stop-color="#18C286"/>
<stop offset="1" stop-color="#C4D0EA" stop-opacity="0"/>
</linearGradient>
<linearGradient id="paint5_linear" x1="425" y1="11.9998" x2="1.19917e-05" y2="9.99886" gradientUnits="userSpaceOnUse">
<stop stop-color="#18C286"/>
<stop offset="1" stop-color="#C4D0EA" stop-opacity="0"/>
</linearGradient>
<linearGradient id="paint6_linear" x1="425" y1="11.9998" x2="1.19917e-05" y2="9.99886" gradientUnits="userSpaceOnUse">
<stop stop-color="#18C286"/>
<stop offset="1" stop-color="#C4D0EA" stop-opacity="0"/>
</linearGradient>
<linearGradient id="paint7_linear" x1="425" y1="11.9998" x2="1.19917e-05" y2="9.99886" gradientUnits="userSpaceOnUse">
<stop stop-color="#18C286"/>
<stop offset="1" stop-color="#C4D0EA" stop-opacity="0"/>
</linearGradient>
<linearGradient id="paint8_linear" x1="425" y1="11.9998" x2="1.19917e-05" y2="9.99886" gradientUnits="userSpaceOnUse">
<stop stop-color="#18C286"/>
<stop offset="1" stop-color="#C4D0EA" stop-opacity="0"/>
</linearGradient>
<linearGradient id="paint9_linear" x1="425" y1="11.9998" x2="1.19917e-05" y2="9.99886" gradientUnits="userSpaceOnUse">
<stop stop-color="#18C286"/>
<stop offset="1" stop-color="#C4D0EA" stop-opacity="0"/>
</linearGradient>
<linearGradient id="paint10_linear" x1="425" y1="11.9998" x2="1.19917e-05" y2="9.99886" gradientUnits="userSpaceOnUse">
<stop stop-color="#18C286"/>
<stop offset="1" stop-color="#C4D0EA" stop-opacity="0"/>
</linearGradient>
<linearGradient id="paint11_linear" x1="425" y1="11.9998" x2="1.19917e-05" y2="9.99886" gradientUnits="userSpaceOnUse">
<stop stop-color="#18C286"/>
<stop offset="1" stop-color="#C4D0EA" stop-opacity="0"/>
</linearGradient>
<linearGradient id="paint12_linear" x1="425" y1="11.9998" x2="1.19917e-05" y2="9.99886" gradientUnits="userSpaceOnUse">
<stop stop-color="#18C286"/>
<stop offset="1" stop-color="#C4D0EA" stop-opacity="0"/>
</linearGradient>
<linearGradient id="paint13_linear" x1="425" y1="11.9998" x2="1.19917e-05" y2="9.99886" gradientUnits="userSpaceOnUse">
<stop stop-color="#18C286"/>
<stop offset="1" stop-color="#C4D0EA" stop-opacity="0"/>
</linearGradient>
<linearGradient id="paint14_linear" x1="425" y1="11.9998" x2="1.19917e-05" y2="9.99886" gradientUnits="userSpaceOnUse">
<stop stop-color="#18C286"/>
<stop offset="1" stop-color="#C4D0EA" stop-opacity="0"/>
</linearGradient>
<linearGradient id="paint15_linear" x1="425" y1="11.9998" x2="1.19917e-05" y2="9.99886" gradientUnits="userSpaceOnUse">
<stop stop-color="#18C286"/>
<stop offset="1" stop-color="#C4D0EA" stop-opacity="0"/>
</linearGradient>
<linearGradient id="paint16_linear" x1="425" y1="11.9998" x2="1.19917e-05" y2="9.99886" gradientUnits="userSpaceOnUse">
<stop stop-color="#18C286"/>
<stop offset="1" stop-color="#C4D0EA" stop-opacity="0"/>
</linearGradient>
<linearGradient id="paint17_linear" x1="425" y1="11.9998" x2="1.19917e-05" y2="9.99886" gradientUnits="userSpaceOnUse">
<stop stop-color="#18C286"/>
<stop offset="1" stop-color="#C4D0EA" stop-opacity="0"/>
</linearGradient>
<linearGradient id="paint18_linear" x1="425" y1="11.9998" x2="1.19917e-05" y2="9.99886" gradientUnits="userSpaceOnUse">
<stop stop-color="#18C286"/>
<stop offset="1" stop-color="#C4D0EA" stop-opacity="0"/>
</linearGradient>
<linearGradient id="paint19_linear" x1="425" y1="11.9998" x2="1.19917e-05" y2="9.99886" gradientUnits="userSpaceOnUse">
<stop stop-color="#18C286"/>
<stop offset="1" stop-color="#C4D0EA" stop-opacity="0"/>
</linearGradient>
<linearGradient id="paint20_linear" x1="425" y1="11.9998" x2="1.19917e-05" y2="9.99886" gradientUnits="userSpaceOnUse">
<stop stop-color="#18C286"/>
<stop offset="1" stop-color="#C4D0EA" stop-opacity="0"/>
</linearGradient>
<linearGradient id="paint21_linear" x1="425" y1="11.9998" x2="1.19917e-05" y2="9.99886" gradientUnits="userSpaceOnUse">
<stop stop-color="#18C286"/>
<stop offset="1" stop-color="#C4D0EA" stop-opacity="0"/>
</linearGradient>
<linearGradient id="paint22_linear" x1="425" y1="11.9998" x2="1.19917e-05" y2="9.99886" gradientUnits="userSpaceOnUse">
<stop stop-color="#18C286"/>
<stop offset="1" stop-color="#C4D0EA" stop-opacity="0"/>
</linearGradient>
<linearGradient id="paint23_linear" x1="425" y1="11.9998" x2="1.19917e-05" y2="9.99886" gradientUnits="userSpaceOnUse">
<stop stop-color="#18C286"/>
<stop offset="1" stop-color="#C4D0EA" stop-opacity="0"/>
</linearGradient>
<linearGradient id="paint24_linear" x1="425" y1="11.9998" x2="1.19917e-05" y2="9.99886" gradientUnits="userSpaceOnUse">
<stop stop-color="#18C286"/>
<stop offset="1" stop-color="#C4D0EA" stop-opacity="0"/>
</linearGradient>
<linearGradient id="paint25_linear" x1="425" y1="11.9998" x2="1.19917e-05" y2="9.99886" gradientUnits="userSpaceOnUse">
<stop stop-color="#18C286"/>
<stop offset="1" stop-color="#C4D0EA" stop-opacity="0"/>
</linearGradient>
<linearGradient id="paint26_linear" x1="425" y1="11.9998" x2="1.19917e-05" y2="9.99886" gradientUnits="userSpaceOnUse">
<stop stop-color="#18C286"/>
<stop offset="1" stop-color="#C4D0EA" stop-opacity="0"/>
</linearGradient>
<linearGradient id="paint27_linear" x1="425" y1="11.9998" x2="1.19917e-05" y2="9.99886" gradientUnits="userSpaceOnUse">
<stop stop-color="#18C286"/>
<stop offset="1" stop-color="#C4D0EA" stop-opacity="0"/>
</linearGradient>
<linearGradient id="paint28_linear" x1="425" y1="11.9998" x2="1.19917e-05" y2="9.99886" gradientUnits="userSpaceOnUse">
<stop stop-color="#18C286"/>
<stop offset="1" stop-color="#C4D0EA" stop-opacity="0"/>
</linearGradient>
<linearGradient id="paint29_linear" x1="425" y1="11.9998" x2="1.19917e-05" y2="9.99886" gradientUnits="userSpaceOnUse">
<stop stop-color="#18C286"/>
<stop offset="1" stop-color="#C4D0EA" stop-opacity="0"/>
</linearGradient>
<linearGradient id="paint30_linear" x1="425" y1="11.9998" x2="1.19917e-05" y2="9.99886" gradientUnits="userSpaceOnUse">
<stop stop-color="#18C286"/>
<stop offset="1" stop-color="#C4D0EA" stop-opacity="0"/>
</linearGradient>
<linearGradient id="paint31_linear" x1="425" y1="11.9998" x2="1.19917e-05" y2="9.99886" gradientUnits="userSpaceOnUse">
<stop stop-color="#18C286"/>
<stop offset="1" stop-color="#C4D0EA" stop-opacity="0"/>
</linearGradient>
<linearGradient id="paint32_linear" x1="425" y1="11.9998" x2="1.19917e-05" y2="9.99886" gradientUnits="userSpaceOnUse">
<stop stop-color="#18C286"/>
<stop offset="1" stop-color="#C4D0EA" stop-opacity="0"/>
</linearGradient>
<linearGradient id="paint33_linear" x1="425" y1="11.9998" x2="1.19917e-05" y2="9.99886" gradientUnits="userSpaceOnUse">
<stop stop-color="#18C286"/>
<stop offset="1" stop-color="#C4D0EA" stop-opacity="0"/>
</linearGradient>
<linearGradient id="paint34_linear" x1="425" y1="11.9998" x2="1.19917e-05" y2="9.99886" gradientUnits="userSpaceOnUse">
<stop stop-color="#18C286"/>
<stop offset="1" stop-color="#C4D0EA" stop-opacity="0"/>
</linearGradient>
<linearGradient id="paint35_linear" x1="425" y1="11.9998" x2="1.19917e-05" y2="9.99886" gradientUnits="userSpaceOnUse">
<stop stop-color="#18C286"/>
<stop offset="1" stop-color="#C4D0EA" stop-opacity="0"/>
</linearGradient>
<linearGradient id="paint36_linear" x1="425" y1="11.9998" x2="1.19917e-05" y2="9.99886" gradientUnits="userSpaceOnUse">
<stop stop-color="#18C286"/>
<stop offset="1" stop-color="#C4D0EA" stop-opacity="0"/>
</linearGradient>
<linearGradient id="paint37_linear" x1="425" y1="11.9998" x2="1.19917e-05" y2="9.99886" gradientUnits="userSpaceOnUse">
<stop stop-color="#18C286"/>
<stop offset="1" stop-color="#C4D0EA" stop-opacity="0"/>
</linearGradient>
<linearGradient id="paint38_linear" x1="425" y1="11.9998" x2="1.19917e-05" y2="9.99886" gradientUnits="userSpaceOnUse">
<stop stop-color="#18C286"/>
<stop offset="1" stop-color="#C4D0EA" stop-opacity="0"/>
</linearGradient>
<linearGradient id="paint39_linear" x1="425" y1="11.9998" x2="1.19917e-05" y2="9.99886" gradientUnits="userSpaceOnUse">
<stop stop-color="#18C286"/>
<stop offset="1" stop-color="#C4D0EA" stop-opacity="0"/>
</linearGradient>
<linearGradient id="paint40_linear" x1="425" y1="11.9998" x2="1.19917e-05" y2="9.99886" gradientUnits="userSpaceOnUse">
<stop stop-color="#18C286"/>
<stop offset="1" stop-color="#C4D0EA" stop-opacity="0"/>
</linearGradient>
<linearGradient id="paint41_linear" x1="425" y1="11.9998" x2="1.19917e-05" y2="9.99886" gradientUnits="userSpaceOnUse">
<stop stop-color="#18C286"/>
<stop offset="1" stop-color="#C4D0EA" stop-opacity="0"/>
</linearGradient>
<linearGradient id="paint42_linear" x1="425" y1="11.9998" x2="1.19917e-05" y2="9.99886" gradientUnits="userSpaceOnUse">
<stop stop-color="#18C286"/>
<stop offset="1" stop-color="#C4D0EA" stop-opacity="0"/>
</linearGradient>
<linearGradient id="paint43_linear" x1="425" y1="11.9998" x2="1.19917e-05" y2="9.99886" gradientUnits="userSpaceOnUse">
<stop stop-color="#18C286"/>
<stop offset="1" stop-color="#C4D0EA" stop-opacity="0"/>
</linearGradient>
<linearGradient id="paint44_linear" x1="425" y1="11.9998" x2="1.19917e-05" y2="9.99886" gradientUnits="userSpaceOnUse">
<stop stop-color="#18C286"/>
<stop offset="1" stop-color="#C4D0EA" stop-opacity="0"/>
</linearGradient>
<linearGradient id="paint45_linear" x1="425" y1="11.9998" x2="1.19917e-05" y2="9.99886" gradientUnits="userSpaceOnUse">
<stop stop-color="#18C286"/>
<stop offset="1" stop-color="#C4D0EA" stop-opacity="0"/>
</linearGradient>
<linearGradient id="paint46_linear" x1="425" y1="11.9998" x2="1.19917e-05" y2="9.99886" gradientUnits="userSpaceOnUse">
<stop stop-color="#18C286"/>
<stop offset="1" stop-color="#C4D0EA" stop-opacity="0"/>
</linearGradient>
<linearGradient id="paint47_linear" x1="425" y1="11.9998" x2="1.19917e-05" y2="9.99886" gradientUnits="userSpaceOnUse">
<stop stop-color="#18C286"/>
<stop offset="1" stop-color="#C4D0EA" stop-opacity="0"/>
</linearGradient>
<linearGradient id="paint48_linear" x1="425" y1="11.9998" x2="1.19917e-05" y2="9.99886" gradientUnits="userSpaceOnUse">
<stop stop-color="#18C286"/>
<stop offset="1" stop-color="#C4D0EA" stop-opacity="0"/>
</linearGradient>
<linearGradient id="paint49_linear" x1="425" y1="11.9998" x2="1.19917e-05" y2="9.99886" gradientUnits="userSpaceOnUse">
<stop stop-color="#18C286"/>
<stop offset="1" stop-color="#C4D0EA" stop-opacity="0"/>
</linearGradient>
<linearGradient id="paint50_linear" x1="425" y1="11.9998" x2="1.19917e-05" y2="9.99886" gradientUnits="userSpaceOnUse">
<stop stop-color="#18C286"/>
<stop offset="1" stop-color="#C4D0EA" stop-opacity="0"/>
</linearGradient>
<linearGradient id="paint51_linear" x1="425" y1="11.9998" x2="1.19917e-05" y2="9.99886" gradientUnits="userSpaceOnUse">
<stop stop-color="#18C286"/>
<stop offset="1" stop-color="#C4D0EA" stop-opacity="0"/>
</linearGradient>
<linearGradient id="paint52_linear" x1="425" y1="11.9998" x2="1.19917e-05" y2="9.99886" gradientUnits="userSpaceOnUse">
<stop stop-color="#18C286"/>
<stop offset="1" stop-color="#C4D0EA" stop-opacity="0"/>
</linearGradient>
<linearGradient id="paint53_linear" x1="425" y1="11.9998" x2="1.19917e-05" y2="9.99886" gradientUnits="userSpaceOnUse">
<stop stop-color="#18C286"/>
<stop offset="1" stop-color="#C4D0EA" stop-opacity="0"/>
</linearGradient>
<linearGradient id="paint54_linear" x1="425" y1="11.9998" x2="1.19917e-05" y2="9.99886" gradientUnits="userSpaceOnUse">
<stop stop-color="#18C286"/>
<stop offset="1" stop-color="#C4D0EA" stop-opacity="0"/>
</linearGradient>
<linearGradient id="paint55_linear" x1="425" y1="11.9998" x2="1.19917e-05" y2="9.99886" gradientUnits="userSpaceOnUse">
<stop stop-color="#18C286"/>
<stop offset="1" stop-color="#C4D0EA" stop-opacity="0"/>
</linearGradient>
<linearGradient id="paint56_linear" x1="425" y1="11.9998" x2="1.19917e-05" y2="9.99886" gradientUnits="userSpaceOnUse">
<stop stop-color="#18C286"/>
<stop offset="1" stop-color="#C4D0EA" stop-opacity="0"/>
</linearGradient>
<linearGradient id="paint57_linear" x1="425" y1="11.9998" x2="1.19917e-05" y2="9.99886" gradientUnits="userSpaceOnUse">
<stop stop-color="#18C286"/>
<stop offset="1" stop-color="#C4D0EA" stop-opacity="0"/>
</linearGradient>
<linearGradient id="paint58_linear" x1="425" y1="11.9998" x2="1.19917e-05" y2="9.99886" gradientUnits="userSpaceOnUse">
<stop stop-color="#18C286"/>
<stop offset="1" stop-color="#C4D0EA" stop-opacity="0"/>
</linearGradient>
<linearGradient id="paint59_linear" x1="425" y1="11.9998" x2="1.19917e-05" y2="9.99886" gradientUnits="userSpaceOnUse">
<stop stop-color="#18C286"/>
<stop offset="1" stop-color="#C4D0EA" stop-opacity="0"/>
</linearGradient>
<linearGradient id="paint60_linear" x1="425" y1="11.9998" x2="1.19917e-05" y2="9.99886" gradientUnits="userSpaceOnUse">
<stop stop-color="#18C286"/>
<stop offset="1" stop-color="#C4D0EA" stop-opacity="0"/>
</linearGradient>
<linearGradient id="paint61_linear" x1="425" y1="11.9998" x2="1.19917e-05" y2="9.99886" gradientUnits="userSpaceOnUse">
<stop stop-color="#18C286"/>
<stop offset="1" stop-color="#C4D0EA" stop-opacity="0"/>
</linearGradient>
<linearGradient id="paint62_linear" x1="425" y1="11.9998" x2="1.19917e-05" y2="9.99886" gradientUnits="userSpaceOnUse">
<stop stop-color="#18C286"/>
<stop offset="1" stop-color="#C4D0EA" stop-opacity="0"/>
</linearGradient>
<linearGradient id="paint63_linear" x1="425" y1="11.9998" x2="1.19917e-05" y2="9.99886" gradientUnits="userSpaceOnUse">
<stop stop-color="#18C286"/>
<stop offset="1" stop-color="#C4D0EA" stop-opacity="0"/>
</linearGradient>
<linearGradient id="paint64_linear" x1="425" y1="11.9998" x2="1.19917e-05" y2="9.99886" gradientUnits="userSpaceOnUse">
<stop stop-color="#18C286"/>
<stop offset="1" stop-color="#C4D0EA" stop-opacity="0"/>
</linearGradient>
<linearGradient id="paint65_linear" x1="425" y1="11.9998" x2="1.19917e-05" y2="9.99886" gradientUnits="userSpaceOnUse">
<stop stop-color="#18C286"/>
<stop offset="1" stop-color="#C4D0EA" stop-opacity="0"/>
</linearGradient>
<linearGradient id="paint66_linear" x1="425" y1="11.9998" x2="1.19917e-05" y2="9.99886" gradientUnits="userSpaceOnUse">
<stop stop-color="#18C286"/>
<stop offset="1" stop-color="#C4D0EA" stop-opacity="0"/>
</linearGradient>
<linearGradient id="paint67_linear" x1="425" y1="11.9998" x2="1.19917e-05" y2="9.99886" gradientUnits="userSpaceOnUse">
<stop stop-color="#18C286"/>
<stop offset="1" stop-color="#C4D0EA" stop-opacity="0"/>
</linearGradient>
<linearGradient id="paint68_linear" x1="425" y1="11.9998" x2="1.19917e-05" y2="9.99886" gradientUnits="userSpaceOnUse">
<stop stop-color="#18C286"/>
<stop offset="1" stop-color="#C4D0EA" stop-opacity="0"/>
</linearGradient>
<linearGradient id="paint69_linear" x1="425" y1="11.9998" x2="1.19917e-05" y2="9.99886" gradientUnits="userSpaceOnUse">
<stop stop-color="#18C286"/>
<stop offset="1" stop-color="#C4D0EA" stop-opacity="0"/>
</linearGradient>
<linearGradient id="paint70_linear" x1="425" y1="11.9998" x2="1.19917e-05" y2="9.99886" gradientUnits="userSpaceOnUse">
<stop stop-color="#18C286"/>
<stop offset="1" stop-color="#C4D0EA" stop-opacity="0"/>
</linearGradient>
<linearGradient id="paint71_linear" x1="425" y1="11.9998" x2="1.19917e-05" y2="9.99886" gradientUnits="userSpaceOnUse">
<stop stop-color="#18C286"/>
<stop offset="1" stop-color="#C4D0EA" stop-opacity="0"/>
</linearGradient>
</defs>
</svg>
