<svg width="22" height="44" viewBox="0 0 22 44" fill="none" xmlns="http://www.w3.org/2000/svg">
<path d="M10.7542 7.25888C10.5208 7.02555 10.4042 6.74555 10.4042 6.41888C10.4042 6.09222 10.5208 5.81221 10.7542 5.57887C10.9875 5.34554 11.2675 5.22888 11.5942 5.22888C11.9208 5.22888 12.2008 5.34554 12.4342 5.57887C12.6675 5.81221 12.7842 6.09222 12.7842 6.41888C12.7842 6.74555 12.6675 7.02555 12.4342 7.25888C12.2008 7.49221 11.9208 7.60887 11.5942 7.60887C11.2675 7.60887 10.9875 7.49221 10.7542 7.25888Z" fill="#C4D0EA"/>
<path d="M10.7542 13.105C10.5208 12.8716 10.4042 12.5917 10.4042 12.265C10.4042 11.9383 10.5208 11.6583 10.7542 11.425C10.9875 11.1916 11.2675 11.075 11.5942 11.075C11.9208 11.075 12.2008 11.1916 12.4342 11.425C12.6675 11.6583 12.7842 11.9383 12.7842 12.265C12.7842 12.5917 12.6675 12.8716 12.4342 13.105C12.2008 13.3383 11.9208 13.455 11.5942 13.455C11.2675 13.455 10.9875 13.3383 10.7542 13.105Z" fill="#C4D0EA"/>
<path d="M10.7542 18.9511C10.5208 18.7177 10.4042 18.4377 10.4042 18.1111C10.4042 17.7844 10.5208 17.5044 10.7542 17.2711C10.9875 17.0377 11.2675 16.9211 11.5942 16.9211C11.9208 16.9211 12.2008 17.0377 12.4342 17.2711C12.6675 17.5044 12.7842 17.7844 12.7842 18.1111C12.7842 18.4377 12.6675 18.7177 12.4342 18.9511C12.2008 19.1844 11.9208 19.3011 11.5942 19.3011C11.2675 19.3011 10.9875 19.1844 10.7542 18.9511Z" fill="#C4D0EA"/>
<path d="M10.7542 24.7972C10.5208 24.5638 10.4042 24.2838 10.4042 23.9572C10.4042 23.6305 10.5208 23.3505 10.7542 23.1172C10.9875 22.8838 11.2675 22.7672 11.5942 22.7672C11.9208 22.7672 12.2008 22.8838 12.4342 23.1172C12.6675 23.3505 12.7842 23.6305 12.7842 23.9572C12.7842 24.2838 12.6675 24.5638 12.4342 24.7972C12.2008 25.0305 11.9208 25.1472 11.5942 25.1472C11.2675 25.1472 10.9875 25.0305 10.7542 24.7972Z" fill="#C4D0EA"/>
<path d="M10.7542 30.6433C10.5208 30.4099 10.4042 30.1299 10.4042 29.8033C10.4042 29.4766 10.5208 29.1966 10.7542 28.9633C10.9875 28.7299 11.2675 28.6133 11.5942 28.6133C11.9208 28.6133 12.2008 28.7299 12.4342 28.9633C12.6675 29.1966 12.7842 29.4766 12.7842 29.8033C12.7842 30.1299 12.6675 30.4099 12.4342 30.6433C12.2008 30.8766 11.9208 30.9933 11.5942 30.9933C11.2675 30.9933 10.9875 30.8766 10.7542 30.6433Z" fill="#C4D0EA"/>
<path d="M21.3684 29.6216C19.8878 30.2946 17.6006 31.7192 15.445 33.8356C13.7371 35.5123 12.0895 37.6453 11 40.2089C9.91049 37.6453 8.26292 35.5123 6.55504 33.8356C4.39937 31.7192 2.11222 30.2946 0.631594 29.6216L0 31.0111C1.31762 31.61 3.45678 32.9328 5.48575 34.9247C7.51223 36.9142 9.39332 39.5361 10.2637 42.7277C10.2637 42.7277 10.2637 43.29 11 43.29C11.7363 43.29 11.7363 42.7277 11.7363 42.7277C12.6067 39.5361 14.4878 36.9142 16.5142 34.9247C18.5432 32.9328 20.6824 31.61 22 31.0111L21.3684 29.6216Z" fill="#C4D0EA"/>
</svg>
