<svg width="23" height="221" viewBox="0 0 23 221" fill="none" xmlns="http://www.w3.org/2000/svg">
<path d="M10.5492 2.04501C10.5492 2.37167 10.6659 2.65167 10.8992 2.88501C11.1325 3.11835 11.4125 3.23502 11.7392 3.23502C12.0659 3.23502 12.3459 3.11835 12.5792 2.88501C12.8125 2.65167 12.9292 2.37167 12.9292 2.04501C12.9292 1.71834 12.8125 1.43834 12.5792 1.20502C12.3459 0.97168 12.0659 0.855011 11.7392 0.855011C11.4125 0.855011 11.1325 0.97168 10.8992 1.20502C10.6659 1.43834 10.5492 1.71834 10.5492 2.04501Z" fill="#DADADA"/>
<path d="M10.5492 7.8911C10.5492 8.21777 10.6659 8.49777 10.8992 8.73111C11.1325 8.96443 11.4125 9.0811 11.7392 9.0811C12.0659 9.0811 12.3459 8.96443 12.5792 8.73111C12.8125 8.49777 12.9292 8.21777 12.9292 7.8911C12.9292 7.56444 12.8125 7.28444 12.5792 7.0511C12.3459 6.81776 12.0659 6.70111 11.7392 6.70111C11.4125 6.70111 11.1325 6.81776 10.8992 7.0511C10.6659 7.28444 10.5492 7.56444 10.5492 7.8911Z" fill="#DADADA"/>
<path d="M10.8992 14.5772C10.6659 14.3439 10.5492 14.0639 10.5492 13.7372C10.5492 13.4105 10.6659 13.1305 10.8992 12.8972C11.1325 12.6639 11.4125 12.5472 11.7392 12.5472C12.0659 12.5472 12.3459 12.6639 12.5792 12.8972C12.8125 13.1305 12.9292 13.4105 12.9292 13.7372C12.9292 14.0639 12.8125 14.3439 12.5792 14.5772C12.3459 14.8105 12.0659 14.9272 11.7392 14.9272C11.4125 14.9272 11.1325 14.8105 10.8992 14.5772Z" fill="#DADADA"/>
<path d="M10.5492 19.5833C10.5492 19.91 10.6659 20.19 10.8992 20.4233C11.1325 20.6566 11.4125 20.7733 11.7392 20.7733C12.0659 20.7733 12.3459 20.6566 12.5792 20.4233C12.8125 20.19 12.9292 19.91 12.9292 19.5833C12.9292 19.2566 12.8125 18.9766 12.5792 18.7433C12.3459 18.5099 12.0659 18.3933 11.7392 18.3933C11.4125 18.3933 11.1325 18.5099 10.8992 18.7433C10.6659 18.9766 10.5492 19.2566 10.5492 19.5833Z" fill="#DADADA"/>
<path d="M10.8992 26.2694C10.6659 26.0361 10.5492 25.756 10.5492 25.4294C10.5492 25.1027 10.6659 24.8227 10.8992 24.5894C11.1325 24.356 11.4125 24.2394 11.7392 24.2394C12.0659 24.2394 12.3459 24.356 12.5792 24.5894C12.8125 24.8227 12.9292 25.1027 12.9292 25.4294C12.9292 25.756 12.8125 26.0361 12.5792 26.2694C12.3459 26.5027 12.0659 26.6194 11.7392 26.6194C11.4125 26.6194 11.1325 26.5027 10.8992 26.2694Z" fill="#DADADA"/>
<path d="M10.5492 31.2755C10.5492 31.6021 10.6659 31.8821 10.8992 32.1155C11.1325 32.3488 11.4125 32.4655 11.7392 32.4655C12.0659 32.4655 12.3459 32.3488 12.5792 32.1155C12.8125 31.8821 12.9292 31.6021 12.9292 31.2755C12.9292 30.9488 12.8125 30.6688 12.5792 30.4355C12.3459 30.2021 12.0659 30.0855 11.7392 30.0855C11.4125 30.0855 11.1325 30.2021 10.8992 30.4355C10.6659 30.6688 10.5492 30.9488 10.5492 31.2755Z" fill="#DADADA"/>
<path d="M10.8992 37.9616C10.6659 37.7282 10.5492 37.4482 10.5492 37.1216C10.5492 36.7949 10.6659 36.5149 10.8992 36.2816C11.1325 36.0482 11.4125 35.9316 11.7392 35.9316C12.0659 35.9316 12.3459 36.0482 12.5792 36.2816C12.8125 36.5149 12.9292 36.7949 12.9292 37.1216C12.9292 37.4482 12.8125 37.7282 12.5792 37.9616C12.3459 38.1949 12.0659 38.3116 11.7392 38.3116C11.4125 38.3116 11.1325 38.1949 10.8992 37.9616Z" fill="#DADADA"/>
<path d="M10.5492 42.9677C10.5492 43.2943 10.6659 43.5743 10.8992 43.8077C11.1325 44.041 11.4125 44.1577 11.7392 44.1577C12.0659 44.1577 12.3459 44.041 12.5792 43.8077C12.8125 43.5743 12.9292 43.2943 12.9292 42.9677C12.9292 42.641 12.8125 42.361 12.5792 42.1277C12.3459 41.8943 12.0659 41.7777 11.7392 41.7777C11.4125 41.7777 11.1325 41.8943 10.8992 42.1277C10.6659 42.361 10.5492 42.641 10.5492 42.9677Z" fill="#DADADA"/>
<path d="M10.8992 49.6537C10.6659 49.4204 10.5492 49.1404 10.5492 48.8138C10.5492 48.4871 10.6659 48.2071 10.8992 47.9738C11.1325 47.7404 11.4125 47.6237 11.7392 47.6237C12.0659 47.6237 12.3459 47.7404 12.5792 47.9738C12.8125 48.2071 12.9292 48.4871 12.9292 48.8138C12.9292 49.1404 12.8125 49.4204 12.5792 49.6537C12.3459 49.8871 12.0659 50.0038 11.7392 50.0038C11.4125 50.0038 11.1325 49.8871 10.8992 49.6537Z" fill="#DADADA"/>
<path d="M10.5492 54.6599C10.5492 54.9865 10.6659 55.2665 10.8992 55.4998C11.1325 55.7332 11.4125 55.8499 11.7392 55.8499C12.0659 55.8499 12.3459 55.7332 12.5792 55.4998C12.8125 55.2665 12.9292 54.9865 12.9292 54.6599C12.9292 54.3332 12.8125 54.0532 12.5792 53.8199C12.3459 53.5865 12.0659 53.4698 11.7392 53.4698C11.4125 53.4698 11.1325 53.5865 10.8992 53.8199C10.6659 54.0532 10.5492 54.3332 10.5492 54.6599Z" fill="#DADADA"/>
<path d="M10.8992 61.3459C10.6659 61.1126 10.5492 60.8326 10.5492 60.506C10.5492 60.1793 10.6659 59.8993 10.8992 59.666C11.1325 59.4326 11.4125 59.3159 11.7392 59.3159C12.0659 59.3159 12.3459 59.4326 12.5792 59.666C12.8125 59.8993 12.9292 60.1793 12.9292 60.506C12.9292 60.8326 12.8125 61.1126 12.5792 61.3459C12.3459 61.5793 12.0659 61.696 11.7392 61.696C11.4125 61.696 11.1325 61.5793 10.8992 61.3459Z" fill="#DADADA"/>
<path d="M10.5492 66.3521C10.5492 66.6787 10.6659 66.9587 10.8992 67.192C11.1325 67.4254 11.4125 67.5421 11.7392 67.5421C12.0659 67.5421 12.3459 67.4254 12.5792 67.192C12.8125 66.9587 12.9292 66.6787 12.9292 66.3521C12.9292 66.0254 12.8125 65.7454 12.5792 65.5121C12.3459 65.2787 12.0659 65.162 11.7392 65.162C11.4125 65.162 11.1325 65.2787 10.8992 65.5121C10.6659 65.7454 10.5492 66.0254 10.5492 66.3521Z" fill="#DADADA"/>
<path d="M10.8992 73.0381C10.6659 72.8048 10.5492 72.5248 10.5492 72.1982C10.5492 71.8715 10.6659 71.5915 10.8992 71.3581C11.1325 71.1248 11.4125 71.0081 11.7392 71.0081C12.0659 71.0081 12.3459 71.1248 12.5792 71.3581C12.8125 71.5915 12.9292 71.8715 12.9292 72.1982C12.9292 72.5248 12.8125 72.8048 12.5792 73.0381C12.3459 73.2715 12.0659 73.3882 11.7392 73.3882C11.4125 73.3882 11.1325 73.2715 10.8992 73.0381Z" fill="#DADADA"/>
<path d="M10.5492 78.0442C10.5492 78.3709 10.6659 78.6509 10.8992 78.8842C11.1325 79.1176 11.4125 79.2342 11.7392 79.2342C12.0659 79.2342 12.3459 79.1176 12.5792 78.8842C12.8125 78.6509 12.9292 78.3709 12.9292 78.0442C12.9292 77.7176 12.8125 77.4376 12.5792 77.2042C12.3459 76.9709 12.0659 76.8542 11.7392 76.8542C11.4125 76.8542 11.1325 76.9709 10.8992 77.2042C10.6659 77.4376 10.5492 77.7176 10.5492 78.0442Z" fill="#DADADA"/>
<path d="M10.8992 84.7303C10.6659 84.497 10.5492 84.217 10.5492 83.8903C10.5492 83.5637 10.6659 83.2837 10.8992 83.0503C11.1325 82.817 11.4125 82.7003 11.7392 82.7003C12.0659 82.7003 12.3459 82.817 12.5792 83.0503C12.8125 83.2837 12.9292 83.5637 12.9292 83.8903C12.9292 84.217 12.8125 84.497 12.5792 84.7303C12.3459 84.9637 12.0659 85.0803 11.7392 85.0803C11.4125 85.0803 11.1325 84.9637 10.8992 84.7303Z" fill="#DADADA"/>
<path d="M10.5492 89.7364C10.5492 90.0631 10.6659 90.3431 10.8992 90.5764C11.1325 90.8098 11.4125 90.9264 11.7392 90.9264C12.0659 90.9264 12.3459 90.8098 12.5792 90.5764C12.8125 90.3431 12.9292 90.0631 12.9292 89.7364C12.9292 89.4098 12.8125 89.1298 12.5792 88.8964C12.3459 88.6631 12.0659 88.5464 11.7392 88.5464C11.4125 88.5464 11.1325 88.6631 10.8992 88.8964C10.6659 89.1298 10.5492 89.4098 10.5492 89.7364Z" fill="#DADADA"/>
<path d="M10.8992 96.4225C10.6659 96.1892 10.5492 95.9092 10.5492 95.5825C10.5492 95.2558 10.6659 94.9759 10.8992 94.7425C11.1325 94.5092 11.4125 94.3925 11.7392 94.3925C12.0659 94.3925 12.3459 94.5092 12.5792 94.7425C12.8125 94.9759 12.9292 95.2558 12.9292 95.5825C12.9292 95.9092 12.8125 96.1892 12.5792 96.4225C12.3459 96.6559 12.0659 96.7725 11.7392 96.7725C11.4125 96.7725 11.1325 96.6559 10.8992 96.4225Z" fill="#DADADA"/>
<path d="M10.5492 101.429C10.5492 101.755 10.6659 102.035 10.8992 102.269C11.1325 102.502 11.4125 102.619 11.7392 102.619C12.0659 102.619 12.3459 102.502 12.5792 102.269C12.8125 102.035 12.9292 101.755 12.9292 101.429C12.9292 101.102 12.8125 100.822 12.5792 100.589C12.3459 100.355 12.0659 100.239 11.7392 100.239C11.4125 100.239 11.1325 100.355 10.8992 100.589C10.6659 100.822 10.5492 101.102 10.5492 101.429Z" fill="#DADADA"/>
<path d="M10.8992 108.115C10.6659 107.881 10.5492 107.601 10.5492 107.275C10.5492 106.948 10.6659 106.668 10.8992 106.435C11.1325 106.201 11.4125 106.085 11.7392 106.085C12.0659 106.085 12.3459 106.201 12.5792 106.435C12.8125 106.668 12.9292 106.948 12.9292 107.275C12.9292 107.601 12.8125 107.881 12.5792 108.115C12.3459 108.348 12.0659 108.465 11.7392 108.465C11.4125 108.465 11.1325 108.348 10.8992 108.115Z" fill="#DADADA"/>
<path d="M10.5492 113.121C10.5492 113.447 10.6659 113.727 10.8992 113.961C11.1325 114.194 11.4125 114.311 11.7392 114.311C12.0659 114.311 12.3459 114.194 12.5792 113.961C12.8125 113.727 12.9292 113.447 12.9292 113.121C12.9292 112.794 12.8125 112.514 12.5792 112.281C12.3459 112.047 12.0659 111.931 11.7392 111.931C11.4125 111.931 11.1325 112.047 10.8992 112.281C10.6659 112.514 10.5492 112.794 10.5492 113.121Z" fill="#DADADA"/>
<path d="M10.8992 119.807C10.6659 119.574 10.5492 119.294 10.5492 118.967C10.5492 118.64 10.6659 118.36 10.8992 118.127C11.1325 117.894 11.4125 117.777 11.7392 117.777C12.0659 117.777 12.3459 117.894 12.5792 118.127C12.8125 118.36 12.9292 118.64 12.9292 118.967C12.9292 119.294 12.8125 119.574 12.5792 119.807C12.3459 120.04 12.0659 120.157 11.7392 120.157C11.4125 120.157 11.1325 120.04 10.8992 119.807Z" fill="#DADADA"/>
<path d="M10.5492 124.813C10.5492 125.14 10.6659 125.42 10.8992 125.653C11.1325 125.886 11.4125 126.003 11.7392 126.003C12.0659 126.003 12.3459 125.886 12.5792 125.653C12.8125 125.42 12.9292 125.14 12.9292 124.813C12.9292 124.486 12.8125 124.206 12.5792 123.973C12.3459 123.74 12.0659 123.623 11.7392 123.623C11.4125 123.623 11.1325 123.74 10.8992 123.973C10.6659 124.206 10.5492 124.486 10.5492 124.813Z" fill="#DADADA"/>
<path d="M10.8992 131.499C10.6659 131.266 10.5492 130.986 10.5492 130.659C10.5492 130.332 10.6659 130.052 10.8992 129.819C11.1325 129.586 11.4125 129.469 11.7392 129.469C12.0659 129.469 12.3459 129.586 12.5792 129.819C12.8125 130.052 12.9292 130.332 12.9292 130.659C12.9292 130.986 12.8125 131.266 12.5792 131.499C12.3459 131.732 12.0659 131.849 11.7392 131.849C11.4125 131.849 11.1325 131.732 10.8992 131.499Z" fill="#DADADA"/>
<path d="M10.5492 136.505C10.5492 136.832 10.6659 137.112 10.8992 137.345C11.1325 137.579 11.4125 137.695 11.7392 137.695C12.0659 137.695 12.3459 137.579 12.5792 137.345C12.8125 137.112 12.9292 136.832 12.9292 136.505C12.9292 136.178 12.8125 135.898 12.5792 135.665C12.3459 135.432 12.0659 135.315 11.7392 135.315C11.4125 135.315 11.1325 135.432 10.8992 135.665C10.6659 135.898 10.5492 136.178 10.5492 136.505Z" fill="#DADADA"/>
<path d="M10.8992 143.191C10.6659 142.958 10.5492 142.678 10.5492 142.351C10.5492 142.025 10.6659 141.745 10.8992 141.511C11.1325 141.278 11.4125 141.161 11.7392 141.161C12.0659 141.161 12.3459 141.278 12.5792 141.511C12.8125 141.745 12.9292 142.025 12.9292 142.351C12.9292 142.678 12.8125 142.958 12.5792 143.191C12.3459 143.425 12.0659 143.541 11.7392 143.541C11.4125 143.541 11.1325 143.425 10.8992 143.191Z" fill="#DADADA"/>
<path d="M10.5492 148.197C10.5492 148.524 10.6659 148.804 10.8992 149.037C11.1325 149.271 11.4125 149.387 11.7392 149.387C12.0659 149.387 12.3459 149.271 12.5792 149.037C12.8125 148.804 12.9292 148.524 12.9292 148.197C12.9292 147.871 12.8125 147.591 12.5792 147.357C12.3459 147.124 12.0659 147.007 11.7392 147.007C11.4125 147.007 11.1325 147.124 10.8992 147.357C10.6659 147.591 10.5492 147.871 10.5492 148.197Z" fill="#DADADA"/>
<path d="M10.8992 154.883C10.6659 154.65 10.5492 154.37 10.5492 154.043C10.5492 153.717 10.6659 153.437 10.8992 153.203C11.1325 152.97 11.4125 152.853 11.7392 152.853C12.0659 152.853 12.3459 152.97 12.5792 153.203C12.8125 153.437 12.9292 153.717 12.9292 154.043C12.9292 154.37 12.8125 154.65 12.5792 154.883C12.3459 155.117 12.0659 155.233 11.7392 155.233C11.4125 155.233 11.1325 155.117 10.8992 154.883Z" fill="#DADADA"/>
<path d="M10.5492 159.89C10.5492 160.216 10.6659 160.496 10.8992 160.73C11.1325 160.963 11.4125 161.08 11.7392 161.08C12.0659 161.08 12.3459 160.963 12.5792 160.73C12.8125 160.496 12.9292 160.216 12.9292 159.89C12.9292 159.563 12.8125 159.283 12.5792 159.05C12.3459 158.816 12.0659 158.7 11.7392 158.7C11.4125 158.7 11.1325 158.816 10.8992 159.05C10.6659 159.283 10.5492 159.563 10.5492 159.89Z" fill="#DADADA"/>
<path d="M10.8992 166.576C10.6659 166.342 10.5492 166.062 10.5492 165.736C10.5492 165.409 10.6659 165.129 10.8992 164.896C11.1325 164.662 11.4125 164.546 11.7392 164.546C12.0659 164.546 12.3459 164.662 12.5792 164.896C12.8125 165.129 12.9292 165.409 12.9292 165.736C12.9292 166.062 12.8125 166.342 12.5792 166.576C12.3459 166.809 12.0659 166.926 11.7392 166.926C11.4125 166.926 11.1325 166.809 10.8992 166.576Z" fill="#DADADA"/>
<path d="M10.5492 171.582C10.5492 171.908 10.6659 172.188 10.8992 172.422C11.1325 172.655 11.4125 172.772 11.7392 172.772C12.0659 172.772 12.3459 172.655 12.5792 172.422C12.8125 172.188 12.9292 171.908 12.9292 171.582C12.9292 171.255 12.8125 170.975 12.5792 170.742C12.3459 170.508 12.0659 170.392 11.7392 170.392C11.4125 170.392 11.1325 170.508 10.8992 170.742C10.6659 170.975 10.5492 171.255 10.5492 171.582Z" fill="#DADADA"/>
<path d="M10.8992 178.268C10.6659 178.035 10.5492 177.754 10.5492 177.428C10.5492 177.101 10.6659 176.821 10.8992 176.588C11.1325 176.354 11.4125 176.238 11.7392 176.238C12.0659 176.238 12.3459 176.354 12.5792 176.588C12.8125 176.821 12.9292 177.101 12.9292 177.428C12.9292 177.754 12.8125 178.035 12.5792 178.268C12.3459 178.501 12.0659 178.618 11.7392 178.618C11.4125 178.618 11.1325 178.501 10.8992 178.268Z" fill="#DADADA"/>
<path d="M10.5492 183.274C10.5492 183.601 10.6659 183.881 10.8992 184.114C11.1325 184.347 11.4125 184.464 11.7392 184.464C12.0659 184.464 12.3459 184.347 12.5792 184.114C12.8125 183.881 12.9292 183.601 12.9292 183.274C12.9292 182.947 12.8125 182.667 12.5792 182.434C12.3459 182.201 12.0659 182.084 11.7392 182.084C11.4125 182.084 11.1325 182.201 10.8992 182.434C10.6659 182.667 10.5492 182.947 10.5492 183.274Z" fill="#DADADA"/>
<path d="M10.8992 189.96C10.6659 189.727 10.5492 189.447 10.5492 189.12C10.5492 188.793 10.6659 188.513 10.8992 188.28C11.1325 188.047 11.4125 187.93 11.7392 187.93C12.0659 187.93 12.3459 188.047 12.5792 188.28C12.8125 188.513 12.9292 188.793 12.9292 189.12C12.9292 189.447 12.8125 189.727 12.5792 189.96C12.3459 190.193 12.0659 190.31 11.7392 190.31C11.4125 190.31 11.1325 190.193 10.8992 189.96Z" fill="#DADADA"/>
<path d="M10.5492 194.966C10.5492 195.293 10.6659 195.573 10.8992 195.806C11.1325 196.039 11.4125 196.156 11.7392 196.156C12.0659 196.156 12.3459 196.039 12.5792 195.806C12.8125 195.573 12.9292 195.293 12.9292 194.966C12.9292 194.639 12.8125 194.359 12.5792 194.126C12.3459 193.893 12.0659 193.776 11.7392 193.776C11.4125 193.776 11.1325 193.893 10.8992 194.126C10.6659 194.359 10.5492 194.639 10.5492 194.966Z" fill="#DADADA"/>
<path d="M10.8992 201.652C10.6659 201.419 10.5492 201.139 10.5492 200.812C10.5492 200.486 10.6659 200.206 10.8992 199.972C11.1325 199.739 11.4125 199.622 11.7392 199.622C12.0659 199.622 12.3459 199.739 12.5792 199.972C12.8125 200.206 12.9292 200.486 12.9292 200.812C12.9292 201.139 12.8125 201.419 12.5792 201.652C12.3459 201.886 12.0659 202.002 11.7392 202.002C11.4125 202.002 11.1325 201.886 10.8992 201.652Z" fill="#DADADA"/>
<path d="M10.5492 206.658C10.5492 206.985 10.6659 207.265 10.8992 207.498C11.1325 207.732 11.4125 207.848 11.7392 207.848C12.0659 207.848 12.3459 207.732 12.5792 207.498C12.8125 207.265 12.9292 206.985 12.9292 206.658C12.9292 206.332 12.8125 206.052 12.5792 205.818C12.3459 205.585 12.0659 205.468 11.7392 205.468C11.4125 205.468 11.1325 205.585 10.8992 205.818C10.6659 206.052 10.5492 206.332 10.5492 206.658Z" fill="#DADADA"/>
<path d="M21.5134 206.477C20.0328 207.15 17.7456 208.574 15.59 210.691C13.8821 212.367 12.2345 214.5 11.145 217.064C10.0555 214.5 8.40794 212.367 6.70006 210.691C4.54439 208.574 2.25724 207.15 0.776613 206.477L0.14502 207.866C1.46264 208.465 3.6018 209.788 5.63077 211.78C7.65724 213.769 9.53834 216.391 10.4088 219.583C10.4088 219.583 10.4088 220.145 11.145 220.145C11.8813 220.145 11.8813 219.583 11.8813 219.583C12.7517 216.391 14.6328 213.769 16.6593 211.78C18.6882 209.788 20.8274 208.465 22.145 207.866L21.5134 206.477Z" fill="#209068"/>
</svg>
