<svg width="16" height="16" viewBox="0 0 16 16" fill="none" xmlns="http://www.w3.org/2000/svg">
<g clip-path="url(#clip0)">
<path d="M15.1626 10.9193L13.5529 9.60049C12.5042 8.74134 10.8763 8.82264 9.91955 9.77931L9.85565 9.84321C9.69522 10.0036 9.43391 10.0024 9.27575 9.84417L6.16562 6.73405C6.0086 6.57703 6.0055 6.3245 6.1568 6.16415C6.15956 6.16124 6.16236 6.15836 6.16519 6.15549L6.15664 6.16404C6.15948 6.1612 6.16232 6.15833 6.16515 6.15549C7.11657 5.19495 7.20762 3.55952 6.37418 2.50583L5.06861 0.855264C4.22942 -0.205709 2.77094 -0.287664 1.81434 0.668929L1.57453 0.908738C-0.124568 2.60784 -0.524955 5.67024 0.749534 7.70636C0.749534 7.70636 1.49978 9.44628 4.03167 11.9782C6.56355 14.51 8.30347 15.2603 8.30347 15.2603C10.3586 16.5037 13.401 16.1354 15.0997 14.4367L15.3281 14.2083C16.2854 13.251 16.2106 11.7779 15.1626 10.9193ZM14.1715 13.0518L13.9431 13.2802C12.7769 14.4464 10.5614 14.7148 9.15009 13.8609L9.05407 13.8028L8.95103 13.7584C8.82453 13.7039 8.50744 13.5319 8.02805 13.2104C7.17664 12.6393 6.22055 11.8541 5.18813 10.8217C4.15571 9.78928 3.37046 8.83318 2.79942 7.98178C2.47788 7.50239 2.30592 7.1853 2.25141 7.0588L2.20204 6.9443L2.13588 6.83862C1.2778 5.46776 1.55445 3.24186 2.73103 2.06527L2.97084 1.82547C3.23676 1.55955 3.55469 1.57764 3.78591 1.86997L5.09149 3.52054C5.41341 3.92752 5.37174 4.63606 5.00022 5.00762C4.20988 5.8072 4.21378 7.09529 5.00915 7.89062L8.11928 11.0007C8.91657 11.798 10.2135 11.7985 11.0122 10.9998L11.0761 10.9359C11.4388 10.5733 12.1185 10.5397 12.5164 10.8657L14.1262 12.1845C14.4267 12.4307 14.4443 12.7791 14.1715 13.0518Z" fill="white"/>
</g>
<defs>
<clipPath id="clip0">
<rect width="16" height="16" fill="white"/>
</clipPath>
</defs>
</svg>
