<svg width="15" height="15" viewBox="0 0 15 15" fill="none" xmlns="http://www.w3.org/2000/svg">
<g clip-path="url(#clip0)">
<path d="M14.2149 10.2369L12.7058 9.00056C11.7227 8.19511 10.1965 8.27133 9.29957 9.16821L9.23967 9.22812C9.08927 9.37851 8.84429 9.37733 8.69601 9.22901L5.78026 6.31327C5.63307 6.16607 5.63016 5.92932 5.772 5.779C5.77459 5.77627 5.77721 5.77357 5.77987 5.77088L5.77185 5.77889C5.77451 5.77623 5.77717 5.77354 5.77983 5.77088C6.67179 4.87037 6.75714 3.33716 5.9758 2.34932L4.75182 0.801915C3.96509 -0.192747 2.59775 -0.26958 1.70095 0.627226L1.47612 0.852047C-0.116783 2.44495 -0.492145 5.31595 0.702689 7.22481C0.702689 7.22481 1.40605 8.85599 3.77969 11.2296C6.15333 13.6033 7.78451 14.3066 7.78451 14.3066C9.7112 15.4723 12.5634 15.1271 14.156 13.5345L14.3701 13.3204C15.2676 12.4229 15.1974 11.0419 14.2149 10.2369ZM13.2858 12.2362L13.0717 12.4503C11.9784 13.5436 9.90134 13.7953 8.57821 12.9947L8.48819 12.9403L8.39159 12.8986C8.273 12.8475 7.97573 12.6863 7.5263 12.3849C6.7281 11.8495 5.83176 11.1133 4.86387 10.1454C3.89598 9.17755 3.15981 8.28121 2.62446 7.48302C2.32302 7.03359 2.1618 6.73632 2.1107 6.61773L2.06441 6.51039L2.00239 6.41131C1.19794 5.12613 1.45729 3.03935 2.56034 1.9363L2.78517 1.71148C3.03446 1.46218 3.33252 1.47915 3.54929 1.7532L4.77327 3.30061C5.07507 3.68215 5.03601 4.34641 4.68771 4.69475C3.94676 5.44435 3.95042 6.65194 4.69608 7.39756L7.61183 10.3133C8.35928 11.0608 9.57514 11.0612 10.324 10.3124L10.3839 10.2525C10.7238 9.91253 11.3611 9.88105 11.7342 10.1867L13.2433 11.4231C13.525 11.6539 13.5415 11.9805 13.2858 12.2362Z" fill="#353535"/>
</g>
<defs>
<clipPath id="clip0">
<rect width="15" height="15" fill="white"/>
</clipPath>
</defs>
</svg>
