<svg width="15" height="15" viewBox="0 0 15 15" fill="none" xmlns="http://www.w3.org/2000/svg">
<path d="M13.2422 1.40625H1.75781C0.788555 1.40625 0 2.1948 0 3.16406V4.61411L6.45091 9.41238C6.76465 9.64573 7.13232 9.76242 7.5 9.76242C7.86768 9.76242 8.23535 9.64576 8.54909 9.41238L15 4.61411V3.16406C15 2.1948 14.2114 1.40625 13.2422 1.40625ZM13.8281 4.02527L7.84972 8.47207C7.64054 8.62767 7.35946 8.62767 7.15031 8.47207L1.17188 4.02527V3.16406C1.17188 2.84098 1.43473 2.57812 1.75781 2.57812H13.2422C13.5653 2.57812 13.8281 2.84098 13.8281 3.16406V4.02527ZM13.8281 6.94626L15 6.07462V11.8359C15 12.8052 14.2114 13.5938 13.2422 13.5938H1.75781C0.788555 13.5938 0 12.8052 0 11.8359V6.07462L1.17188 6.94626V11.8359C1.17188 12.159 1.43473 12.4219 1.75781 12.4219H13.2422C13.5653 12.4219 13.8281 12.159 13.8281 11.8359V6.94626Z" fill="#353535"/>
</svg>
