<svg width="16" height="16" viewBox="0 0 16 16" fill="none" xmlns="http://www.w3.org/2000/svg">
<path fill-rule="evenodd" clip-rule="evenodd" d="M9.80984 13.2771L14.1999 3.0543C14.4927 2.37243 13.8264 1.67172 13.1306 1.92993L2.7003 5.80112C1.96314 6.07472 1.96759 7.11892 2.70706 7.38622L5.33062 8.3346C6.33002 8.69587 7.10101 9.50659 7.41164 10.5229L8.22708 13.1908C8.45691 13.9427 9.49957 13.9996 9.80984 13.2771ZM15.3632 3.55389C16.0953 1.8492 14.4294 0.0974255 12.6901 0.742961L2.25976 4.61415C0.416868 5.29814 0.427989 7.90865 2.27664 8.5769L4.90021 9.52528C5.52484 9.75107 6.0067 10.2578 6.20085 10.8929L7.01629 13.5608C7.59087 15.4407 10.1975 15.5829 10.9732 13.7767L15.3632 3.55389Z" fill="black"/>
</svg>
