<svg width="226" height="31" viewBox="0 0 226 31" fill="none" xmlns="http://www.w3.org/2000/svg">
<path d="M2.52 25V4H18.36V8.11H7.11V12.37H17.01V16.48H7.11V20.89H18.51V25H2.52ZM61.5759 25.3C58.1359 25.3 55.1659 24.18 52.6659 21.94L55.3959 18.67C57.4559 20.37 59.5459 21.22 61.6659 21.22C62.6059 21.22 63.3459 21.04 63.8859 20.68C64.4259 20.32 64.6959 19.82 64.6959 19.18C64.6959 18.58 64.4159 18.1 63.8559 17.74C63.2959 17.36 62.1659 16.95 60.4659 16.51C59.2659 16.21 58.2959 15.92 57.5559 15.64C56.8159 15.34 56.1059 14.95 55.4259 14.47C54.7659 13.99 54.2759 13.39 53.9559 12.67C53.6559 11.93 53.5059 11.05 53.5059 10.03C53.5059 8.13 54.1859 6.6 55.5459 5.44C56.9259 4.28 58.6959 3.7 60.8559 3.7C63.8359 3.7 66.4359 4.59 68.6559 6.37L66.2559 9.85C64.2759 8.47 62.4559 7.78 60.7959 7.78C59.9359 7.78 59.2659 7.96 58.7859 8.32C58.3259 8.66 58.0959 9.11 58.0959 9.67C58.0959 10.35 58.3859 10.86 58.9659 11.2C59.5459 11.54 60.7659 11.95 62.6259 12.43C64.9059 13.03 66.5859 13.8 67.6659 14.74C68.7459 15.68 69.2859 17.03 69.2859 18.79C69.2859 20.83 68.5759 22.43 67.1559 23.59C65.7559 24.73 63.8959 25.3 61.5759 25.3ZM82.7972 25V16.72L74.7272 4H80.1272L85.1372 12.43L90.2372 4H95.4872L87.4172 16.63V25H82.7972ZM102.862 25V4H112.462C115.122 4 117.162 4.71 118.582 6.13C119.782 7.33 120.382 8.95 120.382 10.99C120.382 14.21 118.882 16.38 115.882 17.5L121.012 25H115.612L111.052 18.28H107.482V25H102.862ZM107.482 14.2H112.162C113.282 14.2 114.152 13.93 114.772 13.39C115.392 12.83 115.702 12.09 115.702 11.17C115.702 10.19 115.382 9.45 114.742 8.95C114.102 8.43 113.212 8.17 112.072 8.17H107.482V14.2ZM129.251 25V4H133.871V25H129.251ZM143.62 25V4H151.81C155.09 4 157.77 5 159.85 7C161.93 8.98 162.97 11.48 162.97 14.5C162.97 17.5 161.92 20 159.82 22C157.74 24 155.07 25 151.81 25H143.62ZM148.24 20.83H151.81C153.71 20.83 155.24 20.25 156.4 19.09C157.56 17.91 158.14 16.38 158.14 14.5C158.14 12.64 157.55 11.12 156.37 9.94C155.21 8.76 153.69 8.17 151.81 8.17H148.24V20.83ZM171.586 25V4H187.426V8.11H176.176V12.37H186.076V16.48H176.176V20.89H187.576V25H171.586Z" fill="#747784"/>
<path fill-rule="evenodd" clip-rule="evenodd" d="M33.4464 8.54845L42.0714 24.9771L47 24.9771L36.674 5.38278L33.4464 8.54845Z" fill="#555863"/>
<path fill-rule="evenodd" clip-rule="evenodd" d="M37.9643 7.72703L28.9286 24.977L24 24.9771L35.9107 3.20918L37.9643 7.72703Z" fill="#747784"/>
</svg>
