<svg width="35" height="35" viewBox="0 0 35 35" fill="none" xmlns="http://www.w3.org/2000/svg">
<path d="M30.3998 16.38V31.94H4.63978V16.38H2.23975V33.14C2.23975 33.8028 2.77691 34.34 3.43973 34.34H31.5998C32.2626 34.34 32.7997 33.8028 32.7997 33.14V16.38H30.3998Z" fill="#F04D57"/>
<path d="M33.8 7.37964H1.19998C0.537168 7.37964 0 7.91681 0 8.57962V16.4196C0 17.0824 0.537168 17.6196 1.19998 17.6196H33.7999C34.4628 17.6196 34.9999 17.0828 34.9999 16.4196V8.57962C35 7.91681 34.4628 7.37964 33.8 7.37964ZM32.6 15.22H2.40003V9.78008H32.6V15.22H32.6Z" fill="#F04D57"/>
<path d="M18.6806 8.2759C18.599 7.96473 16.6194 0.659912 10.8398 0.659912C8.32537 0.659912 6.27979 2.7055 6.27979 5.21989C6.27979 7.73429 8.30739 9.77987 10.7998 9.77987H17.5198C17.8914 9.77987 18.2426 9.60747 18.4698 9.31305C18.6969 9.01862 18.7746 8.63547 18.6806 8.2759ZM10.7998 7.37991C9.61107 7.37991 8.67981 6.43108 8.67981 5.21989C8.67981 4.0491 9.66904 3.05987 10.8398 3.05987C13.473 3.05987 15.0498 5.65391 15.8078 7.37984H10.7998V7.37991Z" fill="#F04D57"/>
<path d="M24.1999 0.659912C18.4203 0.659912 16.4407 7.96473 16.3591 8.2759C16.2647 8.63547 16.3427 9.01869 16.5699 9.31312C16.7971 9.60754 17.1479 9.77994 17.5199 9.77994H24.2399C26.7323 9.77994 28.7599 7.73436 28.7599 5.21996C28.76 2.7055 26.7144 0.659912 24.1999 0.659912ZM24.24 7.37991H19.2272C19.9796 5.65391 21.5516 3.05994 24.2004 3.05994C25.3712 3.05994 26.3604 4.04917 26.3604 5.21996C26.3603 6.43108 25.4291 7.37991 24.24 7.37991Z" fill="#F04D57"/>
<path d="M18.7203 8.58008H16.3203V33.1401H18.7203V8.58008Z" fill="#F04D57"/>
</svg>
