<svg width="45" height="45" viewBox="0 0 45 45" fill="none" xmlns="http://www.w3.org/2000/svg">
<g clip-path="url(#clip0)">
<path d="M29.2531 9.75718C29.2531 6.02991 26.2318 3.00854 22.5045 3.00854C18.7776 3.00854 15.7559 6.02991 15.7559 9.75718C15.7559 13.4845 18.7776 16.5058 22.5045 16.5058C26.2299 16.5018 29.2491 13.4826 29.2531 9.75718ZM17.2556 9.75718C17.2556 6.85811 19.6058 4.50824 22.5045 4.50824C25.4036 4.50824 27.7534 6.85811 27.7534 9.75718C27.7534 12.6559 25.4036 15.0061 22.5045 15.0061C19.6072 15.0028 17.2588 12.6548 17.2556 9.75718Z" fill="#6B6B6B"/>
<path d="M22.5041 45.0001C29.0049 45.0001 36.0014 43.7095 36.0014 40.8759C36.0014 38.2452 30.1011 37.0568 24.7537 36.8078V19.2328C29.5658 18.0916 32.7607 13.5277 32.1862 8.61558C31.6118 3.70348 27.4499 0 22.5041 0C17.5587 0 13.3968 3.70348 12.8223 8.61558C12.2475 13.5277 15.4424 18.0916 20.2546 19.2328V36.8078C14.9075 37.0568 9.00684 38.2452 9.00684 40.8759C9.00684 43.7095 16.0037 45.0001 22.5041 45.0001ZM14.2558 9.75719C14.2514 5.37965 17.6671 1.76075 22.0377 1.51325C26.4082 1.26574 30.2109 4.4753 30.7008 8.82537C31.1907 13.1751 28.1972 17.1502 23.8812 17.881C23.6472 17.9199 23.4312 17.9484 23.2144 17.9693C22.9805 17.9898 22.745 18.0055 22.5056 18.0055C22.2665 18.0055 22.0311 17.9898 21.7971 17.9693C21.5833 17.9484 21.3643 17.9199 21.1304 17.881C17.1662 17.2085 14.2631 13.7777 14.2558 9.75719ZM23.254 19.4723V39.7512C23.254 40.1653 22.9182 40.501 22.5041 40.501C22.09 40.501 21.7543 40.1653 21.7543 39.7512V19.4723C22.2533 19.5166 22.7553 19.5166 23.254 19.4723ZM20.2546 38.3067V39.7512C20.2546 40.9935 21.2618 42.0007 22.5041 42.0007C23.7468 42.0007 24.7537 40.9935 24.7537 39.7512V38.3067C31.1574 38.6106 34.5017 40.1133 34.5017 40.8759C34.5017 41.7667 30.2673 43.5004 22.5041 43.5004C14.7409 43.5004 10.5065 41.7667 10.5065 40.8759C10.5065 40.1133 13.8508 38.6106 20.2546 38.3067Z" fill="#6B6B6B"/>
</g>
<defs>
<clipPath id="clip0">
<rect width="45" height="45" fill="white"/>
</clipPath>
</defs>
</svg>
