<svg width="45" height="45" viewBox="0 0 45 45" fill="none" xmlns="http://www.w3.org/2000/svg">
<g clip-path="url(#clip0)">
<path d="M26.434 34.312V26.2435C26.434 25.8804 26.1396 25.5861 25.7766 25.5861C25.4135 25.5861 25.1191 25.8804 25.1191 26.2435V34.312C25.1191 34.6751 25.4135 34.9694 25.7766 34.9694C26.1396 34.9694 26.434 34.6751 26.434 34.312Z" fill="#6B6B6B"/>
<path d="M44.1328 8.76806H42.5484V5.84543C42.5484 5.40105 42.1869 5.03956 41.7425 5.03956H38.6593V1.09573C38.6593 0.491572 38.1677 0 37.5636 0H7.43658C6.83242 0 6.34085 0.491572 6.34085 1.09573V5.03947H3.49829C3.05392 5.03947 2.69242 5.40097 2.69242 5.84534V8.76806H0.867285C0.404893 8.76806 0.0288086 9.14423 0.0288086 9.60653V12.1779C0.0288086 12.6403 0.40498 13.0164 0.867285 13.0164H1.16488V44.3424C1.16488 44.7055 1.45923 44.9998 1.8223 44.9998H43.1778C43.541 44.9998 43.8353 44.7055 43.8353 44.3424V34.3121C43.8353 33.949 43.5409 33.6546 43.1778 33.6546C42.8147 33.6546 42.5204 33.949 42.5204 34.3121V43.6852H40.6108V38.0991V22.4566V16.5507C40.6108 16.002 40.1644 15.5556 39.6157 15.5556H28.3178H22.057C21.6938 15.5556 21.3996 15.8499 21.3996 16.213C21.3996 16.5761 21.6939 16.8704 22.057 16.8704H27.6604V43.6851H17.3397V16.8705H19.0017C19.3648 16.8705 19.6591 16.5762 19.6591 16.2131C19.6591 15.85 19.3647 15.5557 19.0017 15.5557H16.6823H5.38442C4.83572 15.5557 4.38933 16.0021 4.38933 16.5508V43.6852H2.47973V13.0166H42.5203V31.2431C42.5203 31.6062 42.8147 31.9005 43.1777 31.9005C43.5409 31.9005 43.8352 31.6062 43.8352 31.2431V13.0165H44.1328C44.5951 13.0165 44.9712 12.6403 44.9712 12.178V9.60662C44.9713 9.14423 44.5952 8.76806 44.1328 8.76806ZM28.9752 16.8705H39.2959V21.7992H28.9752V16.8705ZM28.9752 23.114H39.2959V37.4416H28.9752V23.114ZM28.9752 38.7565H39.2959V43.6852H28.9752V38.7565ZM5.70426 16.8705H16.0249V21.7992H5.70426V16.8705ZM5.70426 23.114H16.0249V37.4416H5.70426V23.114ZM5.70426 38.7565H16.0249V43.6852H5.70426V38.7565ZM38.6593 6.3544H41.2336V8.76806H38.6593V6.3544ZM7.65578 1.31493H37.3444V8.76814H7.65578V1.31493ZM4.00727 6.3544H6.34085V8.76806H4.00727V6.3544ZM43.6565 11.7017H1.34365V10.083H43.6564V11.7017H43.6565Z" fill="#6B6B6B"/>
</g>
<defs>
<clipPath id="clip0">
<rect width="45" height="45" fill="white"/>
</clipPath>
</defs>
</svg>
