<svg width="45" height="45" viewBox="0 0 45 45" fill="none" xmlns="http://www.w3.org/2000/svg">
<g clip-path="url(#clip0)">
<path d="M30.5282 25.8204C30.0809 25.7344 28.8674 25.5007 28.3136 25.3942C27.6455 25.2656 27.1605 24.6785 27.1605 23.9982V23.1663C27.6444 22.8698 28.1108 22.5253 28.5585 22.1318C30.1472 20.7353 31.1286 18.7548 31.3268 16.5491C32.4872 16.5092 33.4167 15.5422 33.4117 14.3635L33.4048 12.69C33.4026 12.1712 33.2161 11.6746 32.8853 11.2849V9.23377C32.8853 8.86515 32.5864 8.56633 32.2178 8.56633C31.8492 8.56633 31.5504 8.86515 31.5504 9.23377V10.6633C25.4692 8.95366 19.5293 8.95357 13.4488 10.6633V7.20235C13.4488 4.96158 14.9667 3.01533 17.1399 2.46935L20.8454 1.53859C21.9276 1.26683 23.0716 1.26683 24.1537 1.53859L27.8592 2.46935C29.6759 2.92568 31.0875 4.40629 31.4552 6.24135C31.5276 6.60276 31.8795 6.83699 32.2408 6.76466C32.6022 6.69223 32.8365 6.3405 32.7641 5.97909C32.2956 3.64164 30.498 1.75586 28.1844 1.17472L24.4789 0.243962C23.184 -0.0813208 21.8151 -0.0813208 20.5201 0.243962L16.8146 1.17472C14.0469 1.86994 12.1138 4.34863 12.1138 7.20235V11.285C11.783 11.6747 11.5965 12.1713 11.5943 12.6901L11.5874 14.3636C11.5824 15.5422 12.5119 16.5092 13.6723 16.5492C13.8705 18.755 14.8519 20.7354 16.4406 22.1319C16.8882 22.5254 17.3547 22.8698 17.8386 23.1664V23.9982C17.8386 24.6199 17.4569 25.1988 16.6916 25.3925L14.471 25.8206C8.3434 26.9998 3.92285 32.386 3.92285 38.5922V41.3085C3.92285 43.344 5.57889 45.0002 7.61452 45.0002H37.3847C39.4202 45.0002 41.0763 43.3441 41.0763 41.3085V38.5922C41.0763 32.3617 36.6323 26.9951 30.5282 25.8204ZM30.7543 27.234C31.4747 27.4041 32.1668 27.6401 32.8251 27.9342V35.4435C32.3865 35.1464 31.8579 34.9726 31.2895 34.9726H30.7544V27.234H30.7543ZM30.9161 11.8715C30.227 12.5501 29.4239 13.6161 27.7952 13.3347C26.0134 13.0275 24.2567 12.8738 22.4996 12.8738C20.7429 12.8738 18.9859 13.0275 17.2044 13.3347C15.5877 13.6137 14.7773 12.5559 14.0804 11.8722C19.7329 10.3316 25.2629 10.3313 30.9161 11.8715ZM17.322 21.1291C15.9784 19.9481 15.1527 18.2589 14.9971 16.3727C14.9428 15.7158 14.4039 15.2182 13.7435 15.2154C13.2887 15.2135 12.9204 14.8338 12.9223 14.369L12.9293 12.6955C12.9294 12.67 12.9313 12.6448 12.9337 12.6197C13.9564 13.6093 15.1039 15.0516 17.4312 14.6502C20.8419 14.062 24.1577 14.062 27.5682 14.6503C29.981 15.0663 31.209 13.4448 32.0653 12.6162C32.0679 12.6424 32.0698 12.6689 32.0699 12.6955L32.0769 14.369C32.0788 14.8338 31.7104 15.2134 31.2558 15.2154C30.5954 15.2182 30.0564 15.7158 30.0022 16.3728C29.8465 18.2589 29.0209 19.9482 27.6772 21.1292C24.6033 23.8311 20.427 23.8585 17.322 21.1291ZM27.1099 26.3274L25.982 27.2335C24.0651 28.7735 21.2904 28.7636 19.3846 27.2097L18.1126 26.1727C19.3001 25.2519 19.1634 23.8872 19.1735 23.8417C21.3476 24.7269 23.6254 24.7375 25.8256 23.8417C25.8334 23.8721 25.6937 25.4298 27.1099 26.3274ZM15.7507 26.9335L16.7075 26.7494L18.541 28.2443C20.9331 30.1947 24.3862 30.228 26.818 28.2741L28.6339 26.8153L29.4193 26.9665V34.9727H15.7507V26.9335ZM10.4047 39.0986C9.99768 39.5899 9.77355 40.2118 9.77355 40.8498V43.6651H7.61452C6.31506 43.6651 5.25782 42.6079 5.25782 41.3084V39.0725H10.4263L10.4047 39.0986ZM11.0102 37.7376H5.28955C5.57317 33.8644 7.76842 30.4478 11.0101 28.5352V30.4653C11.0101 30.8339 11.3089 31.1328 11.6775 31.1328C12.0461 31.1328 12.345 30.8339 12.345 30.4653V27.8595C13.0042 27.5776 13.6963 27.3538 14.4158 27.1953V34.9727H13.8727C13.3076 34.9727 12.782 35.1445 12.345 35.4384V33.5856C12.345 33.217 12.0461 32.9182 11.6775 32.9182C11.3089 32.9182 11.0101 33.217 11.0101 33.5856V37.7376H11.0102ZM33.8908 43.6651H11.1083V40.8498C11.1083 40.1294 11.6021 39.8029 11.8317 39.4686C12.2421 38.9732 12.4628 38.3456 12.4628 37.7174C12.4628 36.9401 13.0953 36.3076 13.8727 36.3076H31.2894C32.0667 36.3076 32.6992 36.9401 32.6992 37.7174C32.7067 37.7675 32.6285 38.5867 33.2258 39.4062C33.4764 39.81 33.8907 40.1173 33.8907 40.7777V43.6651H33.8908ZM34.16 37.7376V28.638C37.3078 30.5688 39.431 33.9329 39.7096 37.7376H34.16ZM39.7414 41.3083C39.7414 42.6078 38.6841 43.665 37.3847 43.665H35.2257V40.7777C35.2257 40.1929 35.0436 39.6339 34.6992 39.1611L34.6346 39.0725H39.7414V41.3083Z" fill="#6B6B6B"/>
<path d="M20.0215 3.64374C19.1551 3.64374 18.4502 4.34862 18.4502 5.21505V6.3738C18.4502 7.24022 19.1551 7.9451 20.0215 7.9451H24.9773C25.8437 7.9451 26.5486 7.24022 26.5486 6.3738V5.21505C26.5486 4.34862 25.8437 3.64374 24.9773 3.64374H20.0215ZM25.2137 5.21505V6.3738C25.2137 6.50414 25.1077 6.61022 24.9773 6.61022H20.0215C19.8912 6.61022 19.7851 6.50423 19.7851 6.3738V5.21505C19.7851 5.0847 19.8911 4.97862 20.0215 4.97862H24.9773C25.1076 4.97862 25.2137 5.0847 25.2137 5.21505Z" fill="#6B6B6B"/>
</g>
<defs>
<clipPath id="clip0">
<rect width="45" height="45" fill="white"/>
</clipPath>
</defs>
</svg>
