<svg width="118" height="108" viewBox="0 0 118 108" fill="none" xmlns="http://www.w3.org/2000/svg">
<path d="M116 62H78.5V49.5L81 46.5H114L116 49.5V62Z" fill="#2CB483"/>
<path d="M83.9375 59.3633H111.23C111.547 59.3633 111.852 59.2373 112.076 59.0132C112.3 58.789 112.426 58.485 112.426 58.168V51.3945C112.426 51.0775 112.3 50.7735 112.076 50.5493C111.852 50.3252 111.547 50.1992 111.23 50.1992H83.9375C83.6205 50.1992 83.3165 50.3252 83.0923 50.5493C82.8681 50.7735 82.7422 51.0775 82.7422 51.3945V58.168C82.7422 58.485 82.8681 58.789 83.0923 59.0132C83.3165 59.2373 83.6205 59.3633 83.9375 59.3633ZM85.1328 52.5898H109.836V56.9727H85.1328V52.5898Z" fill="white"/>
<path d="M94.2969 74.3047H100.672C100.989 74.3047 101.293 74.1788 101.517 73.9546C101.741 73.7304 101.867 73.4264 101.867 73.1094V67.332C101.867 67.015 101.741 66.711 101.517 66.4868C101.293 66.2627 100.989 66.1367 100.672 66.1367H94.2969C93.9799 66.1367 93.6758 66.2627 93.4517 66.4868C93.2275 66.711 93.1016 67.015 93.1016 67.332V73.1094C93.1016 73.4264 93.2275 73.7304 93.4517 73.9546C93.6758 74.1788 93.9799 74.3047 94.2969 74.3047ZM95.4922 68.5273H99.4766V71.9141H95.4922V68.5273Z" fill="#8E9AB1"/>
<path d="M94.2969 84.4648H100.672C100.989 84.4648 101.293 84.3389 101.517 84.1147C101.741 83.8906 101.867 83.5865 101.867 83.2695V77.4922C101.867 77.1752 101.741 76.8711 101.517 76.647C101.293 76.4228 100.989 76.2969 100.672 76.2969H94.2969C93.9799 76.2969 93.6758 76.4228 93.4517 76.647C93.2275 76.8711 93.1016 77.1752 93.1016 77.4922V83.2695C93.1016 83.5865 93.2275 83.8906 93.4517 84.1147C93.6758 84.3389 93.9799 84.4648 94.2969 84.4648ZM95.4922 78.6875H99.4766V82.2734H95.4922V78.6875Z" fill="#8E9AB1"/>
<path d="M94.2969 94.8242H100.672C100.989 94.8242 101.293 94.6983 101.517 94.4741C101.741 94.25 101.867 93.9459 101.867 93.6289V87.8516C101.867 87.5345 101.741 87.2305 101.517 87.0063C101.293 86.7822 100.989 86.6562 100.672 86.6562H94.2969C93.9799 86.6562 93.6758 86.7822 93.4517 87.0063C93.2275 87.2305 93.1016 87.5345 93.1016 87.8516V93.6289C93.1016 93.9459 93.2275 94.25 93.4517 94.4741C93.6758 94.6983 93.9799 94.8242 94.2969 94.8242ZM95.4922 89.0469H99.4766V92.4336H95.4922V89.0469Z" fill="#8E9AB1"/>
<path d="M84.3359 74.3047H90.7109C91.028 74.3047 91.332 74.1788 91.5562 73.9546C91.7803 73.7304 91.9062 73.4264 91.9062 73.1094V67.332C91.9062 67.015 91.7803 66.711 91.5562 66.4868C91.332 66.2627 91.028 66.1367 90.7109 66.1367H84.3359C84.0189 66.1367 83.7149 66.2627 83.4907 66.4868C83.2666 66.711 83.1406 67.015 83.1406 67.332V73.1094C83.1406 73.4264 83.2666 73.7304 83.4907 73.9546C83.7149 74.1788 84.0189 74.3047 84.3359 74.3047ZM85.5312 68.5273H89.3164V71.9141H85.5312V68.5273Z" fill="#8E9AB1"/>
<path d="M84.3359 84.4648H90.7109C91.028 84.4648 91.332 84.3389 91.5562 84.1147C91.7803 83.8906 91.9062 83.5865 91.9062 83.2695V77.4922C91.9062 77.1752 91.7803 76.8711 91.5562 76.647C91.332 76.4228 91.028 76.2969 90.7109 76.2969H84.3359C84.0189 76.2969 83.7149 76.4228 83.4907 76.647C83.2666 76.8711 83.1406 77.1752 83.1406 77.4922V83.2695C83.1406 83.5865 83.2666 83.8906 83.4907 84.1147C83.7149 84.3389 84.0189 84.4648 84.3359 84.4648ZM85.5312 78.6875H89.3164V82.2734H85.5312V78.6875Z" fill="#8E9AB1"/>
<path d="M84.3359 94.8242H90.7109C91.028 94.8242 91.332 94.6983 91.5562 94.4741C91.7803 94.25 91.9062 93.9459 91.9062 93.6289V87.8516C91.9062 87.5345 91.7803 87.2305 91.5562 87.0063C91.332 86.7822 91.028 86.6562 90.7109 86.6562H84.3359C84.0189 86.6562 83.7149 86.7822 83.4907 87.0063C83.2666 87.2305 83.1406 87.5345 83.1406 87.8516V93.6289C83.1406 93.9459 83.2666 94.25 83.4907 94.4741C83.7149 94.6983 84.0189 94.8242 84.3359 94.8242ZM85.5312 89.0469H89.3164V92.4336H85.5312V89.0469Z" fill="#8E9AB1"/>
<path d="M104.457 74.3047H110.832C111.149 74.3047 111.453 74.1788 111.677 73.9546C111.901 73.7304 112.027 73.4264 112.027 73.1094V67.332C112.027 67.015 111.901 66.711 111.677 66.4868C111.453 66.2627 111.149 66.1367 110.832 66.1367H104.457C104.14 66.1367 103.836 66.2627 103.612 66.4868C103.388 66.711 103.262 67.015 103.262 67.332V73.1094C103.262 73.4264 103.388 73.7304 103.612 73.9546C103.836 74.1788 104.14 74.3047 104.457 74.3047ZM105.652 68.5273H109.438V71.9141H105.652V68.5273Z" fill="#8E9AB1"/>
<path d="M104.457 84.4648H110.832C111.149 84.4648 111.453 84.3389 111.677 84.1147C111.901 83.8906 112.027 83.5865 112.027 83.2695V77.4922C112.027 77.1752 111.901 76.8711 111.677 76.647C111.453 76.4228 111.149 76.2969 110.832 76.2969H104.457C104.14 76.2969 103.836 76.4228 103.612 76.647C103.388 76.8711 103.262 77.1752 103.262 77.4922V83.2695C103.262 83.5865 103.388 83.8906 103.612 84.1147C103.836 84.3389 104.14 84.4648 104.457 84.4648ZM105.652 78.6875H109.438V82.2734H105.652V78.6875Z" fill="#8E9AB1"/>
<path d="M104.457 94.8242H110.832C111.149 94.8242 111.453 94.6983 111.677 94.4741C111.901 94.25 112.027 93.9459 112.027 93.6289V87.8516C112.027 87.5345 111.901 87.2305 111.677 87.0063C111.453 86.7822 111.149 86.6562 110.832 86.6562H104.457C104.14 86.6562 103.836 86.7822 103.612 87.0063C103.388 87.2305 103.262 87.5345 103.262 87.8516V93.6289C103.262 93.9459 103.388 94.25 103.612 94.4741C103.836 94.6983 104.14 94.8242 104.457 94.8242ZM105.652 89.0469H109.438V92.4336H105.652V89.0469Z" fill="#8E9AB1"/>
<path d="M19.3866 93.0312H77.1641V93.9628C77.1681 95.3524 77.7219 96.684 78.7045 97.6666C79.6871 98.6492 81.0187 99.203 82.4083 99.207H112.63C114.002 99.2068 115.319 98.6614 116.289 97.6908C117.26 96.7202 117.805 95.4039 117.805 94.0313V50.4552C117.801 49.0677 117.248 47.7381 116.267 46.7569C115.285 45.7758 113.956 45.2228 112.568 45.2188H88.5195V2.04605C88.511 1.71812 88.3776 1.40581 88.1465 1.17292C87.9155 0.94003 87.6043 0.804128 87.2764 0.792969H32.6955C32.5325 0.79832 32.3722 0.836181 32.224 0.904328C32.0758 0.972476 31.9428 1.06954 31.8326 1.18981L18.5258 15.0869C18.3126 15.3152 18.1944 15.6162 18.1953 15.9286V91.862C18.1954 92.0174 18.2264 92.1712 18.2866 92.3145C18.3468 92.4578 18.4349 92.5876 18.5458 92.6965C18.6567 92.8053 18.7882 92.891 18.9325 92.9485C19.0769 93.0059 19.2313 93.0341 19.3866 93.0312ZM112.629 47.6094C112.995 47.6094 113.357 47.6814 113.695 47.8214C114.033 47.9613 114.34 48.1665 114.598 48.4251C114.857 48.6837 115.062 48.9907 115.202 49.3286C115.342 49.6665 115.414 50.0287 115.414 50.3945V60.957H79.5547V50.4552C79.5569 49.7011 79.8574 48.9786 80.3907 48.4453C80.9239 47.9121 81.6465 47.6116 82.4005 47.6094H112.629ZM31.543 5.01999V14.7383H22.1642L31.543 5.01999ZM20.5859 17.1289H32.6955C33.0149 17.1351 33.324 17.0152 33.5557 16.7952C33.7874 16.5753 33.9232 16.2729 33.9336 15.9535V3.18359H86.1289V45.2188H82.4083C81.0187 45.2227 79.6871 45.7765 78.7045 46.7592C77.7219 47.7418 77.1681 49.0734 77.1641 50.463V69.3242C77.1641 69.6412 77.29 69.9453 77.5142 70.1694C77.7383 70.3936 78.0424 70.5195 78.3594 70.5195C78.6764 70.5195 78.9804 70.3936 79.2046 70.1694C79.4288 69.9453 79.5547 69.6412 79.5547 69.3242V63.3477H115.414V93.9696C115.412 94.7239 115.111 95.4468 114.578 95.9802C114.044 96.5136 113.322 96.8143 112.567 96.8164H82.4083C81.6522 96.8142 80.9276 96.5128 80.3929 95.9782C79.8583 95.4435 79.5569 94.7189 79.5547 93.9628V77.6914C79.5547 77.3744 79.4288 77.0704 79.2046 76.8462C78.9804 76.622 78.6764 76.4961 78.3594 76.4961C78.0424 76.4961 77.7383 76.622 77.5142 76.8462C77.29 77.0704 77.1641 77.3744 77.1641 77.6914V90.6406H20.5859V17.1289Z" fill="#8E9AB1"/>
<path d="M33.8402 78.0898H33.3728C33.0558 78.0898 32.7518 78.2158 32.5276 78.4399C32.3034 78.6641 32.1775 78.9681 32.1775 79.2852C32.1775 79.6022 32.3034 79.9062 32.5276 80.1304C32.7518 80.3545 33.0558 80.4805 33.3728 80.4805H33.8402C34.1572 80.4805 34.4612 80.3545 34.6854 80.1304C34.9095 79.9062 35.0355 79.6022 35.0355 79.2852C35.0355 78.9681 34.9095 78.6641 34.6854 78.4399C34.4612 78.2158 34.1572 78.0898 33.8402 78.0898Z" fill="#8E9AB1"/>
<path d="M42.037 78.0898H38.5051C38.188 78.0898 37.884 78.2158 37.6599 78.4399C37.4357 78.6641 37.3098 78.9681 37.3098 79.2852C37.3098 79.6022 37.4357 79.9062 37.6599 80.1304C37.884 80.3545 38.188 80.4805 38.5051 80.4805H42.037C42.354 80.4805 42.6581 80.3545 42.8822 80.1304C43.1064 79.9062 43.2323 79.6022 43.2323 79.2852C43.2323 78.9681 43.1064 78.6641 42.8822 78.4399C42.6581 78.2158 42.354 78.0898 42.037 78.0898Z" fill="#8E9AB1"/>
<path d="M72.0951 78.0898H46.7774C46.4604 78.0898 46.1564 78.2158 45.9322 78.4399C45.708 78.6641 45.5821 78.9681 45.5821 79.2852C45.5821 79.6022 45.708 79.9062 45.9322 80.1304C46.1564 80.3545 46.4604 80.4805 46.7774 80.4805H72.0951C72.4121 80.4805 72.7162 80.3545 72.9403 80.1304C73.1645 79.9062 73.2904 79.6022 73.2904 79.2852C73.2904 78.9681 73.1645 78.6641 72.9403 78.4399C72.7162 78.2158 72.4121 78.0898 72.0951 78.0898Z" fill="#8E9AB1"/>
<path d="M33.8402 68.1289H33.3728C33.0558 68.1289 32.7518 68.2548 32.5276 68.479C32.3034 68.7032 32.1775 69.0072 32.1775 69.3242C32.1775 69.6412 32.3034 69.9453 32.5276 70.1694C32.7518 70.3936 33.0558 70.5195 33.3728 70.5195H33.8402C34.1572 70.5195 34.4612 70.3936 34.6854 70.1694C34.9095 69.9453 35.0355 69.6412 35.0355 69.3242C35.0355 69.0072 34.9095 68.7032 34.6854 68.479C34.4612 68.2548 34.1572 68.1289 33.8402 68.1289Z" fill="#8E9AB1"/>
<path d="M42.037 68.1289H38.5051C38.188 68.1289 37.884 68.2548 37.6599 68.479C37.4357 68.7032 37.3098 69.0072 37.3098 69.3242C37.3098 69.6412 37.4357 69.9453 37.6599 70.1694C37.884 70.3936 38.188 70.5195 38.5051 70.5195H42.037C42.354 70.5195 42.6581 70.3936 42.8822 70.1694C43.1064 69.9453 43.2323 69.6412 43.2323 69.3242C43.2323 69.0072 43.1064 68.7032 42.8822 68.479C42.6581 68.2548 42.354 68.1289 42.037 68.1289Z" fill="#8E9AB1"/>
<path d="M72.0951 68.1289H46.7774C46.4604 68.1289 46.1564 68.2548 45.9322 68.479C45.708 68.7032 45.5821 69.0072 45.5821 69.3242C45.5821 69.6412 45.708 69.9453 45.9322 70.1694C46.1564 70.3936 46.4604 70.5195 46.7774 70.5195H72.0951C72.4121 70.5195 72.7162 70.3936 72.9403 70.1694C73.1645 69.9453 73.2904 69.6412 73.2904 69.3242C73.2904 69.0072 73.1645 68.7032 72.9403 68.479C72.7162 68.2548 72.4121 68.1289 72.0951 68.1289Z" fill="#8E9AB1"/>
<path d="M24.7695 20.8463C24.4525 20.8463 24.1485 20.9722 23.9243 21.1964C23.7002 21.4206 23.5742 21.7246 23.5742 22.0416V23.4521C23.5742 23.7691 23.7002 24.0731 23.9243 24.2973C24.1485 24.5215 24.4525 24.6474 24.7695 24.6474C25.0865 24.6474 25.3906 24.5215 25.6147 24.2973C25.8389 24.0731 25.9648 23.7691 25.9648 23.4521V22.0416C25.9648 21.7246 25.8389 21.4206 25.6147 21.1964C25.3906 20.9722 25.0865 20.8463 24.7695 20.8463Z" fill="#8E9AB1"/>
<path d="M24.7695 27.0068C24.4525 27.0068 24.1485 27.1327 23.9243 27.3569C23.7002 27.581 23.5742 27.8851 23.5742 28.2021V47.803C23.5742 48.12 23.7002 48.4241 23.9243 48.6482C24.1485 48.8724 24.4525 48.9983 24.7695 48.9983C25.0865 48.9983 25.3906 48.8724 25.6147 48.6482C25.8389 48.4241 25.9648 48.12 25.9648 47.803V28.2021C25.9648 27.8851 25.8389 27.581 25.6147 27.3569C25.3906 27.1327 25.0865 27.0068 24.7695 27.0068Z" fill="#8E9AB1"/>
<path d="M52.5 38.5L40.5 21C52.9 13 63.6667 19.3333 67.5 23.5L52.5 38.5Z" fill="#2CB483"/>
<path d="M53.4401 16.0731C49.9422 15.9619 46.4673 16.6757 43.2965 18.1568C40.1258 19.6379 37.3482 21.8446 35.1886 24.5985C35.0064 24.8474 34.9275 25.1572 34.9684 25.4631C35.0093 25.7689 35.167 26.047 35.4083 26.2393C35.6496 26.4316 35.9559 26.5231 36.2631 26.4947C36.5704 26.4664 36.8547 26.3203 37.0567 26.087C37.9917 24.8985 39.0577 23.8192 40.2347 22.8696L51.6588 39.8122C51.8812 40.1409 52.2521 40.4375 52.6492 40.4375H72.5621C72.2787 43.178 71.4304 45.83 70.0706 48.2261C68.7108 50.6222 66.8691 52.7105 64.6617 54.3591C62.4544 56.0077 59.9292 57.1808 57.2457 57.8045C54.5621 58.4282 51.7784 58.4888 49.0703 57.9826C46.3621 57.4764 43.7883 56.4144 41.5112 54.8635C39.2341 53.3126 37.3032 51.3065 35.8403 48.9719C34.3775 46.6373 33.4145 44.0247 33.012 41.2992C32.6095 38.5737 32.7764 35.7944 33.5021 33.1366C33.5741 32.8791 33.5579 32.6049 33.456 32.3577C33.3542 32.1104 33.1726 31.9044 32.9401 31.7723L32.9375 31.7715C32.7799 31.6824 32.6041 31.6303 32.4235 31.6192C32.2428 31.6081 32.062 31.6382 31.8946 31.7073C31.7273 31.7764 31.5779 31.8827 31.4578 32.0181C31.3376 32.1534 31.2498 32.3144 31.2011 32.4887C30.6226 34.599 30.3581 36.7829 30.4162 38.9703C30.7285 51.1503 40.8917 60.8945 53.0743 60.7118C56.0397 60.6634 58.9659 60.0253 61.6822 58.8346C64.3986 57.6439 66.8508 55.9245 68.896 53.7766C70.9411 51.6287 72.5384 49.0953 73.5946 46.3239C74.6509 43.5525 75.145 40.5986 75.0481 37.6343C74.6592 25.9272 65.1471 16.4363 53.4401 16.0731ZM42.146 21.5032C45.7949 19.2076 50.0916 18.1612 54.3875 18.5218C58.6834 18.8825 62.7454 20.6307 65.9606 23.5026L52.735 37.2313L42.146 21.5032ZM55.2687 38.0469L67.6485 25.1961C70.8031 28.7424 72.5829 33.3014 72.6655 38.0469H55.2687Z" fill="#8E9AB1"/>
<circle cx="20.5" cy="87.5" r="20.5" fill="#209068"/>
<path d="M20.0312 80.7H22.3112V94H19.6892V83.474L17.1812 84.177L16.5352 81.935L20.0312 80.7Z" fill="white"/>
</svg>
