<svg width="132" height="120" viewBox="0 0 132 120" fill="none" xmlns="http://www.w3.org/2000/svg">
<path d="M31.7924 18.4916L37.2082 17.288L29.9871 10.6686L21.5624 14.2792L19.7571 22.7039L22.7659 25.7127L25.7747 21.5003L25.7747 20.2968L26.3765 17.8897L28.7835 17.288L31.7924 18.4916Z" fill="#2CB483"/>
<path d="M37.6924 15.1139L31.4946 10.1715C30.8002 9.61777 29.8558 9.47541 29.0292 9.79987L21.6496 12.696C20.8232 13.0204 20.2277 13.7674 20.0953 14.6454L18.9139 22.4841C18.7815 23.3621 19.1305 24.2512 19.8247 24.8051L26.0227 29.7475C26.3699 30.0244 26.7795 30.1983 27.2058 30.2626C27.6322 30.3268 28.0749 30.2814 28.4883 30.1192L35.8675 27.223C36.694 26.8987 37.2898 26.1516 37.4221 25.2737L38.6036 17.4349C38.7356 16.5569 38.3865 15.6676 37.6924 15.1139ZM35.1492 24.9313C35.1388 24.9999 35.0922 25.0584 35.0275 25.0838L27.6483 27.98C27.5835 28.0054 27.5096 27.9942 27.4554 27.9509L21.2576 23.0084C21.2032 22.9651 21.1759 22.8955 21.1863 22.8268L22.3677 14.988C22.3781 14.9194 22.4247 14.8609 22.4893 14.8354L29.8687 11.9393C29.9009 11.9267 29.9357 11.9231 29.9691 11.9281C30.0024 11.9331 30.0344 11.9468 30.0617 11.9684L36.2595 16.9109C36.3138 16.9542 36.3412 17.0237 36.3308 17.0925L35.1493 24.9313L35.1492 24.9313Z" fill="#8E9AB1"/>
<path d="M29.3907 15.7655C27.078 15.4169 24.9128 17.0149 24.5642 19.3276C24.2157 21.6404 25.8137 23.8053 28.1264 24.1539C30.4391 24.5025 32.6041 22.9047 32.9527 20.5919C33.3012 18.2792 31.7034 16.1141 29.3907 15.7655ZM28.4689 21.8812C27.4093 21.7215 26.6771 20.7296 26.8369 19.67C26.9966 18.6104 27.9884 17.8782 29.0482 18.038C30.1077 18.1976 30.8398 19.1895 30.6801 20.2493C30.5204 21.3089 29.5284 22.0409 28.4689 21.8812Z" fill="#8E9AB1"/>
<path d="M120.853 45.571L112.533 43.512L105.558 50.3898L108.738 58.986L117.061 61.2143L120.218 58.3612L123.26 54.3603L122.658 51.9259L120.853 45.571Z" fill="#2CB483"/>
<circle cx="114.836" cy="52.1903" r="3.00882" fill="white"/>
<path d="M110.386 42.9185L105.137 48.8589C104.549 49.5244 104.36 50.4605 104.642 51.3024L107.162 58.8187C107.444 59.6605 108.16 60.293 109.03 60.4695L116.799 62.0452C117.669 62.2216 118.575 61.918 119.163 61.2526L124.412 55.3121C124.706 54.9793 124.901 54.579 124.986 54.1564C125.072 53.7339 125.049 53.2894 124.908 52.8684L122.388 45.3524C122.106 44.5105 121.39 43.8778 120.52 43.7014L112.751 42.1257C111.88 41.9495 110.974 42.2532 110.386 42.9185ZM120.063 45.9541C120.131 45.9679 120.187 46.0174 120.209 46.0833L122.729 53.5993C122.751 53.6653 122.736 53.7385 122.69 53.7905L117.441 59.7309C117.395 59.783 117.324 59.8068 117.256 59.7929L109.487 58.2173C109.419 58.2035 109.363 58.154 109.341 58.0882L106.821 50.572C106.81 50.5391 106.808 50.5042 106.815 50.4712C106.822 50.4381 106.837 50.4068 106.86 50.3807L112.109 44.4403C112.155 44.3882 112.226 44.3644 112.294 44.3783L120.063 45.9539L120.063 45.9541Z" fill="#8E9AB1"/>
<path d="M110.618 51.2426C110.153 53.5348 111.64 55.7778 113.932 56.2427C116.224 56.7076 118.467 55.2209 118.932 52.9287C119.397 50.6366 117.91 48.3937 115.618 47.9288C113.326 47.4639 111.083 48.9504 110.618 51.2426ZM116.679 52.4719C116.466 53.5221 115.439 54.2033 114.389 53.9903C113.338 53.7773 112.657 52.7497 112.87 51.6994C113.083 50.6493 114.111 49.9681 115.161 50.1812C116.211 50.3942 116.892 51.4218 116.679 52.4719Z" fill="#8E9AB1"/>
<path d="M67.1198 31.5307C66.6527 31.1011 65.9258 31.1312 65.4962 31.5983L64.2872 32.9124C63.8574 33.3795 63.8877 34.1064 64.3548 34.5359C64.5884 34.7508 64.8868 34.8506 65.1807 34.8384C65.4745 34.8261 65.7637 34.7018 65.9785 34.4684L67.1875 33.1542C67.6172 32.6872 67.5868 31.9602 67.1198 31.5307Z" fill="#8E9AB1"/>
<path d="M68.4419 37.8389C68.7357 37.8266 69.0249 37.7023 69.2398 37.4687L70.4487 36.1544C70.8784 35.6873 70.848 34.9604 70.3808 34.5309C69.9139 34.1014 69.187 34.1315 68.7573 34.5987L67.5484 35.913C67.1188 36.3801 67.1491 37.107 67.6163 37.5365C67.8496 37.7512 68.1482 37.8511 68.4419 37.8389Z" fill="#8E9AB1"/>
<path d="M72.0188 37.5988L70.8099 38.9131C70.3802 39.3801 70.4105 40.1071 70.8778 40.5366C71.1112 40.7514 71.4098 40.8512 71.7035 40.8389C71.9973 40.8267 72.2865 40.7023 72.5014 40.4687L73.7103 39.1545C74.14 38.6874 74.1097 37.9604 73.6425 37.5309C73.1756 37.1014 72.4486 37.1316 72.0188 37.5988Z" fill="#8E9AB1"/>
<path d="M74.1388 43.5372C74.3724 43.7519 74.671 43.8517 74.9648 43.8395C75.2585 43.8272 75.5478 43.7029 75.7627 43.4695L76.9717 42.1552C77.4014 41.688 77.371 40.9612 76.904 40.5315C76.4368 40.102 75.71 40.1323 75.2803 40.5992L74.0713 41.9135C73.6414 42.3806 73.6718 43.1074 74.1388 43.5372Z" fill="#8E9AB1"/>
<path d="M34.871 74.7076L32.841 76.9142C32.4112 77.3813 32.4415 78.1083 32.9086 78.5378C33.3755 78.9674 34.1025 78.9375 34.5322 78.4703L36.5622 76.2637C36.992 75.7966 36.9617 75.0696 36.4946 74.6401C36.0276 74.2106 35.3007 74.2406 34.871 74.7076Z" fill="#8E9AB1"/>
<path d="M73.8437 50.7285C80.7042 51.8556 87.6402 49.4914 92.3746 44.3448C97.9474 38.2873 99.2385 29.7409 96.2591 22.5154C96.1093 22.1525 95.7848 21.8911 95.3982 21.8223C95.0117 21.7536 94.6169 21.8868 94.3509 22.1756L85.3134 32L77.3576 30.22L74.9211 22.4401L76.0047 21.2624C76.4343 20.7951 76.404 20.0683 75.9369 19.6386C75.4699 19.2092 74.743 19.2393 74.3132 19.7063L72.7806 21.3723C72.5026 21.6747 72.4071 22.102 72.5299 22.4938L75.3629 31.54C75.4855 31.9317 75.808 32.2282 76.2086 32.3179L85.4593 34.3877C85.8599 34.4771 86.278 34.3466 86.556 34.0444L94.7519 25.1349C96.5781 31.2676 95.0667 38.0245 90.6836 42.7889C86.4917 47.3459 80.336 49.4665 74.2167 48.4609C70.8466 47.9072 67.4315 49.1907 65.3039 51.8107L42.0698 80.4155C42.0665 80.4195 42.0631 80.4238 42.0599 80.4279C41.3376 81.3427 40.4486 82.074 39.4177 82.6013C38.8526 82.8901 38.6289 83.5826 38.9179 84.1475C39.2072 84.7132 39.8997 84.936 40.4641 84.6473C41.7888 83.9698 42.931 83.0315 43.8587 81.8583L67.0878 53.2595C68.6967 51.2781 71.2851 50.3077 73.8437 50.7285Z" fill="#8E9AB1"/>
<path d="M35.4289 83.4754C33.5286 83.4007 31.7108 82.6501 30.3107 81.3619C26.8853 78.2111 26.8234 72.7922 30.2635 69.5763C30.2674 69.5728 30.2713 69.5691 30.275 69.5654L56.8458 44.0301C59.2793 41.6915 60.2739 38.1813 59.4417 34.8691C57.9302 28.8551 59.5305 22.5441 63.7226 17.9872C68.1055 13.2226 74.7126 11.1535 80.9765 12.463L77.4236 16.325C76.9939 16.7922 77.0242 17.5191 77.4913 17.9488C77.9586 18.3783 78.6854 18.348 79.1151 17.881L83.9588 12.6157C84.2246 12.3268 84.3244 11.922 84.2236 11.5426C84.1228 11.1631 83.8353 10.8615 83.4612 10.7424C76.012 8.37488 67.6037 10.3736 62.0311 16.4311C57.3132 21.5597 55.5119 28.6616 57.2128 35.429C57.8446 37.9435 57.0938 40.6043 55.2534 42.373L28.688 67.9032C24.3064 72.0056 24.333 78.9857 28.7546 83.0532C30.5557 84.7102 32.8939 85.6757 35.3385 85.7719C35.971 85.7964 36.5068 85.3045 36.5318 84.6687C36.5569 84.0345 36.0631 83.5003 35.4289 83.4754Z" fill="#8E9AB1"/>
<rect x="20.3588" y="57.6061" width="49.3446" height="39.7164" fill="white"/>
<path d="M76.9246 79.8714V67.2343L86.5528 66.6326L93.1722 79.8714H76.9246Z" fill="#2CB483"/>
<path d="M79.3316 78.6679V67.2344H76.9246V78.6679H79.3316Z" fill="#23A878"/>
<path d="M54.0576 79.2696V66.6326H70.3052V79.2696H54.0576Z" fill="#2CB483"/>
<path d="M54.0576 79.2696V66.0308H57.6682V79.2696H54.0576Z" fill="#23A878"/>
<path d="M94.8721 80.5232C94.9993 80.308 95.0683 80.0634 95.0721 79.8135C95.076 79.5635 95.0147 79.3169 94.8942 79.0978L87.571 65.7278C87.4497 65.4953 87.2694 65.2988 87.0481 65.158C86.8268 65.0173 86.5724 64.9373 86.3103 64.926H76.1484C75.3538 64.926 74.7338 65.6832 74.7338 66.4775V79.7915C74.7313 79.9791 74.766 80.1653 74.8359 80.3394C74.9058 80.5135 75.0095 80.672 75.1411 80.8058C75.2726 80.9396 75.4293 81.0459 75.6022 81.1188C75.7751 81.1916 75.9608 81.2294 76.1484 81.2301H93.6328C93.883 81.2302 94.1289 81.1651 94.3462 81.0411C94.5636 80.9172 94.7448 80.7387 94.8721 80.5232ZM77.6109 78.3529V67.8032H85.4599L91.2004 78.3529H77.6109Z" fill="#8E9AB1"/>
<path d="M54.114 81.2301H70.6578C71.0393 81.2301 71.4053 81.0785 71.675 80.8087C71.9448 80.5389 72.0964 80.173 72.0964 79.7915V66.3646C72.0964 65.9831 71.9448 65.6172 71.675 65.3474C71.4053 65.0776 71.0393 64.926 70.6578 64.926H54.114C53.7325 64.926 53.3666 65.0776 53.0968 65.3474C52.827 65.6172 52.6754 65.9831 52.6754 66.3646V79.7915C52.6754 80.173 52.827 80.5389 53.0968 80.8087C53.3666 81.0785 53.7325 81.2301 54.114 81.2301ZM55.5526 67.8032H69.2192V78.3529H55.5526V67.8032Z" fill="#8E9AB1"/>
<path d="M127.482 97.7738H126.763V88.4949C126.754 87.5912 126.43 86.7189 125.846 86.0293C125.262 85.3397 124.454 84.8762 123.564 84.7194L102.471 80.9263C102.257 80.8887 102.053 80.8034 101.877 80.6765C101.7 80.5497 101.554 80.3846 101.449 80.1936L91.9545 62.6188C91.583 61.935 91.0331 61.3648 90.3632 60.9689C89.6932 60.5729 88.9285 60.3661 88.1504 60.3705H37.6779C37.1071 60.3686 36.5416 60.4798 36.0139 60.6975C35.4863 60.9152 35.007 61.2352 34.6036 61.6391L21.8176 74.5754C21.0117 75.3751 20.5549 76.4611 20.5469 77.5964V79.3119H18.8685V76.803C18.8783 76.3741 18.801 75.9476 18.6412 75.5494C18.4815 75.1512 18.2427 74.7895 17.9393 74.4861C17.6359 74.1828 17.2741 73.9441 16.8758 73.7845C16.4775 73.6249 16.0511 73.5477 15.6221 73.5576H11.4358C9.58483 73.5576 8.0791 74.952 8.0791 76.803V94.7681C8.0791 96.6191 9.58483 98.0136 11.4358 98.0136H15.6221C16.0511 98.0235 16.4775 97.9463 16.8758 97.7867C17.2741 97.6271 17.6359 97.3884 17.9393 97.0851C18.2427 96.7817 18.4815 96.42 18.6412 96.0218C18.801 95.6236 18.8783 95.1971 18.8685 94.7681V92.7388H20.5469V95.8557H19.9978C19.2042 95.8557 18.6288 96.5832 18.6288 97.3778V106.225C18.6222 106.407 18.653 106.589 18.7193 106.758C18.7856 106.928 18.8861 107.082 19.0144 107.211C19.1427 107.341 19.2962 107.442 19.4654 107.51C19.6345 107.577 19.8158 107.609 19.9978 107.604H28.514C28.8315 110.96 30.3888 114.076 32.8816 116.344C35.3745 118.612 38.6236 119.869 41.9939 119.869C45.3642 119.869 48.6133 118.612 51.1061 116.344C53.599 114.076 55.1563 110.96 55.4737 107.604H85.7436C86.0568 110.918 87.5798 114 90.0217 116.263C92.4636 118.525 95.6532 119.808 98.9813 119.867C102.309 119.927 105.543 118.758 108.064 116.584C110.585 114.411 112.217 111.384 112.648 108.084H127.482C127.864 108.084 128.23 107.932 128.499 107.662C128.769 107.393 128.921 107.027 128.921 106.645V99.2124C128.921 98.8309 128.769 98.465 128.499 98.1952C128.23 97.9254 127.864 97.7738 127.482 97.7738ZM15.9914 94.8967C15.9914 95.0238 15.9408 95.1458 15.8509 95.2357C15.761 95.3257 15.639 95.3762 15.5118 95.3762H11.4358C11.3086 95.3762 11.1867 95.3257 11.0967 95.2357C11.0068 95.1458 10.9563 95.0238 10.9563 94.8967V76.9143C10.9563 76.7871 11.0068 76.6651 11.0967 76.5752C11.1867 76.4853 11.3086 76.4348 11.4358 76.4348H15.5118C15.639 76.4348 15.761 76.4853 15.8509 76.5752C15.9408 76.6651 15.9914 76.7871 15.9914 76.9143V94.8967ZM20.5469 89.8616H18.8685V82.1891H20.5469V89.8616ZM23.8583 104.727H21.506V98.7329H25.4165C24.5614 100.628 24.0345 102.655 23.8583 104.727ZM41.9939 116.992C39.8846 116.992 37.8227 116.366 36.0688 115.194C34.315 114.022 32.9481 112.357 32.1409 110.408C31.3337 108.459 31.1225 106.315 31.5341 104.246C31.9456 102.177 32.9613 100.277 34.4529 98.7855C35.9444 97.2941 37.8447 96.2784 39.9134 95.8669C41.9822 95.4554 44.1266 95.6666 46.0753 96.4739C48.024 97.2811 49.6896 98.6481 50.8614 100.402C52.0333 102.156 52.6587 104.218 52.6586 106.327C52.6554 109.154 51.5308 111.865 49.5314 113.864C47.5321 115.864 44.8213 116.988 41.9939 116.992ZM55.438 104.727C55.0472 101.436 53.4627 98.4026 50.9849 96.2016C48.5071 94.0007 45.3081 92.785 41.9939 92.785C38.6797 92.785 35.4806 94.0007 33.0028 96.2016C30.525 98.4026 28.9406 101.436 28.5498 104.727H26.7429C27.1248 100.948 28.8964 97.4448 31.7142 94.8974C34.532 92.3501 38.1953 90.9397 41.9939 90.9397C45.7925 90.9397 49.4557 92.3501 52.2735 94.8974C55.0913 97.4448 56.8629 100.948 57.2449 104.727H55.438ZM99.2234 116.992C97.1141 116.992 95.0522 116.366 93.2984 115.194C91.5446 114.022 90.1777 112.357 89.3705 110.408C88.5633 108.459 88.3521 106.315 88.7636 104.246C89.1751 102.177 90.1909 100.277 91.6824 98.7855C93.1739 97.2941 95.0742 96.2784 97.143 95.8669C99.2118 95.4554 101.356 95.6666 103.305 96.4739C105.254 97.2811 106.919 98.6481 108.091 100.402C109.263 102.156 109.888 104.218 109.888 106.327C109.885 109.154 108.76 111.865 106.761 113.865C104.762 115.864 102.051 116.988 99.2234 116.992ZM112.715 105.207C112.438 101.862 110.929 98.7404 108.481 96.4458C106.032 94.1512 102.819 92.8477 99.4641 92.788C96.1091 92.7282 92.8514 93.9166 90.3229 96.1225C87.7944 98.3285 86.1752 101.395 85.7793 104.727H83.9725C84.3652 100.913 86.1735 97.3838 89.0406 94.8373C91.9076 92.2909 95.6251 90.9116 99.4593 90.9718C103.293 91.032 106.966 92.5273 109.751 95.1626C112.537 97.7979 114.234 101.382 114.507 105.207H112.715ZM99.2234 88.0917C94.6653 88.0856 90.2712 89.7923 86.9122 92.8735C83.5531 95.9546 81.4743 100.185 81.0876 104.727H60.1295C59.7447 100.181 57.6677 95.9449 54.3094 92.8568C50.9512 89.7686 46.5562 88.0533 41.9939 88.0502C35.8147 88.0502 30.348 91.3002 27.0565 95.8557H23.4241V77.5952C23.4344 77.2136 23.5937 76.8512 23.8679 76.5856L36.6383 63.6581C36.917 63.3894 37.2907 63.2418 37.6779 63.2477H88.1504C88.4085 63.2439 88.6627 63.3105 88.8858 63.4404C89.1089 63.5703 89.2923 63.7586 89.4163 63.9849L98.9065 81.5691C99.2133 82.1404 99.6458 82.6347 100.171 83.0147C100.697 83.3947 101.302 83.6505 101.94 83.7629L123.055 87.5536C123.28 87.591 123.486 87.705 123.638 87.8765C123.789 88.0479 123.877 88.2664 123.886 88.4949V91.0604H119.736C119.549 91.0676 119.364 91.1119 119.194 91.1908C119.023 91.2697 118.87 91.3815 118.743 91.5199C118.616 91.6583 118.518 91.8204 118.454 91.997C118.39 92.1736 118.362 92.3611 118.371 92.5486V97.7738H115.289C113.738 94.8568 111.425 92.4154 108.596 90.7102C105.766 89.005 102.527 88.1 99.2234 88.0917ZM123.886 93.9376V97.7738H121.248V93.9376H123.886ZM126.044 105.207H117.391C117.297 103.657 117.004 102.126 116.518 100.651H126.044V105.207Z" fill="#8E9AB1"/>
<path d="M72.8877 84.1072H53.5882C53.2067 84.1072 52.8408 84.2588 52.571 84.5286C52.3012 84.7984 52.1497 85.1643 52.1497 85.5458C52.1497 85.9274 52.3012 86.2933 52.571 86.5631C52.8408 86.8329 53.2067 86.9844 53.5882 86.9844H72.8877C73.2692 86.9844 73.6351 86.8329 73.9049 86.5631C74.1747 86.2933 74.3263 85.9274 74.3263 85.5458C74.3263 85.1643 74.1747 84.7984 73.9049 84.5286C73.6351 84.2588 73.2692 84.1072 72.8877 84.1072Z" fill="#8E9AB1"/>
<path d="M86.9705 84.347H78.1918C77.8102 84.347 77.4443 84.4985 77.1745 84.7683C76.9047 85.0381 76.7532 85.404 76.7532 85.7856C76.7532 86.1671 76.9047 86.533 77.1745 86.8028C77.4443 87.0726 77.8102 87.2242 78.1918 87.2242H86.9705C87.3521 87.2242 87.718 87.0726 87.9878 86.8028C88.2575 86.533 88.4091 86.1671 88.4091 85.7856C88.4091 85.404 88.2575 85.0381 87.9878 84.7683C87.718 84.4985 87.3521 84.347 86.9705 84.347Z" fill="#8E9AB1"/>
<path d="M93.6839 84.347H92.3379C91.9563 84.347 91.5904 84.4985 91.3206 84.7683C91.0509 85.0381 90.8993 85.404 90.8993 85.7856C90.8993 86.1671 91.0509 86.533 91.3206 86.8028C91.5904 87.0726 91.9563 87.2242 92.3379 87.2242H93.6839C94.0655 87.2242 94.4314 87.0726 94.7012 86.8028C94.9709 86.533 95.1225 86.1671 95.1225 85.7856C95.1225 85.404 94.9709 85.0381 94.7012 84.7683C94.4314 84.4985 94.0655 84.347 93.6839 84.347Z" fill="#8E9AB1"/>
<path d="M28.7836 79.2696L39.6153 66.6326H48.6418V79.8714L28.7836 79.2696Z" fill="#2CB483"/>
<path d="M28.7836 79.2696L39.6153 66.6326H42.6241L31.7924 79.2696H28.7836Z" fill="#23A878"/>
<path d="M48.5088 64.926H39.0882C38.8772 64.9367 38.6709 64.9919 38.4828 65.0881C38.2947 65.1842 38.129 65.319 37.9968 65.4837L26.565 78.8255C26.4292 78.9845 26.3294 79.1711 26.2723 79.3723C26.2152 79.5735 26.2023 79.7847 26.2343 79.9914C26.2663 80.1981 26.3426 80.3954 26.4579 80.5699C26.5732 80.7444 26.7248 80.892 26.9024 81.0025C27.1529 81.1556 27.4417 81.2345 27.7353 81.2301H45.5295C45.911 81.2301 46.2769 81.0785 46.5467 80.8087C46.8165 80.5389 46.9681 80.173 46.9681 79.7915C46.9681 79.4099 46.8165 79.044 46.5467 78.7742C46.2769 78.5044 45.911 78.3529 45.5295 78.3529H30.787L39.749 67.8032H47.1608V78.3529H43.0848C42.7033 78.3529 42.3374 78.5044 42.0676 78.7742C41.7978 79.044 41.6462 79.4099 41.6462 79.7915C41.6462 80.173 41.7978 80.5389 42.0676 80.8087C42.3374 81.0785 42.7033 81.2301 43.0848 81.2301H48.5088C48.9139 81.2287 49.3021 81.0671 49.5886 80.7806C49.8751 80.4941 50.0366 80.106 50.038 79.7008V66.4552C50.0366 66.0501 49.8751 65.6619 49.5886 65.3755C49.3021 65.089 48.9139 64.9274 48.5088 64.926Z" fill="#8E9AB1"/>
<path d="M99.2234 99.3157C97.8367 99.3157 96.4811 99.7269 95.3282 100.497C94.1752 101.268 93.2765 102.363 92.7459 103.644C92.2152 104.925 92.0764 106.335 92.3469 107.695C92.6174 109.055 93.2852 110.304 94.2657 111.285C95.2462 112.265 96.4955 112.933 97.8556 113.203C99.2156 113.474 100.625 113.335 101.906 112.804C103.188 112.274 104.283 111.375 105.053 110.222C105.823 109.069 106.235 107.714 106.235 106.327C106.232 104.468 105.493 102.686 104.179 101.372C102.864 100.057 101.082 99.3178 99.2234 99.3157ZM99.2234 110.461C98.4057 110.461 97.6065 110.219 96.9266 109.764C96.2468 109.31 95.7169 108.664 95.404 107.909C95.0911 107.154 95.0093 106.322 95.1688 105.52C95.3283 104.719 95.722 103.982 96.3002 103.404C96.8783 102.826 97.6149 102.432 98.4169 102.272C99.2188 102.113 100.05 102.195 100.805 102.508C101.561 102.82 102.206 103.35 102.661 104.03C103.115 104.71 103.357 105.509 103.357 106.327C103.356 107.423 102.92 108.474 102.145 109.249C101.37 110.024 100.319 110.46 99.2234 110.461Z" fill="#8E9AB1"/>
<path d="M41.9939 99.3157C40.6072 99.3157 39.2516 99.7269 38.0987 100.497C36.9457 101.268 36.047 102.363 35.5164 103.644C34.9857 104.925 34.8469 106.335 35.1174 107.695C35.3879 109.055 36.0557 110.304 37.0362 111.285C38.0167 112.265 39.266 112.933 40.6261 113.203C41.9861 113.474 43.3958 113.335 44.677 112.804C45.9581 112.274 47.0531 111.375 47.8235 110.222C48.5939 109.069 49.0051 107.714 49.0051 106.327C49.003 104.468 48.2637 102.686 46.9493 101.372C45.6348 100.057 43.8527 99.3178 41.9939 99.3157ZM41.9939 110.461C41.1763 110.461 40.377 110.219 39.6971 109.764C39.0173 109.31 38.4874 108.664 38.1745 107.909C37.8616 107.154 37.7798 106.322 37.9393 105.52C38.0988 104.719 38.4925 103.982 39.0707 103.404C39.6488 102.826 40.3855 102.432 41.1874 102.272C41.9893 102.113 42.8205 102.195 43.5759 102.508C44.3313 102.82 44.977 103.35 45.4312 104.03C45.8855 104.71 46.1279 105.509 46.1279 106.327C46.1267 107.423 45.6908 108.474 44.9158 109.249C44.1407 110.024 43.0899 110.46 41.9939 110.461Z" fill="#8E9AB1"/>
<circle cx="20.5" cy="97.5" r="20.5" fill="#209068"/>
<path d="M15.9661 104V102.043L20.5071 97.369C21.5205 96.305 22.0271 95.4183 22.0271 94.709C22.0271 94.1897 21.8625 93.7717 21.5331 93.455C21.2165 93.1383 20.8048 92.98 20.2981 92.98C19.2975 92.98 18.5565 93.4993 18.0751 94.538L15.8711 93.246C16.2891 92.334 16.8908 91.6373 17.6761 91.156C18.4615 90.6747 19.3228 90.434 20.2601 90.434C21.4635 90.434 22.4958 90.814 23.3571 91.574C24.2185 92.3213 24.6491 93.3347 24.6491 94.614C24.6491 95.9947 23.9208 97.4133 22.4641 98.87L19.8611 101.473H24.8581V104H15.9661Z" fill="white"/>
</svg>
