<svg width="111" height="32" viewBox="0 0 111 32" fill="none" xmlns="http://www.w3.org/2000/svg">
<path d="M5.441 29.088C5.287 29.088 5.177 29.0733 5.111 29.044L5.012 29V28.131L5.111 28.153C5.21367 28.1677 5.32367 28.175 5.441 28.175C5.75633 28.175 6.024 28.0943 6.244 27.933C6.464 27.7717 6.662 27.5077 6.838 27.141L4.22 21.135H5.221L7.322 26.041L9.456 21.135H10.358L7.707 27.141C7.43567 27.7717 7.13133 28.2557 6.794 28.593C6.464 28.923 6.013 29.088 5.441 29.088ZM11.8867 24.149V29H11.1277V23.247H12.4147L14.0537 27.57L15.7367 23.247H16.9907V29H16.0887V24.149L14.1857 29H13.7677L11.8867 24.149ZM22.811 26.437H19.984V29H19.071V23.247H19.984V25.667H22.811V23.247H23.724V29H22.811V26.437ZM30.7401 23.247H31.6531V29H30.7401V23.247ZM25.7901 23.247H26.7031V25.26H27.7261C28.3787 25.26 28.9067 25.4067 29.3101 25.7C29.7207 25.9933 29.9261 26.4553 29.9261 27.086V27.119C29.9261 27.7423 29.7207 28.2117 29.3101 28.527C28.8994 28.8423 28.3714 29 27.7261 29H25.7901V23.247ZM27.7811 28.274C28.2137 28.274 28.5254 28.1823 28.7161 27.999C28.9141 27.8083 29.0131 27.515 29.0131 27.119V27.086C29.0131 26.7193 28.9177 26.4443 28.7271 26.261C28.5364 26.0703 28.2211 25.975 27.7811 25.975H26.7031V28.274H27.7811ZM36.0879 22.191C35.6919 22.191 35.3546 22.0553 35.0759 21.784C34.7973 21.5053 34.6506 21.157 34.6359 20.739H35.4279C35.4719 21.2817 35.6919 21.553 36.0879 21.553C36.5206 21.553 36.7626 21.2817 36.8139 20.739H37.5839C37.5546 21.157 37.3969 21.5053 37.1109 21.784C36.8323 22.0553 36.4913 22.191 36.0879 22.191ZM33.7229 29V23.247H34.6359V27.68L37.5729 23.247H38.4859V29H37.5729V24.567L34.6359 29H33.7229ZM45.0801 29.099C44.5154 29.099 44.0534 28.9597 43.6941 28.681C43.3421 28.395 43.1661 27.9697 43.1661 27.405C43.1661 27.0897 43.2431 26.8147 43.3971 26.58C43.5584 26.338 43.7784 26.151 44.0571 26.019C44.3358 25.8797 44.6401 25.7807 44.9701 25.722C45.3001 25.656 45.6594 25.623 46.0481 25.623H46.8731V25.205C46.8731 24.743 46.7778 24.413 46.5871 24.215C46.3964 24.0097 46.0811 23.907 45.6411 23.907C44.8491 23.907 44.4091 24.2517 44.3211 24.941H43.4081C43.4668 24.325 43.7051 23.874 44.1231 23.588C44.5484 23.2947 45.0691 23.148 45.6851 23.148C47.0858 23.148 47.7861 23.8337 47.7861 25.205V29H46.8731V28.274C46.4331 28.824 45.8354 29.099 45.0801 29.099ZM45.1681 28.373C45.6668 28.373 46.0738 28.252 46.3891 28.01C46.7118 27.7607 46.8731 27.4197 46.8731 26.987V26.272H46.0811C44.7464 26.272 44.0791 26.6497 44.0791 27.405C44.0791 28.0503 44.4421 28.373 45.1681 28.373ZM49.7335 23.247H51.7465C53.0959 23.247 53.7705 23.7347 53.7705 24.71V24.743C53.7705 25.0217 53.6935 25.2783 53.5395 25.513C53.3855 25.7403 53.1545 25.8943 52.8465 25.975C53.6459 26.151 54.0455 26.5837 54.0455 27.273V27.306C54.0455 27.8633 53.8622 28.285 53.4955 28.571C53.1362 28.857 52.6339 29 51.9885 29H49.7335V23.247ZM50.6465 23.973V25.678H51.7465C52.1279 25.678 52.3992 25.6083 52.5605 25.469C52.7292 25.3297 52.8135 25.1023 52.8135 24.787V24.754C52.8135 24.4607 52.7255 24.259 52.5495 24.149C52.3809 24.0317 52.1095 23.973 51.7355 23.973H50.6465ZM50.6465 26.404V28.274H51.9005C52.3039 28.274 52.6009 28.2043 52.7915 28.065C52.9895 27.9183 53.0885 27.6837 53.0885 27.361V27.328C53.0885 27.0053 52.9895 26.7707 52.7915 26.624C52.6009 26.4773 52.3039 26.404 51.9005 26.404H50.6465ZM59.7054 24.017H57.8464V29H56.9334V24.017H55.0744V23.247H59.7054V24.017ZM63.4334 28.34C64.0054 28.34 64.4601 28.142 64.7974 27.746C65.1421 27.35 65.3144 26.8257 65.3144 26.173V26.096C65.3144 25.4287 65.1421 24.897 64.7974 24.501C64.4601 24.105 64.0054 23.907 63.4334 23.907C62.8541 23.907 62.3958 24.105 62.0584 24.501C61.7211 24.897 61.5524 25.425 61.5524 26.085V26.173C61.5524 26.8403 61.7174 27.3683 62.0474 27.757C62.3848 28.1457 62.8468 28.34 63.4334 28.34ZM63.4224 29.099C62.6084 29.099 61.9338 28.824 61.3984 28.274C60.8704 27.7167 60.6064 27.0163 60.6064 26.173V26.085C60.6064 25.227 60.8704 24.523 61.3984 23.973C61.9338 23.423 62.6121 23.148 63.4334 23.148C64.2548 23.148 64.9294 23.423 65.4574 23.973C65.9928 24.5157 66.2604 25.216 66.2604 26.074V26.162C66.2604 27.0273 65.9928 27.735 65.4574 28.285C64.9221 28.8277 64.2438 29.099 63.4224 29.099ZM70.2811 29.099C69.4598 29.099 68.7851 28.835 68.2571 28.307C67.7291 27.7717 67.4651 27.064 67.4651 26.184V26.096C67.4651 25.2307 67.7328 24.523 68.2681 23.973C68.8108 23.423 69.4744 23.148 70.2591 23.148C70.9191 23.148 71.4801 23.313 71.9421 23.643C72.4041 23.9657 72.6754 24.4717 72.7561 25.161H71.8541C71.7221 24.325 71.1904 23.907 70.2591 23.907C69.7238 23.907 69.2801 24.1087 68.9281 24.512C68.5834 24.908 68.4111 25.436 68.4111 26.096V26.184C68.4111 26.8733 68.5798 27.405 68.9171 27.779C69.2618 28.153 69.7201 28.34 70.2921 28.34C70.7248 28.34 71.0951 28.219 71.4031 27.977C71.7184 27.7277 71.8981 27.3793 71.9421 26.932H72.7891C72.7304 27.5627 72.4664 28.0833 71.9971 28.494C71.5351 28.8973 70.9631 29.099 70.2811 29.099ZM76.7415 29.099C75.9202 29.099 75.2492 28.8313 74.7285 28.296C74.2152 27.7607 73.9585 27.0567 73.9585 26.184V26.096C73.9585 25.2307 74.2079 24.523 74.7065 23.973C75.2125 23.423 75.8615 23.148 76.6535 23.148C77.3869 23.148 77.9992 23.3863 78.4905 23.863C78.9892 24.3323 79.2385 25.0473 79.2385 26.008V26.305H74.9045C74.9485 27.6617 75.5645 28.34 76.7525 28.34C77.6545 28.34 78.1642 28.0063 78.2815 27.339H79.1945C79.0919 27.911 78.8242 28.3473 78.3915 28.648C77.9589 28.9487 77.4089 29.099 76.7415 29.099ZM78.3035 25.568C78.2229 24.4607 77.6729 23.907 76.6535 23.907C76.1915 23.907 75.8102 24.0537 75.5095 24.347C75.2089 24.6403 75.0182 25.0473 74.9375 25.568H78.3035ZM80.8595 23.247H81.7725V24.215C81.9412 23.9217 82.2052 23.6723 82.5645 23.467C82.9238 23.2543 83.3088 23.148 83.7195 23.148C84.4895 23.148 85.1165 23.4083 85.6005 23.929C86.0918 24.4497 86.3375 25.1537 86.3375 26.041V26.129C86.3375 27.0163 86.0955 27.735 85.6115 28.285C85.1348 28.8277 84.5042 29.099 83.7195 29.099C82.8395 29.099 82.1905 28.7507 81.7725 28.054V31.002H80.8595V23.247ZM83.6315 28.34C84.2035 28.34 84.6398 28.1567 84.9405 27.79C85.2412 27.416 85.3915 26.877 85.3915 26.173V26.085C85.3915 25.3883 85.2228 24.853 84.8855 24.479C84.5555 24.0977 84.1338 23.907 83.6205 23.907C83.0632 23.907 82.6085 24.094 82.2565 24.468C81.9118 24.8347 81.7395 25.3737 81.7395 26.085V26.173C81.7395 26.8843 81.9082 27.4233 82.2455 27.79C82.5902 28.1567 83.0522 28.34 83.6315 28.34ZM87.91 23.247H89.923C91.2723 23.247 91.947 23.7347 91.947 24.71V24.743C91.947 25.0217 91.87 25.2783 91.716 25.513C91.562 25.7403 91.331 25.8943 91.023 25.975C91.8223 26.151 92.222 26.5837 92.222 27.273V27.306C92.222 27.8633 92.0386 28.285 91.672 28.571C91.3126 28.857 90.8103 29 90.165 29H87.91V23.247ZM88.823 23.973V25.678H89.923C90.3043 25.678 90.5756 25.6083 90.737 25.469C90.9056 25.3297 90.99 25.1023 90.99 24.787V24.754C90.99 24.4607 90.902 24.259 90.726 24.149C90.5573 24.0317 90.286 23.973 89.912 23.973H88.823ZM88.823 26.404V28.274H90.077C90.4803 28.274 90.7773 28.2043 90.968 28.065C91.166 27.9183 91.265 27.6837 91.265 27.361V27.328C91.265 27.0053 91.166 26.7707 90.968 26.624C90.7773 26.4773 90.4803 26.404 90.077 26.404H88.823ZM93.8985 29V23.247H94.8115V27.68L97.7485 23.247H98.6615V29H97.7485V24.567L94.8115 29H93.8985ZM103.071 29.099C102.249 29.099 101.575 28.835 101.047 28.307C100.519 27.7717 100.255 27.064 100.255 26.184V26.096C100.255 25.2307 100.522 24.523 101.058 23.973C101.6 23.423 102.264 23.148 103.049 23.148C103.709 23.148 104.27 23.313 104.732 23.643C105.194 23.9657 105.465 24.4717 105.546 25.161H104.644C104.512 24.325 103.98 23.907 103.049 23.907C102.513 23.907 102.07 24.1087 101.718 24.512C101.373 24.908 101.201 25.436 101.201 26.096V26.184C101.201 26.8733 101.369 27.405 101.707 27.779C102.051 28.153 102.51 28.34 103.082 28.34C103.514 28.34 103.885 28.219 104.193 27.977C104.508 27.7277 104.688 27.3793 104.732 26.932H105.579C105.52 27.5627 105.256 28.0833 104.787 28.494C104.325 28.8973 103.753 29.099 103.071 29.099Z" fill="#6A6A6A"/>
<path d="M0 13.7438V0.624672H9.5011V3.19228H2.75316V5.85359H8.69135V8.42119H2.75316V11.1762H9.59108V13.7438H0Z" fill="#141414"/>
<path d="M35.4228 13.9312C33.3594 13.9312 31.5779 13.2315 30.0784 11.8322L31.7159 9.78933C32.9515 10.8514 34.2051 11.3824 35.4767 11.3824C36.0406 11.3824 36.4844 11.2699 36.8083 11.045C37.1322 10.8201 37.2942 10.5078 37.2942 10.1079C37.2942 9.73311 37.1262 9.43324 36.7903 9.20834C36.4544 8.97095 35.7767 8.71481 34.757 8.43993C34.0372 8.25252 33.4554 8.07135 33.0115 7.89643C32.5676 7.70901 32.1418 7.46537 31.7339 7.1655C31.338 6.86564 31.0441 6.4908 30.8522 6.04101C30.6722 5.57871 30.5822 5.02896 30.5822 4.39174C30.5822 3.20477 30.9901 2.24895 31.8059 1.52427C32.6336 0.799594 33.6953 0.437256 34.9909 0.437256C36.7784 0.437256 38.3379 0.993258 39.6695 2.10526L38.2299 4.27929C37.0423 3.41718 35.9506 2.98612 34.9549 2.98612C34.4391 2.98612 34.0372 3.09857 33.7493 3.32347C33.4734 3.53587 33.3354 3.817 33.3354 4.16684C33.3354 4.59165 33.5093 4.91026 33.8572 5.12266C34.2051 5.33507 34.9369 5.59121 36.0526 5.89107C37.4202 6.2659 38.4279 6.74694 39.0757 7.33418C39.7235 7.92142 40.0474 8.76479 40.0474 9.8643C40.0474 11.1387 39.6215 12.1383 38.7697 12.863C37.93 13.5751 36.8143 13.9312 35.4228 13.9312Z" fill="#141414"/>
<path d="M48.1516 13.7438V8.57113L43.3111 0.624672H46.5501L49.5552 5.89107L52.6143 0.624672H55.7633L50.9228 8.5149V13.7438H48.1516Z" fill="#141414"/>
<path d="M60.1867 13.7438V0.624672H65.945C67.5405 0.624672 68.7641 1.06822 69.6159 1.95533C70.3356 2.70499 70.6955 3.71704 70.6955 4.99147C70.6955 7.00308 69.7958 8.35872 67.9964 9.05841L71.0734 13.7438H67.8344L65.0992 9.54569H62.9579V13.7438H60.1867ZM62.9579 6.99683H65.765C66.4368 6.99683 66.9587 6.82815 67.3306 6.4908C67.7024 6.14096 67.8884 5.67867 67.8884 5.10392C67.8884 4.4917 67.6964 4.0294 67.3126 3.71704C66.9287 3.39219 66.3948 3.22976 65.7111 3.22976H62.9579V6.99683Z" fill="#141414"/>
<path d="M76.0157 13.7438V0.624672H78.7869V13.7438H76.0157Z" fill="#141414"/>
<path d="M84.634 13.7438V0.624672H89.5465C91.5139 0.624672 93.1214 1.24939 94.369 2.49884C95.6166 3.73578 96.2404 5.29759 96.2404 7.18424C96.2404 9.05841 95.6106 10.6202 94.351 11.8697C93.1034 13.1191 91.5019 13.7438 89.5465 13.7438H84.634ZM87.4051 11.1387H89.5465C90.6861 11.1387 91.6038 10.7764 92.2996 10.0517C92.9954 9.31454 93.3433 8.35872 93.3433 7.18424C93.3433 6.02226 92.9894 5.07269 92.2816 4.33552C91.5858 3.59834 90.6741 3.22976 89.5465 3.22976H87.4051V11.1387Z" fill="#141414"/>
<path d="M101.409 13.7438V0.624672H110.91V3.19228H104.162V5.85359H110.1V8.42119H104.162V11.1762H111V13.7438H101.409Z" fill="#141414"/>
<path fill-rule="evenodd" clip-rule="evenodd" d="M18.5503 3.46608L23.7237 13.7294L26.6799 13.7294L20.4862 1.48842L18.5503 3.46608Z" fill="black"/>
<path fill-rule="evenodd" clip-rule="evenodd" d="M21.2601 2.95292L15.8403 13.7294L12.884 13.7294L20.0283 0.130522L21.2601 2.95292Z" fill="#25BB8D"/>
</svg>
