<svg width="226" height="46" viewBox="0 0 226 46" fill="none" xmlns="http://www.w3.org/2000/svg">
<path d="M2.52 25V4H18.36V8.11H7.11V12.37H17.01V16.48H7.11V20.89H18.51V25H2.52ZM61.5759 25.3C58.1359 25.3 55.1659 24.18 52.6659 21.94L55.3959 18.67C57.4559 20.37 59.5459 21.22 61.6659 21.22C62.6059 21.22 63.3459 21.04 63.8859 20.68C64.4259 20.32 64.6959 19.82 64.6959 19.18C64.6959 18.58 64.4159 18.1 63.8559 17.74C63.2959 17.36 62.1659 16.95 60.4659 16.51C59.2659 16.21 58.2959 15.92 57.5559 15.64C56.8159 15.34 56.1059 14.95 55.4259 14.47C54.7659 13.99 54.2759 13.39 53.9559 12.67C53.6559 11.93 53.5059 11.05 53.5059 10.03C53.5059 8.13 54.1859 6.6 55.5459 5.44C56.9259 4.28 58.6959 3.7 60.8559 3.7C63.8359 3.7 66.4359 4.59 68.6559 6.37L66.2559 9.85C64.2759 8.47 62.4559 7.78 60.7959 7.78C59.9359 7.78 59.2659 7.96 58.7859 8.32C58.3259 8.66 58.0959 9.11 58.0959 9.67C58.0959 10.35 58.3859 10.86 58.9659 11.2C59.5459 11.54 60.7659 11.95 62.6259 12.43C64.9059 13.03 66.5859 13.8 67.6659 14.74C68.7459 15.68 69.2859 17.03 69.2859 18.79C69.2859 20.83 68.5759 22.43 67.1559 23.59C65.7559 24.73 63.8959 25.3 61.5759 25.3ZM82.7972 25V16.72L74.7272 4H80.1272L85.1372 12.43L90.2372 4H95.4872L87.4172 16.63V25H82.7972ZM102.862 25V4H112.462C115.122 4 117.162 4.71 118.582 6.13C119.782 7.33 120.382 8.95 120.382 10.99C120.382 14.21 118.882 16.38 115.882 17.5L121.012 25H115.612L111.052 18.28H107.482V25H102.862ZM107.482 14.2H112.162C113.282 14.2 114.152 13.93 114.772 13.39C115.392 12.83 115.702 12.09 115.702 11.17C115.702 10.19 115.382 9.45 114.742 8.95C114.102 8.43 113.212 8.17 112.072 8.17H107.482V14.2ZM129.251 25V4H133.871V25H129.251ZM143.62 25V4H151.81C155.09 4 157.77 5 159.85 7C161.93 8.98 162.97 11.48 162.97 14.5C162.97 17.5 161.92 20 159.82 22C157.74 24 155.07 25 151.81 25H143.62ZM148.24 20.83H151.81C153.71 20.83 155.24 20.25 156.4 19.09C157.56 17.91 158.14 16.38 158.14 14.5C158.14 12.64 157.55 11.12 156.37 9.94C155.21 8.76 153.69 8.17 151.81 8.17H148.24V20.83ZM171.586 25V4H187.426V8.11H176.176V12.37H186.076V16.48H176.176V20.89H187.576V25H171.586Z" fill="#141414"/>
<path d="M3.572 43.096C3.404 43.096 3.284 43.08 3.212 43.048L3.104 43V42.052L3.212 42.076C3.324 42.092 3.444 42.1 3.572 42.1C3.916 42.1 4.208 42.012 4.448 41.836C4.688 41.66 4.904 41.372 5.096 40.972L2.24 34.42H3.332L5.624 39.772L7.952 34.42H8.936L6.044 40.972C5.748 41.66 5.416 42.188 5.048 42.556C4.688 42.916 4.196 43.096 3.572 43.096ZM10.6036 37.708V43H9.77562V36.724H11.1796L12.9676 41.44L14.8036 36.724H16.1716V43H15.1876V37.708L13.1116 43H12.6556L10.6036 37.708ZM22.5211 40.204H19.4371V43H18.4411V36.724H19.4371V39.364H22.5211V36.724H23.5171V43H22.5211V40.204ZM31.171 36.724H32.167V43H31.171V36.724ZM25.771 36.724H26.767V38.92H27.883C28.595 38.92 29.171 39.08 29.611 39.4C30.059 39.72 30.283 40.224 30.283 40.912V40.948C30.283 41.628 30.059 42.14 29.611 42.484C29.163 42.828 28.587 43 27.883 43H25.771V36.724ZM27.943 42.208C28.415 42.208 28.755 42.108 28.963 41.908C29.179 41.7 29.287 41.38 29.287 40.948V40.912C29.287 40.512 29.183 40.212 28.975 40.012C28.767 39.804 28.423 39.7 27.943 39.7H26.767V42.208H27.943ZM37.005 35.572C36.573 35.572 36.205 35.424 35.901 35.128C35.597 34.824 35.437 34.444 35.421 33.988H36.285C36.333 34.58 36.573 34.876 37.005 34.876C37.477 34.876 37.741 34.58 37.797 33.988H38.637C38.605 34.444 38.433 34.824 38.121 35.128C37.817 35.424 37.445 35.572 37.005 35.572ZM34.425 43V36.724H35.421V41.56L38.625 36.724H39.621V43H38.625V38.164L35.421 43H34.425ZM46.8147 43.108C46.1987 43.108 45.6947 42.956 45.3027 42.652C44.9187 42.34 44.7267 41.876 44.7267 41.26C44.7267 40.916 44.8107 40.616 44.9787 40.36C45.1547 40.096 45.3947 39.892 45.6987 39.748C46.0027 39.596 46.3347 39.488 46.6947 39.424C47.0547 39.352 47.4467 39.316 47.8707 39.316H48.7707V38.86C48.7707 38.356 48.6667 37.996 48.4587 37.78C48.2507 37.556 47.9067 37.444 47.4267 37.444C46.5627 37.444 46.0827 37.82 45.9867 38.572H44.9907C45.0547 37.9 45.3147 37.408 45.7707 37.096C46.2347 36.776 46.8027 36.616 47.4747 36.616C49.0027 36.616 49.7667 37.364 49.7667 38.86V43H48.7707V42.208C48.2907 42.808 47.6387 43.108 46.8147 43.108ZM46.9107 42.316C47.4547 42.316 47.8987 42.184 48.2427 41.92C48.5947 41.648 48.7707 41.276 48.7707 40.804V40.024H47.9067C46.4507 40.024 45.7227 40.436 45.7227 41.26C45.7227 41.964 46.1187 42.316 46.9107 42.316ZM51.8911 36.724H54.0871C55.5591 36.724 56.2951 37.256 56.2951 38.32V38.356C56.2951 38.66 56.2111 38.94 56.0431 39.196C55.8751 39.444 55.6231 39.612 55.2871 39.7C56.1591 39.892 56.5951 40.364 56.5951 41.116V41.152C56.5951 41.76 56.3951 42.22 55.9951 42.532C55.6031 42.844 55.0551 43 54.3511 43H51.8911V36.724ZM52.8871 37.516V39.376H54.0871C54.5031 39.376 54.7991 39.3 54.9751 39.148C55.1591 38.996 55.2511 38.748 55.2511 38.404V38.368C55.2511 38.048 55.1551 37.828 54.9631 37.708C54.7791 37.58 54.4831 37.516 54.0751 37.516H52.8871ZM52.8871 40.168V42.208H54.2551C54.6951 42.208 55.0191 42.132 55.2271 41.98C55.4431 41.82 55.5511 41.564 55.5511 41.212V41.176C55.5511 40.824 55.4431 40.568 55.2271 40.408C55.0191 40.248 54.6951 40.168 54.2551 40.168H52.8871ZM62.7695 37.564H60.7415V43H59.7455V37.564H57.7175V36.724H62.7695V37.564ZM66.8365 42.28C67.4605 42.28 67.9565 42.064 68.3245 41.632C68.7005 41.2 68.8885 40.628 68.8885 39.916V39.832C68.8885 39.104 68.7005 38.524 68.3245 38.092C67.9565 37.66 67.4605 37.444 66.8365 37.444C66.2045 37.444 65.7045 37.66 65.3365 38.092C64.9685 38.524 64.7845 39.1 64.7845 39.82V39.916C64.7845 40.644 64.9645 41.22 65.3245 41.644C65.6925 42.068 66.1965 42.28 66.8365 42.28ZM66.8245 43.108C65.9365 43.108 65.2005 42.808 64.6165 42.208C64.0405 41.6 63.7525 40.836 63.7525 39.916V39.82C63.7525 38.884 64.0405 38.116 64.6165 37.516C65.2005 36.916 65.9405 36.616 66.8365 36.616C67.7325 36.616 68.4685 36.916 69.0445 37.516C69.6285 38.108 69.9205 38.872 69.9205 39.808V39.904C69.9205 40.848 69.6285 41.62 69.0445 42.22C68.4605 42.812 67.7205 43.108 66.8245 43.108ZM74.3067 43.108C73.4107 43.108 72.6747 42.82 72.0987 42.244C71.5227 41.66 71.2347 40.888 71.2347 39.928V39.832C71.2347 38.888 71.5267 38.116 72.1107 37.516C72.7027 36.916 73.4267 36.616 74.2827 36.616C75.0027 36.616 75.6147 36.796 76.1187 37.156C76.6227 37.508 76.9187 38.06 77.0067 38.812H76.0227C75.8787 37.9 75.2987 37.444 74.2827 37.444C73.6987 37.444 73.2147 37.664 72.8307 38.104C72.4547 38.536 72.2667 39.112 72.2667 39.832V39.928C72.2667 40.68 72.4507 41.26 72.8187 41.668C73.1947 42.076 73.6947 42.28 74.3187 42.28C74.7907 42.28 75.1947 42.148 75.5307 41.884C75.8747 41.612 76.0707 41.232 76.1187 40.744H77.0427C76.9787 41.432 76.6907 42 76.1787 42.448C75.6747 42.888 75.0507 43.108 74.3067 43.108ZM81.3544 43.108C80.4584 43.108 79.7264 42.816 79.1584 42.232C78.5984 41.648 78.3184 40.88 78.3184 39.928V39.832C78.3184 38.888 78.5904 38.116 79.1344 37.516C79.6864 36.916 80.3944 36.616 81.2584 36.616C82.0584 36.616 82.7264 36.876 83.2624 37.396C83.8064 37.908 84.0784 38.688 84.0784 39.736V40.06H79.3504C79.3984 41.54 80.0704 42.28 81.3664 42.28C82.3504 42.28 82.9064 41.916 83.0344 41.188H84.0304C83.9184 41.812 83.6264 42.288 83.1544 42.616C82.6824 42.944 82.0824 43.108 81.3544 43.108ZM83.0584 39.256C82.9704 38.048 82.3704 37.444 81.2584 37.444C80.7544 37.444 80.3384 37.604 80.0104 37.924C79.6824 38.244 79.4744 38.688 79.3864 39.256H83.0584ZM85.8467 36.724H86.8427V37.78C87.0267 37.46 87.3147 37.188 87.7067 36.964C88.0987 36.732 88.5187 36.616 88.9667 36.616C89.8067 36.616 90.4907 36.9 91.0187 37.468C91.5547 38.036 91.8227 38.804 91.8227 39.772V39.868C91.8227 40.836 91.5587 41.62 91.0307 42.22C90.5107 42.812 89.8227 43.108 88.9667 43.108C88.0067 43.108 87.2987 42.728 86.8427 41.968V45.184H85.8467V36.724ZM88.8707 42.28C89.4947 42.28 89.9707 42.08 90.2987 41.68C90.6267 41.272 90.7907 40.684 90.7907 39.916V39.82C90.7907 39.06 90.6067 38.476 90.2387 38.068C89.8787 37.652 89.4187 37.444 88.8587 37.444C88.2507 37.444 87.7547 37.648 87.3707 38.056C86.9947 38.456 86.8067 39.044 86.8067 39.82V39.916C86.8067 40.692 86.9907 41.28 87.3587 41.68C87.7347 42.08 88.2387 42.28 88.8707 42.28ZM93.5382 36.724H95.7342C97.2062 36.724 97.9422 37.256 97.9422 38.32V38.356C97.9422 38.66 97.8582 38.94 97.6902 39.196C97.5222 39.444 97.2702 39.612 96.9342 39.7C97.8062 39.892 98.2422 40.364 98.2422 41.116V41.152C98.2422 41.76 98.0422 42.22 97.6422 42.532C97.2502 42.844 96.7022 43 95.9982 43H93.5382V36.724ZM94.5342 37.516V39.376H95.7342C96.1502 39.376 96.4462 39.3 96.6222 39.148C96.8062 38.996 96.8982 38.748 96.8982 38.404V38.368C96.8982 38.048 96.8022 37.828 96.6102 37.708C96.4262 37.58 96.1302 37.516 95.7222 37.516H94.5342ZM94.5342 40.168V42.208H95.9022C96.3422 42.208 96.6662 42.132 96.8742 41.98C97.0902 41.82 97.1982 41.564 97.1982 41.212V41.176C97.1982 40.824 97.0902 40.568 96.8742 40.408C96.6662 40.248 96.3422 40.168 95.9022 40.168H94.5342ZM100.071 43V36.724H101.067V41.56L104.271 36.724H105.267V43H104.271V38.164L101.067 43H100.071ZM110.077 43.108C109.181 43.108 108.445 42.82 107.869 42.244C107.293 41.66 107.005 40.888 107.005 39.928V39.832C107.005 38.888 107.297 38.116 107.881 37.516C108.473 36.916 109.197 36.616 110.053 36.616C110.773 36.616 111.385 36.796 111.889 37.156C112.393 37.508 112.689 38.06 112.777 38.812H111.793C111.649 37.9 111.069 37.444 110.053 37.444C109.469 37.444 108.985 37.664 108.601 38.104C108.225 38.536 108.037 39.112 108.037 39.832V39.928C108.037 40.68 108.221 41.26 108.589 41.668C108.965 42.076 109.465 42.28 110.089 42.28C110.561 42.28 110.965 42.148 111.301 41.884C111.645 41.612 111.841 41.232 111.889 40.744H112.813C112.749 41.432 112.461 42 111.949 42.448C111.445 42.888 110.821 43.108 110.077 43.108Z" fill="#6A6A6A"/>
<path fill-rule="evenodd" clip-rule="evenodd" d="M33.4464 8.54833L42.0714 24.9769L47 24.9769L36.674 5.38266L33.4464 8.54833Z" fill="black"/>
<path fill-rule="evenodd" clip-rule="evenodd" d="M37.9643 7.72691L28.9286 24.9769L24 24.9769L35.9107 3.20906L37.9643 7.72691Z" fill="#25BB8D"/>
</svg>
