<svg width="19" height="18" viewBox="0 0 19 18" fill="none" xmlns="http://www.w3.org/2000/svg">
<path d="M10.1676 2.01464C10.1677 2.01464 10.1677 2.01464 10.168 2.01464C11.7912 2.01464 13.3173 2.64688 14.4652 3.79476C15.6132 4.94278 16.2455 6.46917 16.2453 8.09267C16.2453 8.64902 16.6962 9.10006 17.2526 9.10006C17.2527 9.10006 17.2527 9.10006 17.2527 9.10006C17.8091 9.10006 18.2601 8.64915 18.2601 8.09281C18.2602 5.93109 17.4185 3.89872 15.8899 2.37018C14.3615 0.841638 12.3295 0 10.168 0C10.1678 0 10.1674 0 10.1673 0C9.61094 0 9.16003 0.451041 9.16003 1.00739C9.16017 1.5636 9.61121 2.01464 10.1676 2.01464Z" fill="white"/>
<path d="M10.1673 5.55725C11.5653 5.55752 12.7028 6.69493 12.7029 8.09278C12.7031 8.64912 13.154 9.10016 13.7105 9.10003C14.2669 9.10003 14.7178 8.64885 14.7177 8.09251C14.7173 5.58398 12.6762 3.54288 10.1676 3.54248H10.1674C9.61107 3.54248 9.16017 3.99339 9.16003 4.54973C9.16003 5.10608 9.61094 5.55725 10.1673 5.55725Z" fill="white"/>
<path d="M5.65018 7.2832C5.19094 7.59724 5.07315 8.2241 5.38705 8.68333C5.70095 9.14257 6.32795 9.26023 6.78718 8.94633C7.14836 8.69945 7.9943 8.12108 7.93493 6.96487C7.89732 6.27286 7.27314 5.28481 6.75615 4.57776C5.99994 3.54324 5.34823 2.92014 4.82318 2.72699C4.33292 2.54446 3.82022 2.54056 3.29826 2.71571C2.21714 3.07998 1.43218 3.73827 1.02842 4.6194C0.635269 5.47716 0.644 6.46292 1.05381 7.47071C2.0217 9.84518 3.37671 11.924 5.0902 13.6583C6.81552 15.3627 8.89423 16.7177 11.2697 17.6861C11.7837 17.8953 12.2922 17.9999 12.781 17.9999C13.2498 17.9999 13.7004 17.9037 14.1203 17.7113C15.0014 17.3074 15.6596 16.5225 16.0242 15.4401C16.1989 14.9193 16.195 14.4069 16.0139 13.92C15.8194 13.3912 15.1962 12.7396 14.1618 11.9834C13.4546 11.4664 12.4666 10.8422 11.7719 10.8045C10.6181 10.7465 10.0402 11.5909 9.79336 11.9521C9.47932 12.4113 9.59685 13.0382 10.0561 13.3524C10.5155 13.6665 11.1422 13.5489 11.4564 13.0896C11.566 12.9294 11.6285 12.8566 11.6644 12.8248C12.2299 13.006 13.8424 14.1906 14.1326 14.6446C14.1398 14.6737 14.1414 14.7178 14.1145 14.7983C13.9874 15.1756 13.7396 15.6695 13.2809 15.8798C12.8512 16.0765 12.363 15.9559 12.0296 15.8203C9.90108 14.9525 8.04279 13.743 6.51478 12.2336C4.99685 10.6972 3.78732 8.83887 2.92002 6.71114C2.78409 6.37696 2.66334 5.88844 2.86012 5.45916C3.07033 5.00046 3.56435 4.75251 3.94044 4.62572C4.02076 4.59885 4.06495 4.60033 4.09558 4.60772C4.54971 4.89851 5.73372 6.51006 5.91505 7.07568C5.88308 7.111 5.81042 7.17373 5.65018 7.2832Z" fill="white"/>
</svg>
