<svg width="19" height="18" viewBox="0 0 19 18" fill="none" xmlns="http://www.w3.org/2000/svg">
<g clip-path="url(#clip0)">
<path d="M3.95809 18C3.69579 18 3.43459 17.9278 3.20195 17.7839C2.77445 17.5198 2.51943 17.0621 2.51943 16.5594V14.4501C1.01416 12.543 0.363632 10.1614 0.686219 7.71749C1.2034 3.79647 4.42611 0.582686 8.34851 0.0763529C11.1113 -0.280566 13.8233 0.624984 15.792 2.5594C17.7609 4.49382 18.7136 7.18754 18.4062 9.95019C17.9609 13.9511 14.7301 17.2427 10.7246 17.777C9.12771 17.9888 7.51272 17.7677 6.03107 17.1331L4.60271 17.8468C4.39809 17.9489 4.17754 18 3.95809 18ZM8.51165 1.34184C5.15285 1.77539 2.3935 4.52692 1.95033 7.88435C1.66483 10.0499 2.26743 12.1568 3.64759 13.816C3.74276 13.9305 3.7948 14.075 3.7948 14.2239V16.5594C3.7948 16.6347 3.83724 16.6764 3.8724 16.699C3.90851 16.7207 3.9655 16.7393 4.03252 16.7057L5.73142 15.8569C5.90528 15.7697 6.11073 15.7666 6.28761 15.85C7.62423 16.4772 9.09956 16.7064 10.5557 16.5128C13.9886 16.0549 16.7569 13.2355 17.1387 9.80943C17.4025 7.43844 16.5857 5.12719 14.8979 3.46935C13.2104 1.81082 10.8828 1.03477 8.51165 1.34184ZM8.43008 0.709029H8.43626H8.43008Z" fill="white"/>
<path d="M5.10178 10.9457L8.02936 6.77896C8.15131 6.56555 8.43256 6.50746 8.62908 6.65481L10.5903 8.12561C10.7232 8.22531 10.9031 8.23451 11.0455 8.14909L13.4337 6.46104C13.7841 6.25079 14.1919 6.62844 14.0092 6.99401L11.645 11.0846C11.5385 11.2975 11.2735 11.3747 11.0694 11.2522L8.45123 9.68127C8.33148 9.60945 8.18331 9.60368 8.05834 9.66617L5.63901 11.5135C5.27769 11.6944 4.90127 11.2965 5.10178 10.9457Z" fill="white"/>
</g>
<defs>
<clipPath id="clip0">
<rect width="18" height="18" fill="white" transform="translate(0.5)"/>
</clipPath>
</defs>
</svg>
