<svg width="56" height="56" viewBox="0 0 56 56" fill="none" xmlns="http://www.w3.org/2000/svg">
<path d="M9.33301 0V56H41.9997L55.9997 42V0H9.33301Z" fill="url(#paint0_linear)"/>
<path d="M42 42V56L56 42H42Z" fill="#9BD6C1"/>
<path d="M28 56H42V42L28 56Z" fill="#DEDEDD"/>
<path d="M0 14V30.3333H37.3333V14H0Z" fill="#21A174"/>
<path d="M8.89519 17.1874C9.40852 17.1874 9.83785 17.2737 10.1902 17.4464C10.5425 17.619 10.8225 17.8454 11.0372 18.1254C11.2519 18.4054 11.4059 18.725 11.4992 19.0844C11.5902 19.4414 11.6392 19.81 11.6392 20.1834C11.6392 20.6967 11.5622 21.1447 11.4082 21.5274C11.2542 21.91 11.0395 22.2227 10.7642 22.463C10.4889 22.7057 10.1552 22.89 9.76319 23.009C9.37119 23.128 8.93719 23.1934 8.46119 23.1934H7.38319V27.1834H5.36719V17.1874H8.89519ZM8.27919 21.714C8.68052 21.714 9.00719 21.5904 9.25219 21.3477C9.49952 21.105 9.62319 20.727 9.62319 20.2137C9.62319 19.7097 9.51585 19.327 9.30119 19.0657C9.08652 18.8067 8.72719 18.6737 8.22319 18.6737H7.38319V21.714H8.27919Z" fill="white"/>
<path d="M17.4358 17.1851C18.1382 17.1851 18.7005 17.3017 19.1322 17.5304C19.5615 17.7591 19.8952 18.0834 20.1332 18.5104C20.3735 18.9351 20.5322 19.4437 20.6162 20.0434C20.7002 20.6407 20.7422 21.3081 20.7422 22.0431C20.7422 22.9204 20.6908 23.6834 20.5835 24.3321C20.4762 24.9784 20.2918 25.5151 20.0305 25.9351C19.7692 26.3574 19.4192 26.6677 18.9805 26.8731C18.5418 27.0784 17.9865 27.1811 17.3145 27.1811H14.1318V17.1851H17.4358ZM17.0438 25.7017C17.3985 25.7017 17.6832 25.6411 17.8978 25.5197C18.1125 25.3984 18.2828 25.1977 18.4088 24.9177C18.5372 24.6377 18.6212 24.2691 18.6608 23.8094C18.7028 23.3544 18.7238 22.7851 18.7238 22.1037C18.7238 21.5344 18.7028 21.0351 18.6678 20.6034C18.6305 20.1741 18.5535 19.8171 18.4368 19.5324C18.3178 19.2477 18.1475 19.0331 17.9165 18.8907C17.6878 18.7461 17.3822 18.6714 16.9995 18.6714H16.1478V25.7017H17.0438Z" fill="white"/>
<path d="M29.0548 17.1874V18.8394H25.4848V21.1914H28.8448V22.8434H25.4848V27.1834H23.4688V17.1874H29.0548Z" fill="white"/>
<defs>
<linearGradient id="paint0_linear" x1="32.6663" y1="0" x2="32.6663" y2="56" gradientUnits="userSpaceOnUse">
<stop stop-color="white"/>
<stop offset="1" stop-color="#E0E0E0"/>
</linearGradient>
</defs>
</svg>
