<svg width="13" height="13" viewBox="0 0 13 13" fill="none" xmlns="http://www.w3.org/2000/svg">
<g clip-path="url(#clip0)">
<path d="M12.3196 8.87236L11.0117 7.80083C10.1596 7.10277 8.83696 7.16883 8.05963 7.94613L8.00771 7.99805C7.87737 8.12839 7.66505 8.12736 7.53654 7.99883L5.00956 5.47185C4.88199 5.34428 4.87947 5.13909 5.0024 5.00881C5.00464 5.00644 5.00691 5.00411 5.00922 5.00177L5.00227 5.00872C5.00458 5.00641 5.00688 5.00408 5.00919 5.00177C5.78222 4.22133 5.85619 2.89255 5.17902 2.03643L4.11824 0.695339C3.43641 -0.166702 2.25139 -0.23329 1.47415 0.543941L1.27931 0.738787C-0.101212 2.1193 -0.426526 4.6075 0.608997 6.26185C0.608997 6.26185 1.21857 7.67554 3.27573 9.73269C5.33288 11.7898 6.74657 12.3994 6.74657 12.3994C8.41637 13.4097 10.8883 13.1105 12.2685 11.7303L12.4541 11.5447C13.2319 10.7669 13.1711 9.56995 12.3196 8.87236ZM11.5144 10.605L11.3288 10.7906C10.3812 11.7382 8.58116 11.9562 7.43445 11.2625L7.35643 11.2152L7.27271 11.1791C7.16993 11.1348 6.9123 10.9951 6.52279 10.7339C5.83102 10.2699 5.05419 9.6319 4.21535 8.79306C3.37652 7.95423 2.7385 7.1774 2.27453 6.48563C2.01328 6.09613 1.87356 5.83849 1.82927 5.73571L1.78916 5.64268L1.7354 5.55681C1.03821 4.44299 1.26299 2.63445 2.21897 1.67847L2.41381 1.48363C2.62987 1.26757 2.88819 1.28227 3.07606 1.51979L4.13684 2.86087C4.3984 3.19154 4.36454 3.76723 4.06268 4.06913C3.42052 4.71879 3.4237 5.76536 4.06994 6.41157L6.59692 8.93854C7.24471 9.58633 8.29845 9.58671 8.94743 8.93776L8.99935 8.88585C9.29399 8.59121 9.84626 8.56393 10.1696 8.82885L11.4775 9.90037C11.7217 10.1004 11.736 10.3835 11.5144 10.605Z" fill="white"/>
</g>
<defs>
<clipPath id="clip0">
<rect width="13" height="13" fill="white"/>
</clipPath>
</defs>
</svg>
