<svg width="13" height="14" viewBox="0 0 13 14" fill="none" xmlns="http://www.w3.org/2000/svg">
<g clip-path="url(#clip0)">
<path d="M12.3196 9.12236L11.0117 8.05083C10.1596 7.35277 8.83696 7.41883 8.05963 8.19613L8.00771 8.24805C7.87737 8.37839 7.66505 8.37736 7.53654 8.24883L5.00956 5.72185C4.88199 5.59428 4.87947 5.38909 5.0024 5.25881C5.00464 5.25644 5.00691 5.25411 5.00922 5.25177L5.00227 5.25872C5.00458 5.25641 5.00688 5.25408 5.00919 5.25177C5.78222 4.47133 5.85619 3.14255 5.17902 2.28643L4.11824 0.945339C3.43641 0.0832984 2.25139 0.0167096 1.47415 0.793941L1.27931 0.988787C-0.101212 2.3693 -0.426526 4.8575 0.608997 6.51185C0.608997 6.51185 1.21857 7.92554 3.27573 9.98269C5.33288 12.0398 6.74657 12.6494 6.74657 12.6494C8.41637 13.6597 10.8883 13.3605 12.2685 11.9803L12.4541 11.7947C13.2319 11.0169 13.1711 9.81995 12.3196 9.12236ZM11.5144 10.855L11.3288 11.0406C10.3812 11.9882 8.58116 12.2062 7.43445 11.5125L7.35643 11.4652L7.27271 11.4291C7.16993 11.3848 6.9123 11.2451 6.52279 10.9839C5.83102 10.5199 5.05419 9.8819 4.21535 9.04306C3.37652 8.20423 2.7385 7.4274 2.27453 6.73563C2.01328 6.34613 1.87356 6.08849 1.82927 5.98571L1.78916 5.89268L1.7354 5.80681C1.03821 4.69299 1.26299 2.88445 2.21897 1.92847L2.41381 1.73363C2.62987 1.51757 2.88819 1.53227 3.07606 1.76979L4.13684 3.11087C4.3984 3.44154 4.36454 4.01723 4.06268 4.31913C3.42052 4.96879 3.4237 6.01536 4.06994 6.66157L6.59692 9.18854C7.24471 9.83633 8.29845 9.83671 8.94743 9.18776L8.99935 9.13585C9.29399 8.84121 9.84626 8.81393 10.1696 9.07885L11.4775 10.1504C11.7217 10.3504 11.736 10.6335 11.5144 10.855Z" fill="#141414"/>
</g>
<defs>
<clipPath id="clip0">
<rect width="13" height="13" fill="white" transform="translate(0 0.25)"/>
</clipPath>
</defs>
</svg>
