<svg width="20" height="12" viewBox="0 0 20 12" fill="none" xmlns="http://www.w3.org/2000/svg">
<path d="M19.8217 10.7667C19.768 10.6767 19.4355 9.95418 17.8353 8.46907C16.1602 6.91395 16.3852 7.16647 18.4029 4.47752C19.6317 2.8399 20.123 1.83983 19.9692 1.4123C19.823 1.00477 18.9192 1.11227 18.9192 1.11227L15.9139 1.12977C15.9139 1.12977 15.6914 1.09977 15.5252 1.19853C15.3639 1.29604 15.2601 1.52105 15.2601 1.52105C15.2601 1.52105 14.7839 2.78865 14.1488 3.86623C12.81 6.14015 12.2737 6.26016 12.0549 6.1189C11.5461 5.79012 11.6736 4.7963 11.6736 4.09124C11.6736 1.88733 12.0074 0.968513 11.0223 0.730995C10.6948 0.65224 10.4548 0.599736 9.61848 0.590985C8.54591 0.579734 7.63709 0.594735 7.1233 0.846004C6.78078 1.01352 6.51701 1.38729 6.67827 1.40855C6.87703 1.4348 7.32707 1.5298 7.56583 1.85483C7.87461 2.27361 7.86336 3.21618 7.86336 3.21618C7.86336 3.21618 8.04087 5.81012 7.44958 6.13265C7.0433 6.35391 6.487 5.90263 5.29317 3.83873C4.68187 2.7824 4.21934 1.61356 4.21934 1.61356C4.21934 1.61356 4.13058 1.39604 3.97182 1.27979C3.77931 1.13853 3.50929 1.09352 3.50929 1.09352L0.651577 1.11102C0.651577 1.11102 0.222795 1.12352 0.0652839 1.30979C-0.0747264 1.47605 0.054033 1.81858 0.054033 1.81858C0.054033 1.81858 2.2917 7.05271 4.82438 9.69166C7.1483 12.1106 9.786 11.9518 9.786 11.9518H10.9811C10.9811 11.9518 11.3424 11.9118 11.5261 11.7131C11.6961 11.5305 11.6899 11.188 11.6899 11.188C11.6899 11.188 11.6661 9.58415 12.4112 9.34789C13.145 9.11537 14.0876 10.898 15.0864 11.5843C15.8414 12.1031 16.4152 11.9893 16.4152 11.9893L19.0867 11.9518C19.0867 11.9518 20.4843 11.8656 19.8217 10.7667Z" fill="white"/>
</svg>
