<svg width="111" height="104" viewBox="0 0 111 104" fill="none" xmlns="http://www.w3.org/2000/svg">
<g clip-path="url(#clip0)">
<path d="M41 3V11L31.5 17L24 12.5L19.5 17L24.5 25L18 33.5H10L8.5 39.5L16.5 43L16 54.5L8.5 58.5L10 64.5H19.5L24 73L19.5 81L24 85.5L31.5 81L40 85.5V95L46 96.5L50.5 89.5L61 89L65.5 96.5L71.5 95V87L76 83.5L70 76.5C66 77.8333 55.6 80 46 78C34 75.5 29 63 26 55.5C23 48 28 28 41 22C54 16 61 19.5 68.5 21.5C76 23.5 81.5 34.5 84.5 38C86.9 40.8 86.5 49.1667 86 53L83 63L90.5 70L94 64.5H102L104 58.5L95 55.5L96.5 43L104 39.5L101.5 33.5H93L88.5 24.5L93 17L88.5 12.5L80 17L71.5 12.5V3L65.5 1L61 9H51L46.5 1L41 3Z" fill="#18C286"/>
<path d="M95.1406 33.5C93.6631 41.1496 90.3343 48.2468 85.5726 54.4248L83 63L90.5 70L94 64.5H102L104 58.5L95 55.5L96.5 43L104 39.5L101.5 33.5H95.1406Z" fill="#2CB483"/>
<path d="M43.8872 77.4363C40.986 77.8077 38.0186 78 35 78C30.4977 78 26.1093 77.5722 21.8848 76.7604L19.5 81L24 85.5L31.5 81L40 85.5V95L46 96.5L50.5 89.5L61 89L65.5 96.5L71.5 95V87L76 83.5L70 76.5C66 77.8333 55.6 80 46 78C45.2702 77.848 44.5663 77.6589 43.8872 77.4363Z" fill="#2CB483"/>
<path d="M64.76 68.0779C63.8644 67.1827 62.561 66.8581 61.3562 67.2308C57.2915 68.4927 52.5145 67.0143 49.5931 64.0931L49 63.5C48.405 62.9053 47.4404 62.9053 46.8457 63.5C46.2507 64.0952 46.2507 65.0596 46.8457 65.6545L47.4388 66.2477C51.4022 70.211 57.443 71.6356 62.2585 70.141C62.3773 70.1045 62.5132 70.1402 62.6052 70.2324L68.0187 75.6459C63.0828 77.8468 57.5186 78.6436 52.1335 77.89C45.8574 77.0121 40.1646 74.1724 35.6705 69.6785C30.1936 64.2025 27.1772 56.9212 27.1772 49.1759C27.1772 41.4305 30.1934 34.1485 35.6705 28.6716C44.4162 19.9263 57.7567 17.6856 68.8676 23.0958C69.6238 23.4645 70.5359 23.1497 70.9041 22.393C71.2724 21.6366 70.958 20.7248 70.2013 20.3565C57.9226 14.3771 43.18 16.853 33.5161 26.5171C27.4636 32.5698 24.1305 40.6166 24.1305 49.1759C24.1305 57.7352 27.4638 65.7817 33.5161 71.8332C38.4823 76.7994 44.7741 79.9373 51.7115 80.9077C53.1746 81.1124 54.6484 81.2136 56.1223 81.2134C61.0278 81.2132 65.9198 80.0907 70.3092 77.9365L75.0042 82.6316C74.1023 83.1398 73.1797 83.6169 72.2397 84.0488C70.7672 84.7276 69.8735 86.2746 70.0159 87.9002L70.5227 93.6017C70.558 94.0021 70.3037 94.3671 69.9161 94.4705L66.9221 95.2727C66.5339 95.3783 66.1305 95.1869 65.9613 94.8239L63.5445 89.6229C62.8579 88.1446 61.312 87.2514 59.6965 87.3993C57.3593 87.614 54.9893 87.614 52.6525 87.3993C51.0403 87.2512 49.4945 88.1434 48.8043 89.6225L46.3871 94.8244C46.2183 95.1882 45.8147 95.3769 45.4262 95.2727L42.4319 94.4699C42.0451 94.3669 41.7902 94.0017 41.8256 93.6024L42.3322 87.9017C42.4782 86.276 41.584 84.7274 40.1079 84.0486C37.9755 83.0669 35.9238 81.8812 34.0099 80.5254C32.6868 79.5869 30.8995 79.5855 29.5609 80.5231L24.8738 83.815C24.5455 84.0455 24.1013 84.0071 23.8171 83.7232L21.626 81.5321C21.3428 81.2487 21.3049 80.8045 21.535 80.4764L24.826 75.7881C25.7639 74.4529 25.7643 72.6656 24.826 71.3392C23.469 69.4258 22.2827 67.3749 21.3008 65.2437C20.6226 63.7694 19.0745 62.873 17.4489 63.0168L11.7472 63.5236C11.346 63.5579 10.9825 63.3036 10.8787 62.9171L10.0763 59.9232C9.97252 59.5361 10.162 59.1314 10.525 58.9622L15.7248 56.5461C17.2046 55.8607 18.0985 54.3139 17.9496 52.6989C17.737 50.3609 17.737 47.99 17.9494 45.6537C18.0981 44.0403 17.2052 42.4941 15.7264 41.8055L10.5246 39.3885C10.1608 39.2195 9.97211 38.8153 10.0761 38.4275L10.8785 35.4359C10.9827 35.0477 11.3481 34.7934 11.7466 34.8271L17.4473 35.3337C19.0729 35.4802 20.6213 34.5854 21.3006 33.1095C22.2793 30.983 23.4655 28.9312 24.8258 27.0115C25.7637 25.6893 25.7641 23.9022 24.8258 22.5626L21.5352 17.8772C21.304 17.5475 21.342 17.1026 21.6258 16.8189L23.8169 14.6276C24.1007 14.3442 24.5457 14.3062 24.8744 14.5366L29.5621 17.8286C30.8999 18.7658 32.6874 18.7656 34.0091 17.828C35.9292 16.4675 37.981 15.2812 40.1071 14.3024C41.5806 13.6247 42.4747 12.0775 42.332 10.4505L41.8252 4.74878C41.7898 4.34943 42.046 3.98422 42.4341 3.88022L45.426 3.07808C45.8133 2.97408 46.2177 3.16258 46.3867 3.52678L48.8043 8.72942C49.4923 10.2067 51.0383 11.1021 52.6503 10.9514C54.9883 10.7387 57.3589 10.7387 59.6957 10.9514C61.3122 11.0999 62.8592 10.2059 63.5437 8.7282L65.9597 3.52881C66.1301 3.16379 66.5343 2.97468 66.9219 3.07808L69.9145 3.88001C70.3019 3.98422 70.5574 4.34943 70.522 4.74837L70.015 10.4525C69.8729 12.0771 70.7678 13.6243 72.2413 14.3019C74.3733 15.2845 76.4244 16.4707 78.3391 17.8286C79.6639 18.7658 81.451 18.7654 82.7861 17.8278L87.474 14.5374C87.8031 14.306 88.2475 14.3448 88.5303 14.6274L90.7216 16.8191C91.0056 17.1028 91.0444 17.5473 90.8128 17.8761L87.5206 22.5643C86.5839 23.9014 86.5854 25.6887 87.5234 27.0109C88.8799 28.9253 90.0653 30.9771 91.0468 33.1091C91.7244 34.5828 93.2727 35.4751 94.8987 35.3339L100.6 34.8271C100.997 34.7904 101.365 35.0465 101.469 35.4359L102.271 38.4277C102.375 38.8153 102.187 39.2195 101.822 39.3885L96.6185 41.8065C95.142 42.4959 94.2495 44.0417 94.3978 45.6533C94.6127 47.9904 94.6127 50.3607 94.3978 52.6972C94.2493 54.3125 95.1428 55.8589 96.621 56.5452L101.82 58.9612C102.185 59.1314 102.375 59.5361 102.271 59.9234L101.468 62.9189C101.366 63.3046 100.999 63.5589 100.601 63.5238L94.8966 63.0168C93.2696 62.8732 91.7248 63.7696 91.0468 65.2439C90.6148 66.1829 90.1378 67.1049 89.63 68.0058L84.9358 63.3113C87.7373 57.6035 88.7919 51.0448 87.9061 44.7126C86.9358 37.7753 83.7979 31.4835 78.8315 26.5173C78.083 25.7688 77.2898 25.0497 76.4748 24.3802C75.8244 23.8462 74.8649 23.9406 74.3304 24.5904C73.7964 25.2406 73.8907 26.2008 74.5407 26.7348C75.2796 27.3416 75.9985 27.9934 76.6769 28.672C81.1711 33.1662 84.0106 38.859 84.8885 45.1349C85.6419 50.5198 84.845 56.0842 82.6443 61.0201L77.2309 55.6066C77.1386 55.5146 77.1027 55.3785 77.1392 55.2609C78.634 50.4442 78.8177 46.4243 74.8541 42.4606L67.102 34.7103C65.7573 33.3634 63.8423 32.789 61.9794 33.1757L55.4016 34.5383C54.3604 34.753 53.5233 35.5196 53.2172 36.5391C52.9109 37.5594 53.1878 38.6617 53.9414 39.4173L55.1026 40.5784L51.0436 41.6676C49.8852 41.9763 48.9739 42.8879 48.6658 44.0437L47.576 48.105L46.4133 46.9421C45.6593 46.1901 44.557 45.9133 43.5365 46.2194C42.5172 46.5255 41.7506 47.3626 41.5363 48.4022L40.1733 54.9814C39.7874 56.8447 40.361 58.7595 41.7071 60.1032L46.5727 65.4376C47.1676 66.0323 48.1322 66.0323 48.727 65.4376C49.3219 64.8424 49.3219 63.878 48.727 63.283L43.8605 57.9476C43.243 57.3313 42.9799 56.4536 43.1568 55.5997L44.4619 49.2998L52.4726 57.3124C53.3178 58.1576 54.5601 58.4916 55.7177 58.1841L61.3069 56.6844C62.4612 56.3738 63.3712 55.4636 63.6822 54.3082L65.1823 48.7168C65.4892 47.5622 65.1549 46.3199 64.3097 45.4749L56.2972 37.4645L62.5973 36.1592C63.4511 35.9823 64.329 36.2453 64.9465 36.8641L72.6995 44.6151C75.6207 47.5365 75.4907 50.2931 74.2289 54.3586C73.8561 55.5619 74.1807 56.8658 75.0761 57.7614L96.7146 79.4001C97.0122 79.6974 97.402 79.8461 97.792 79.8461C98.1818 79.8461 98.5718 79.6974 98.8694 79.4001C99.4643 78.8049 99.4643 77.8405 98.8694 77.2455L91.8626 70.2387C92.5741 69.0356 93.2296 67.7894 93.8148 66.5177C93.9568 66.2091 94.2879 66.0214 94.6289 66.0525L100.332 66.5593C102.212 66.7247 103.927 65.5248 104.412 63.7064L105.214 60.7132C105.702 58.8948 104.816 56.997 103.106 56.1997L97.9045 53.7825C97.5909 53.6369 97.4012 53.3133 97.432 52.9769C97.6638 50.4547 97.6638 47.8972 97.432 45.3748C97.4012 45.0394 97.5921 44.7152 97.9049 44.5692L103.106 42.1522C104.816 41.3582 105.702 39.46 105.214 37.639L104.413 34.6498C103.928 32.8276 102.209 31.6253 100.331 31.7926L94.6305 32.2992C94.2854 32.3305 93.9564 32.1434 93.8146 31.8361C92.7545 29.5331 91.4744 27.3172 90.0088 25.2492C89.8136 24.9741 89.8165 24.5977 90.0149 24.3144L93.3056 19.6287C94.3904 18.0864 94.2097 15.9989 92.8762 14.6653L90.6846 12.4736C89.3529 11.1423 87.2669 10.9616 85.7241 12.0436L81.0352 15.3348C80.7512 15.5343 80.3744 15.5372 80.1002 15.3432C78.0338 13.8774 75.8187 12.5965 73.5151 11.535C73.2065 11.393 73.0199 11.0652 73.0499 10.7209L73.5567 5.01833C73.7229 3.14287 72.5236 1.42687 70.7038 0.937747L67.7106 0.135607C65.8922 -0.35169 63.9944 0.533529 63.1972 2.24343L60.7794 7.44648C60.6343 7.7595 60.3103 7.94759 59.9729 7.91773C57.4518 7.688 54.895 7.6884 52.3722 7.91773C52.0365 7.94779 51.7125 7.75808 51.5666 7.44486L49.1496 2.24384C48.3556 0.533732 46.4576 -0.353112 44.6362 0.135607L41.6446 0.937747C39.8242 1.42606 38.6237 3.14206 38.7899 5.01873L39.2967 10.719C39.3269 11.0656 39.1409 11.3934 38.8331 11.5352C36.5362 12.5927 34.3203 13.8738 32.2466 15.3432C31.972 15.5378 31.5958 15.5339 31.3114 15.3348L26.6249 12.0418C25.0816 10.9591 22.9949 11.1405 21.663 12.4724L19.4719 14.6637C18.14 15.9954 17.9588 18.0821 19.0416 19.6265L22.3319 24.3113C22.5321 24.5971 22.5358 24.9735 22.3408 25.2486C20.8716 27.3221 19.5905 29.538 18.5332 31.8349C18.3914 32.143 18.0638 32.3305 17.7191 32.298L12.0166 31.7912C10.1395 31.6263 8.4245 32.8257 7.93619 34.6459L7.13384 37.6376C6.64553 39.4588 7.53197 41.3568 9.24147 42.1508L14.4419 44.5672C14.7563 44.7138 14.947 45.0374 14.9158 45.375C14.6864 47.8964 14.6864 50.4531 14.916 52.9759C14.9468 53.3121 14.7575 53.6357 14.4429 53.7813L9.23964 56.1993C7.53177 56.9958 6.64634 58.8936 7.13364 60.7115L7.93619 63.706C8.4247 65.5248 10.1407 66.7255 12.0168 66.5581L17.7169 66.0515C18.0632 66.0216 18.391 66.2081 18.5334 66.5175C19.5941 68.8199 20.8752 71.0352 22.34 73.0999C22.5354 73.376 22.5325 73.7526 22.3327 74.0367L19.0408 78.7263C17.9594 80.269 18.1406 82.3547 19.4719 83.6862L21.6632 85.8775C22.9969 87.2108 25.0844 87.3914 26.6261 86.3075L31.311 83.0173C31.5956 82.8178 31.9722 82.8148 32.2482 83.0106C34.3156 84.4755 36.5315 85.7558 38.8347 86.8161C39.1427 86.9579 39.329 87.2846 39.2979 87.6303L38.7911 93.333C38.6247 95.2127 39.8264 96.9289 41.6458 97.4134L44.6372 98.2155C44.9734 98.3055 45.3118 98.349 45.6457 98.349C47.1214 98.3488 48.5033 97.5019 49.1509 96.1077L51.5668 90.9087C51.7139 90.5935 52.0375 90.4029 52.3738 90.4334C54.8958 90.6652 57.4536 90.6652 59.9758 90.4334C60.3122 90.4015 60.6355 90.5925 60.7814 90.9063L63.1994 96.1097C63.9958 97.8174 65.8936 98.7032 67.7116 98.2155L70.7034 97.414C72.5238 96.9283 73.7243 95.2121 73.5582 93.3324L73.0516 87.6323C73.0213 87.286 73.2078 86.9577 73.5141 86.8164C74.7858 86.232 76.033 85.5765 77.2374 84.8639L95.9279 103.554C96.2255 103.852 96.6155 104.001 97.0053 104.001C97.3951 104.001 97.7851 103.852 98.0827 103.554C98.6776 102.959 98.6776 101.995 98.0827 101.4L64.76 68.0779ZM62.2398 47.9301L60.741 53.5169C60.7115 53.6261 60.6256 53.7123 60.5173 53.7411L54.9328 55.2396C54.8243 55.268 54.7078 55.2369 54.6283 55.1573L50.1846 50.7125C50.1118 50.6339 50.083 50.5224 50.1102 50.4196L51.6101 44.8302C51.6385 44.7236 51.7226 44.6395 51.8319 44.6104L57.4166 43.1118C57.5222 43.0837 57.6332 43.1126 57.712 43.1853L62.1565 47.6289C62.2362 47.7083 62.2677 47.8253 62.2398 47.9301Z" fill="black"/>
<path d="M110.554 88.9275L103.895 82.2691C103.3 81.6743 102.336 81.6743 101.741 82.2691C101.146 82.8642 101.146 83.8287 101.741 84.4236L108.399 91.082C108.697 91.3794 109.087 91.5281 109.476 91.5281C109.866 91.5281 110.256 91.3794 110.554 91.082C111.149 90.4869 111.149 89.5225 110.554 88.9275Z" fill="black"/>
<path d="M72.736 63.5816C72.1409 62.9868 71.1764 62.9868 70.5815 63.5816C69.9865 64.1767 69.9865 65.1412 70.5815 65.7361L102.163 97.318C102.461 97.6153 102.851 97.764 103.241 97.764C103.631 97.764 104.021 97.6153 104.318 97.318C104.913 96.7228 104.913 95.7584 104.318 95.1634L72.736 63.5816Z" fill="black"/>
<circle cx="20.5" cy="83.5" r="20.5" fill="#209068"/>
<path d="M15.9661 90V88.043L20.5071 83.369C21.5205 82.305 22.0271 81.4183 22.0271 80.709C22.0271 80.1897 21.8625 79.7717 21.5331 79.455C21.2165 79.1383 20.8048 78.98 20.2981 78.98C19.2975 78.98 18.5565 79.4993 18.0751 80.538L15.8711 79.246C16.2891 78.334 16.8908 77.6373 17.6761 77.156C18.4615 76.6747 19.3228 76.434 20.2601 76.434C21.4635 76.434 22.4958 76.814 23.3571 77.574C24.2185 78.3213 24.6491 79.3347 24.6491 80.614C24.6491 81.9947 23.9208 83.4133 22.4641 84.87L19.8611 87.473H24.8581V90H15.9661Z" fill="white"/>
</g>
<defs>
<clipPath id="clip0">
<rect width="111" height="104" fill="white"/>
</clipPath>
</defs>
</svg>
