<svg width="54" height="54" viewBox="0 0 54 54" fill="none" xmlns="http://www.w3.org/2000/svg">
<g clip-path="url(#clip0)">
<path d="M53.4529 16.103L35.3123 6.14193C34.9963 5.96848 34.6131 5.96848 34.2971 6.14193L27.4754 9.88771C27.3213 9.93056 27.1776 10.0093 27.0556 10.118L16.1565 16.103C15.8191 16.2883 15.6094 16.6427 15.6094 17.0275V19.1838H3.44092C2.85837 19.1838 2.38623 19.6563 2.38623 20.2385C2.38623 20.821 2.85837 21.2932 3.44092 21.2932H15.6094V25.09H9.56264C8.98009 25.09 8.50795 25.5626 8.50795 26.1447C8.50795 26.7273 8.98009 27.1994 9.56264 27.1994H15.6094V32.6838H6.75C6.16745 32.6838 5.69531 33.1563 5.69531 33.7385C5.69531 34.321 6.16745 34.7932 6.75 34.7932H15.6094V36.9499C15.6094 37.3347 15.8191 37.689 16.1565 37.8744L34.2971 47.8354C34.4553 47.9224 34.63 47.9656 34.8047 47.9656C34.9794 47.9656 35.154 47.9224 35.3123 47.8354L53.4529 37.8744C53.7903 37.689 54 37.3347 54 36.9499V32.2269C54 31.6448 53.5279 31.1722 52.9453 31.1722C52.3628 31.1722 51.8906 31.6448 51.8906 32.2269V36.3258L35.8594 45.1287V27.6126L40.9577 24.8132V29.2561C40.9577 29.6293 41.1546 29.9746 41.4756 30.1641C41.6408 30.2617 41.8266 30.3107 42.0124 30.3107C42.1871 30.3107 42.3622 30.2675 42.5208 30.1801L46.4083 28.0407C46.7449 27.8553 46.9542 27.5014 46.9542 27.1166V21.5206L51.8906 18.8101V23.7894C51.8906 24.372 52.3628 24.8441 52.9453 24.8441C53.5279 24.8441 54 24.372 54 23.7894V17.0275C54 16.6427 53.7903 16.2883 53.4529 16.103ZM33.75 45.1287L17.7187 36.3258V18.8101L33.75 27.6126V45.1287ZM34.8047 25.7855L18.8554 17.0275L23.8681 14.275L39.8177 23.033L34.8047 25.7855ZM42.0091 21.8296L26.0594 13.0716L27.7885 12.1223L43.7378 20.8804L42.0091 21.8296ZM44.8448 26.4933L43.0671 27.4717V23.6551L44.8448 22.6787V26.4933ZM45.9292 19.6769L29.9799 10.9189L34.8047 8.26984L50.7539 17.0275L45.9292 19.6769Z" fill="#209068"/>
<path d="M52.9453 26.9539C52.668 26.9539 52.3957 27.0655 52.1996 27.2628C52.0035 27.459 51.8906 27.73 51.8906 28.0085C51.8906 28.2858 52.0035 28.5581 52.1996 28.7542C52.3957 28.9503 52.668 29.0632 52.9453 29.0632C53.2226 29.0632 53.4949 28.9503 53.691 28.7542C53.8871 28.5581 54 28.2858 54 28.0085C54 27.73 53.8871 27.459 53.691 27.2628C53.4949 27.0655 53.2226 26.9539 52.9453 26.9539Z" fill="#209068"/>
<path d="M2.56627 32.6838H1.05469C0.472137 32.6838 0 33.1563 0 33.7385C0 34.321 0.472137 34.7932 1.05469 34.7932H2.56627C3.14882 34.7932 3.62096 34.321 3.62096 33.7385C3.62096 33.1563 3.14882 32.6838 2.56627 32.6838Z" fill="#209068"/>
<path d="M6.39893 26.1447C6.39893 25.8674 6.28604 25.5955 6.08952 25.3994C5.89342 25.2029 5.62151 25.09 5.34424 25.09C5.06656 25.09 4.79465 25.2029 4.59854 25.3994C4.4012 25.5955 4.28955 25.8674 4.28955 26.1447C4.28955 26.4224 4.4012 26.6943 4.59854 26.8904C4.79465 27.0865 5.06656 27.1994 5.34424 27.1994C5.62151 27.1994 5.89342 27.0869 6.08952 26.8904C6.28604 26.6943 6.39893 26.4224 6.39893 26.1447Z" fill="#209068"/>
</g>
<defs>
<clipPath id="clip0">
<rect width="54" height="54" fill="white"/>
</clipPath>
</defs>
</svg>
