<svg width="134" height="134" viewBox="0 0 134 134" fill="none" xmlns="http://www.w3.org/2000/svg">
<circle cx="44.5" cy="100.5" r="4.5" fill="#2CB483"/>
<circle cx="106.5" cy="100.5" r="4.5" fill="#2CB483"/>
<path d="M99.5 20H29.5L23.5 79.5H94.5L99.5 20Z" fill="#2CB483"/>
<path d="M63.5 20H26.9211L24 80H58.5658L63.5 20Z" fill="#18C286"/>
<path d="M110.5 51.5L109 66.5C114.5 66.5 119.5 71.5 121 74.5C122.2 76.9 128.5 79.5 131.5 80.5C131.667 77.5 131.2 69.7 128 62.5C124.8 55.3 115 52.1667 110.5 51.5Z" fill="#2CB483"/>
<path d="M108.482 49.3407H100.046L102.588 20.1566C102.593 20.1038 102.593 20.0517 102.594 19.9996C102.594 19.9951 102.594 19.991 102.594 19.9865C102.594 19.9857 102.594 19.9852 102.594 19.9844C102.594 19.1901 102.115 18.49 101.411 18.1856C101.405 18.183 101.399 18.1799 101.393 18.1772C101.349 18.1589 101.304 18.1432 101.258 18.128C101.241 18.1225 101.225 18.1157 101.208 18.1105C101.171 18.0992 101.133 18.0903 101.095 18.0812C101.068 18.0749 101.042 18.0673 101.015 18.0621C100.982 18.0555 100.948 18.0513 100.914 18.0464C100.882 18.0417 100.85 18.0362 100.818 18.0333C100.813 18.0328 100.808 18.0317 100.802 18.0312C100.768 18.0281 100.734 18.0286 100.699 18.0273C100.676 18.0265 100.654 18.0239 100.631 18.0239H100.606C100.604 18.0239 100.602 18.0239 100.6 18.0239H60.4599C59.3764 18.0239 58.497 18.9032 58.497 19.9868C58.497 21.0677 59.3764 21.9497 60.4599 21.9497H98.4912L94.5847 66.8019C94.5842 66.8053 94.5842 66.8087 94.5837 66.8121L93.5981 78.1291H25.3915L26.5324 66.3523H39.5192C40.6035 66.3523 41.4821 65.4734 41.4821 64.3894C41.4821 63.3053 40.6035 62.4265 39.5192 62.4265H26.9129L29.3218 37.5644H49.9911C51.0754 37.5644 51.954 36.6855 51.954 35.6015C51.954 34.5174 51.0754 33.6386 49.9911 33.6386H29.7023L30.835 21.9497H52.6083C53.6892 21.9497 54.5712 21.0677 54.5712 19.9868C54.5712 18.9032 53.6892 18.0239 52.6083 18.0239H29.0535C29.0525 18.0239 29.0517 18.0241 29.0506 18.0241C28.1286 18.0239 27.3288 18.6729 27.1354 19.5727C27.1341 19.5793 27.1317 19.5855 27.1304 19.5921C27.1205 19.641 27.1139 19.691 27.1074 19.7413C27.1055 19.7572 27.1021 19.7724 27.1006 19.7884C27.1003 19.7915 27.0995 19.7944 27.0993 19.7975L25.7582 33.6386H1.9629C0.878593 33.6386 0 34.5174 0 35.6015C0 36.6855 0.878593 37.5644 1.9629 37.5644H25.3777L22.9688 62.4265H15.9654C14.8811 62.4265 14.0025 63.3053 14.0025 64.3894C14.0025 65.4734 14.8811 66.3523 15.9654 66.3523H22.5885L21.2768 79.8887C21.2765 79.8908 21.2765 79.8928 21.2762 79.8947L19.2482 100.827C19.2479 100.829 19.2477 100.832 19.2474 100.834L19.2466 100.841C19.244 100.869 19.2443 100.895 19.2427 100.923C19.2409 100.959 19.2372 100.994 19.2372 101.031C19.2372 101.032 19.2375 101.034 19.2375 101.036C19.2375 101.086 19.2411 101.136 19.2448 101.186C19.2463 101.202 19.2458 101.218 19.2477 101.233C19.2529 101.284 19.2615 101.334 19.2707 101.384C19.2733 101.399 19.2746 101.414 19.2775 101.428C19.2851 101.466 19.2958 101.502 19.3058 101.539C19.3126 101.565 19.3181 101.591 19.3259 101.617C19.3283 101.624 19.3314 101.631 19.3335 101.638C19.4285 101.93 19.5897 102.192 19.8001 102.406C19.8041 102.41 19.8072 102.415 19.8111 102.418C19.8321 102.439 19.8548 102.458 19.8768 102.478C20.0121 102.602 20.165 102.707 20.3322 102.79C20.367 102.807 20.4013 102.825 20.4369 102.84C20.4476 102.845 20.4592 102.848 20.4702 102.852C20.5194 102.872 20.5688 102.89 20.6199 102.906C20.6246 102.908 20.629 102.908 20.6337 102.91C20.6918 102.927 20.7505 102.943 20.8104 102.955C20.8182 102.956 20.8264 102.957 20.8339 102.958C20.891 102.969 20.9483 102.978 21.0067 102.984C21.008 102.984 21.009 102.984 21.0103 102.985C21.0747 102.991 21.1386 102.994 21.2019 102.994C21.2027 102.994 21.2038 102.994 21.2048 102.994H29.9431C30.9081 110.31 37.1802 115.976 44.7557 115.976C52.3306 115.976 58.6027 110.31 59.5677 102.994H91.0523C92.0175 110.31 98.2894 115.976 105.865 115.976C113.44 115.976 119.712 110.31 120.677 102.994H129.418C129.419 102.994 129.421 102.994 129.422 102.994C129.487 102.994 129.552 102.99 129.616 102.984C129.627 102.983 129.638 102.98 129.65 102.979C129.701 102.973 129.752 102.966 129.801 102.956C129.823 102.952 129.843 102.946 129.865 102.941C129.903 102.932 129.942 102.923 129.979 102.912C130.005 102.904 130.03 102.895 130.055 102.886C130.087 102.876 130.119 102.864 130.151 102.851C130.178 102.84 130.204 102.829 130.231 102.817C130.26 102.804 130.288 102.79 130.316 102.776C130.343 102.762 130.369 102.748 130.394 102.733C130.421 102.717 130.448 102.701 130.474 102.684C130.499 102.669 130.524 102.653 130.547 102.636C130.574 102.617 130.599 102.598 130.625 102.578C130.647 102.561 130.668 102.544 130.689 102.526C130.716 102.504 130.742 102.48 130.767 102.455C130.785 102.438 130.804 102.422 130.821 102.404C130.848 102.376 130.874 102.347 130.9 102.317C130.914 102.301 130.928 102.286 130.942 102.27C130.97 102.234 130.997 102.197 131.023 102.16C131.032 102.148 131.042 102.136 131.05 102.123C131.082 102.075 131.112 102.025 131.14 101.975C131.142 101.972 131.144 101.969 131.145 101.965C131.175 101.911 131.202 101.855 131.227 101.797C131.233 101.781 131.239 101.764 131.245 101.747C131.261 101.707 131.277 101.666 131.29 101.624C131.299 101.597 131.305 101.569 131.313 101.542C131.321 101.509 131.33 101.476 131.338 101.443C131.344 101.414 131.349 101.383 131.354 101.353C131.358 101.327 131.364 101.301 131.367 101.274C131.45 100.607 132.987 88.2749 133.674 80.3009C133.675 80.2933 133.675 80.2854 133.676 80.2778C133.873 77.9791 134 76.0435 134 74.8584C134 60.7881 122.553 49.3407 108.482 49.3407ZM99.704 53.267H107.734L106.709 65.0434H98.6783L99.704 53.267ZM44.7562 112.05C38.6798 112.05 33.7365 107.106 33.7365 101.03C33.7365 94.9543 38.6801 90.0109 44.7562 90.0109C50.8323 90.0109 55.7756 94.9543 55.7756 101.03C55.7756 107.106 50.8323 112.05 44.7562 112.05ZM105.865 112.05C99.7885 112.05 94.8454 107.106 94.8454 101.03C94.8454 94.9543 99.7888 90.0109 105.865 90.0109C111.941 90.0109 116.884 94.9543 116.884 101.03C116.884 107.106 111.941 112.05 105.865 112.05ZM127.683 99.0667H120.678C119.713 91.7503 113.441 86.0838 105.865 86.0838C98.2899 86.0838 92.0175 91.7506 91.0528 99.0667H59.5685C58.6038 91.7503 52.3317 86.0838 44.7562 86.0838C37.1807 86.0838 30.9081 91.7506 29.9434 99.0667H23.3627L25.0113 82.0539H95.3969V82.0549C95.3979 82.0549 95.3987 82.0549 95.3997 82.0549C95.4654 82.0549 95.5306 82.0512 95.595 82.0447C95.607 82.0437 95.6188 82.041 95.6308 82.0395C95.6821 82.0335 95.7332 82.0261 95.7834 82.0162C95.8051 82.0117 95.8263 82.0057 95.8478 82.0005C95.8871 81.9911 95.9263 81.9819 95.9645 81.9704C95.9907 81.9625 96.0156 81.9531 96.041 81.9442C96.0739 81.9327 96.1069 81.9214 96.1388 81.9084C96.1663 81.8971 96.1928 81.8845 96.2195 81.872C96.2485 81.8586 96.2775 81.8453 96.3055 81.8306C96.3322 81.8165 96.3584 81.8013 96.3849 81.7861C96.4118 81.7704 96.4385 81.7545 96.4647 81.7377C96.4901 81.7212 96.5141 81.7039 96.5385 81.6867C96.5644 81.6684 96.5895 81.6495 96.6147 81.6299C96.6372 81.6118 96.6594 81.5932 96.6814 81.5741C96.7062 81.5527 96.7306 81.5307 96.7541 81.5079C96.774 81.4888 96.7939 81.4692 96.8133 81.449C96.8368 81.4244 96.8596 81.399 96.8821 81.3731C96.8997 81.3527 96.9169 81.3323 96.9337 81.3114C96.9554 81.2839 96.9761 81.2556 96.9965 81.2271C97.0119 81.2056 97.0269 81.1842 97.0415 81.1622C97.0606 81.1326 97.0789 81.1023 97.0965 81.0714C97.1098 81.0483 97.1234 81.0253 97.1355 81.0017C97.152 80.9709 97.1661 80.9395 97.181 80.9078C97.1925 80.8824 97.2043 80.8575 97.2148 80.8314C97.2276 80.8005 97.2383 80.7688 97.2496 80.7372C97.2593 80.7091 97.2695 80.6811 97.2781 80.6524C97.2867 80.622 97.2938 80.5909 97.3017 80.56C97.3093 80.5288 97.3176 80.4979 97.3236 80.4663C97.3297 80.4354 97.3333 80.404 97.338 80.3726C97.3428 80.3401 97.3482 80.3082 97.3514 80.2752C97.3519 80.2705 97.353 80.2661 97.3532 80.2613L98.337 68.9681H108.482C114.496 68.9681 117.208 72.0842 120.08 75.3834C122.449 78.1056 125.094 81.1428 129.591 81.8838C129.019 87.9216 128.096 95.6727 127.683 99.0667ZM129.926 77.9501C127.009 77.3555 125.215 75.3049 123.04 72.807C120.321 69.6834 117.002 65.8715 110.639 65.1612L111.654 53.5021C122.061 55.0412 130.074 64.0308 130.074 74.8589C130.074 75.5946 130.019 76.6635 129.926 77.9501Z" fill="black"/>
<path d="M44.7564 93.8328C40.7879 93.8328 37.5591 97.0614 37.5591 101.03C37.5591 104.999 40.7879 108.227 44.7564 108.227C48.7248 108.227 51.9537 104.999 51.9537 101.03C51.9537 97.0617 48.7248 93.8328 44.7564 93.8328ZM44.7564 104.302C42.9523 104.302 41.4849 102.834 41.4849 101.03C41.4849 99.2261 42.9523 97.7586 44.7564 97.7586C46.5604 97.7586 48.0279 99.2261 48.0279 101.03C48.0279 102.834 46.5601 104.302 44.7564 104.302Z" fill="black"/>
<path d="M105.865 93.8328C101.896 93.8328 98.6675 97.0614 98.6675 101.03C98.6675 104.999 101.896 108.227 105.865 108.227C109.833 108.227 113.062 104.999 113.062 101.03C113.062 97.0617 109.833 93.8328 105.865 93.8328ZM105.865 104.302C104.061 104.302 102.593 102.834 102.593 101.03C102.593 99.2261 104.061 97.7586 105.865 97.7586C107.669 97.7586 109.136 99.2261 109.136 101.03C109.136 102.834 107.669 104.302 105.865 104.302Z" fill="black"/>
<path d="M18.5821 49.3412H8.98585C7.90154 49.3412 7.02295 50.2201 7.02295 51.3041C7.02295 52.3882 7.90154 53.267 8.98585 53.267H18.5821C19.6664 53.267 20.545 52.3882 20.545 51.3041C20.545 50.2201 19.6664 49.3412 18.5821 49.3412Z" fill="black"/>
<circle cx="23.5" cy="95.5" r="20.5" fill="#209068"/>
<path d="M23.0312 88.7H25.3112V102H22.6892V91.474L20.1812 92.177L19.5352 89.935L23.0312 88.7Z" fill="white"/>
</svg>
