<svg width="135" height="135" viewBox="0 0 135 135" fill="none" xmlns="http://www.w3.org/2000/svg">
<circle cx="67.5" cy="67.5" r="67.5" fill="#21A174"/>
<path d="M86.493 77.0531C85.7048 76.3472 84.4939 76.416 83.7918 77.2023C79.8012 81.6616 74.0467 84.2174 67.9996 84.2174C61.9544 84.2174 56.198 81.6616 52.2074 77.2023C51.5015 76.416 50.2944 76.3472 49.5062 77.0531C48.718 77.7571 48.653 78.9661 49.357 79.7543C54.0726 85.0228 60.8678 88.0435 67.9996 88.0435C75.1333 88.0435 81.9285 85.0209 86.6422 79.7543C87.3462 78.9661 87.2793 77.7571 86.493 77.0531Z" fill="#FCFF6A"/>
<path d="M68 23C43.7388 23 24 42.7388 24 67C24 91.2612 43.7388 111 68 111C92.2612 111 112 91.2612 112 67C112 42.7388 92.2612 23 68 23ZM68 107.174C45.847 107.174 27.8261 89.153 27.8261 67C27.8261 44.847 45.847 26.8261 68 26.8261C90.153 26.8261 108.174 44.847 108.174 67C108.174 89.153 90.153 107.174 68 107.174Z" fill="#FCFF6A"/>
<path d="M83.3045 53.6087C78.0302 53.6087 73.7393 57.8997 73.7393 63.1739C73.7393 64.2299 74.5963 65.087 75.6523 65.087C76.7083 65.087 77.5653 64.2299 77.5653 63.1739C77.5653 60.0097 80.1403 57.4348 83.3045 57.4348C86.4686 57.4348 89.0436 60.0097 89.0436 63.1739C89.0436 64.2299 89.9007 65.087 90.9566 65.087C92.0126 65.087 92.8697 64.2299 92.8697 63.1739C92.8697 57.8997 88.5787 53.6087 83.3045 53.6087Z" fill="white"/>
<path d="M58.4352 63.1739C58.4352 64.2299 59.2923 65.087 60.3483 65.087C61.4043 65.087 62.2613 64.2299 62.2613 63.1739C62.2613 57.8997 57.9703 53.6087 52.6961 53.6087C47.4218 53.6087 43.1309 57.8997 43.1309 63.1739C43.1309 64.2299 43.9879 65.087 45.0439 65.087C46.0999 65.087 46.9569 64.2299 46.9569 63.1739C46.9569 60.0097 49.5319 57.4348 52.6961 57.4348C55.8603 57.4348 58.4352 60.0097 58.4352 63.1739Z" fill="white"/>
</svg>
